<?xml version="1.0" standalone="no"?>
<!DOCTYPE svg PUBLIC "-//W3C//DTD SVG 1.1//EN" "http://www.w3.org/Graphics/SVG/1.1/DTD/svg11.dtd" >
<svg xmlns="http://www.w3.org/2000/svg" xmlns:xlink="http://www.w3.org/1999/xlink" version="1.1">
<metadata>
Created by FontForge 20170731 at Sat Feb 14 00:41:35 2009
 By Aleksey,,,
Copyright (c) 2008 by MCQ Buyanjargal. All rights reserved.
</metadata>
<defs>
<font id="MAKMistral" horiz-adv-x="314" >
  <font-face 
    font-family="MAK Mistral"
    font-weight="400"
    font-stretch="normal"
    units-per-em="1000"
    panose-1="0 0 0 0 0 0 0 0 0 0"
    ascent="800"
    descent="-200"
    x-height="230"
    cap-height="528"
    bbox="-24 -264 918 744"
    underline-thickness="50"
    underline-position="-175"
    unicode-range="U+0020-2122"
  />
<missing-glyph horiz-adv-x="744" 
d="M46 0v744h652v-744h-652zM652 46v652h-560v-652h560z" />
    <glyph glyph-name=".notdef" horiz-adv-x="744" 
d="M46 0v744h652v-744h-652zM652 46v652h-560v-652h560z" />
    <glyph glyph-name=".null" horiz-adv-x="0" 
 />
    <glyph glyph-name="nonmarkingreturn" horiz-adv-x="393" 
 />
    <glyph glyph-name="space" unicode=" " horiz-adv-x="393" 
 />
    <glyph glyph-name="exclam" unicode="!" horiz-adv-x="244" 
d="M135 131v13l3 27q3 21 11 32l3 31l6 26l11 51l7 64l8 38l6 44l7 39l6 36q0 14 -11 17q-12 0 -28 -10q-4 -3 -13 -10t-14 -13q-15 -3 -26 -18q-7 -16 -7 -49l-3 -31l-6 -29q0 -9 13 -10q3 -8 3 -19v-16l-5 -24q-1 -10 -6 -15l-1 -28l-7 -76l-7 -21l-2 -22q0 -15 3 -21v-13
v-10l-2 -10v-18q10 -3 27.5 14t23.5 31zM67 -21q7 -2 23 1l29 4q11 0 12 14l4 27l1 6v5q0 9 -8.5 15t-21.5 6q-10 0 -17.5 -3.5t-16.5 -14.5l-15 -21q-3 -3 1 -20t9 -19z" />
    <glyph glyph-name="quotedbl" unicode="&#x22;" horiz-adv-x="219" 
d="M37 475l-5 -11l-1 -23q0 -10 -13 -55l-10 -31q-3 -14 12 -17q13 0 31 30q14 30 16 48l6 10l15 34l14 38l4 14q-3 5 -8 8l-10 5l-12 4q-28 -9 -39 -29q-3 -5 -3 -11v-9zM147 475l-5 -11l-1 -23l-9 -37l-15 -49l-1 -6v-4q0 -6 11 -7q13 0 31 30t18 48l4 7l12 24l19 49l4 16
q-3 5 -8 8l-9 5l-12 4q-29 -9 -39 -29q-3 -5 -3 -11v-9z" />
    <glyph glyph-name="dollar" unicode="$" horiz-adv-x="332" 
d="M137 -12l-1 -15q0 -9 -2 -12q0 -10 20 -10l4 25q0 19 4 24l29 17l28 22l31 29l18 17l11 4q8 3 12 11q0 13 -2 15l-12 8q0 51 -45 96l-38 35l-1 12l3 43l11 97q22 3 54.5 18.5t45.5 34.5q9 15 9 32q0 18 -13 32l-12 3q-8 0 -32 -9l-40 -15q0 17 2 23l3 26l-3 8l-14 2
q-12 0 -13 -4l-5 -45l-3 -28l-55 -36q-20 -13 -41 -40q-14 -17 -25 -40l-7 -22l-1 -16q0 -15 2 -23.5t8 -19.5q3 -10 19 -33l38 -37q25 -21 30 -31v-18v-15l-2 -15l-5 -68l-72 -31q-45 -21 -42 -41q3 -11 16 -20q12 -5 29 -7q18 0 32 5q15 3 27 12zM211 109q0 -15 -13 -21
l-26 -8l3 30l7 50l12 -12l10 -18zM178 400q17 0 25 -11t8 -28q0 -22 -12 -47t-25 -26l-8 3q-8 8 -18.5 30.5t-10.5 39.5q0 15 9 29q10 10 32 10z" />
    <glyph glyph-name="percent" unicode="%" horiz-adv-x="488" 
d="M33 248q4 -2 10.5 -15t24.5 -18l11 -8l24 -5q12 0 20 7q14 0 30 22l42 62l18 82l6 33l2 26l2 17q0 31 -17 54q-16 25 -40 25q-17 0 -33 -16q0 8 -11 11q-13 0 -25.5 -8t-12.5 -17l-31 -79l-22 -79l-1 -18l1 -16q0 -13 -2 -15l4 -26v-19zM141 -20q7 22 11 33t15 34
q17 36 45 87l49 89l22 43l45 74l30 54q41 80 48 141q5 5 8 17v6l-2 5l-15 -4l-3 -1l-17 -11q-12 5 -30.5 -22.5t-18.5 -42.5l-15 -39l-73 -142l-41 -76q-47 -88 -47 -114l-41 -65q-21 -42 -21 -70q0 -20 10 -31l8 -4q6 0 15 9q9 7 18 30zM414 21l27 49q9 20 12 41l10 40
q3 16 5 30.5t2 27.5q0 34 -6.5 55t-21.5 30q-7 4 -13 6.5t-14 4.5q-12 0 -24 -9l-8 -11q0 12 -16 13q-27 0 -33 -27q-18 -27 -30 -75l-27 -133q6 -8 6 -24q0 -15 4 -23q12 -24 23 -29.5t46 -11.5q17 3 30.5 12t27.5 34zM166 340q0 -14 -10 -31l-21 -32l-14 -7l-12 -7
q-9 0 -19 13q-8 13 -8 28q0 7 6 16l-2 20l4 42l6 36q3 19 13 29l32 16q13 0 15 -2l10 -16l7 -19l3 -30v-20l-4 -14zM424 141q0 -19 -6.5 -35t-21.5 -38q-20 -30 -42 -35q-6 2 -13 15t-7 28l4 18l-3 31q0 15 1 28t5.5 30.5t14.5 31.5l2 5l13 7q15 5 31 7q15 -3 20 -33z" />
    <glyph glyph-name="ampersand" unicode="&#x26;" horiz-adv-x="436" 
d="M158 -23q13 0 31 9q17 6 18 18q7 7 11 13q12 15 18.5 26.5t17.5 13.5q55 0 82 7q45 9 67 43l20 15q9 9 7 24l-22 -4l-41 -19l-12 1l-29 -2l-22 -2q-14 0 -20.5 3.5t-9.5 18.5l2 12l-1 17l1 38l2 25l13 23l22 54l52 95q16 32 19 46q0 9 -10 9l-16 -4q-14 3 -29 -12
l-16 -23l-46 -57q-10 -14 -19 -11q-6 7 -23 44q-12 32 -25 41l-34 33q-6 5 -20 10t-25 10l-21 5q-25 0 -50 -25q-21 -24 -21 -72l1 -23q-2 -2 -5 -19q0 -12 6 -41l8 -32q0 -54 61 -121l58 -59q0 -20 -5 -33l-4 -19l-4 -14l-4 -20l-4 -23q0 -19 21 -19zM219 254l-2 -8l-6 -10
q-6 -12 -6 -19l-23 -39q-18 -3 -60.5 54t-42.5 99l1 11q2 7 -4 22l-5 28l1 20l8 22q1 10 9.5 16.5t22.5 9.5q13 0 27 -11q10 -6 29 -33l26 -38q10 -16 19 -24l1 -22q2 -12 7 -23q-3 -13 -14 -25q-9 -12 -12 -25l-3 -23l11 10q6 6 16 8z" />
    <glyph glyph-name="quotesingle" unicode="'" horiz-adv-x="174" 
d="M129 361q4 17 18 50l35 81l3 6l2 8q0 7 -6 12l-24 9l-26 -9q-10 -3 -12 -8l-1 -18l-1 -17l-6 -46q-6 -42 -23 -79l-1 -11l7 -3q10 0 20.5 7.5t14.5 17.5z" />
    <glyph glyph-name="parenleft" unicode="(" horiz-adv-x="244" 
d="M168 -45l26 -5q17 0 17 17q0 15 -18 54l-25 53q-4 10 -6.5 18.5t-6.5 26.5l-4 50q0 16 1 32t4.5 38.5t17.5 66.5q6 21 17 50.5t29 73.5l16 41l16 43l4 13q0 9 -7 9q-11 0 -37 -24q-21 -23 -39 -61q-34 -66 -57.5 -142t-23.5 -144l1 -46l8 -42q6 -28 21 -60q21 -50 46 -62
z" />
    <glyph glyph-name="parenright" unicode=")" horiz-adv-x="244" 
d="M124 527q-17 6 -27 6q-18 0 -18 -18q0 -15 18 -54l27 -53q8 -19 12 -44l4 -47q0 -60 -24 -140l-18 -50l-29 -74l-18 -53l-10 -24l-5 -22q0 -9 8 -9q11 0 34.5 22.5t39.5 61.5q32 63 59 145q21 72 21 141q0 49 -11 88q-9 42 -28 80q-15 34 -35 44z" />
    <glyph glyph-name="asterisk" unicode="*" 
d="M220 279l-1 9l-8 28l-1 29v11l-2 13l47 -26q18 -9 29 -9q15 0 26 18q0 6 -11 10l-24 9l-32 14l-19 8l33 26q30 21 41 32q9 6 10 16q0 9 -10 20l-12 5q-5 0 -11 -12l-63 -60l-1 10l6 41l3 26q0 28 -23 28l-16 -6l-4 -5q3 -23 3 -56v-24l-1 -12l-29 22l-27 21q-3 9 -18 23
l-7 4l-9 -6q-5 -6 -6 -22q0 -13 10 -23l21 -11l22 -15l31 -22l-42 -25l-33 -16q-5 0 -8 -10q0 -17 23 -17l13 2q5 0 25 15l15 10l19 13l-1 -25l-1 -23q0 -22 4 -32.5t19 -11.5z" />
    <glyph glyph-name="comma" unicode="," horiz-adv-x="156" 
d="M51 51l-6 -35l-4 -20l-12 -44l-7 -28q0 -6 8 -6q6 0 23 12q9 6 10 13q0 13 8 30l9 23l8 11l10 25l14 36q9 18 7 26l-13 10l-15 2q-12 0 -22 -6.5t-18 -23.5l-1 -10z" />
    <glyph glyph-name="hyphen" unicode="-" horiz-adv-x="227" 
d="M151 141l21 -4q13 0 22 9.5t9 25.5q0 9 -3.5 15.5t-11.5 7.5l-56 -1h-54l-25 1l-5 -4l-9 -12q-7 -10 -13 -13q-5 -5 -8 -19q0 -9 14 -10l31 -1l33 -1l29 1q13 0 26 5z" />
    <glyph glyph-name="period" unicode="." horiz-adv-x="156" 
d="M82 0q19 3 35 14q2 1 3 1q7 4 17 11q12 12 13 17q0 10 -9 22q-13 13 -34 13l-9 4q-6 0 -13 -7l-13 -14q-21 -20 -21 -32q0 -6 4 -11z" />
    <glyph glyph-name="slash" unicode="/" 
d="M112 -6q-3 29 16 72q15 34 44 71l122 192q74 124 74 171l11 23q0 6 -9 6l-20 -3l-41 -8l-18 -35l-18 -45l-30 -77l-55 -93l-56 -95l-55 -95l-12 -33q-9 -30 -9 -49q0 -22 15 -25q15 0 41 23z" />
    <glyph glyph-name="zero" unicode="0" horiz-adv-x="332" 
d="M80 -21l30 -12l23 -4l19 4q49 12 106 141q49 121 49 187l2 47l3 41q0 43 -11 68q-14 35 -49 57q-26 17 -47 17q-33 0 -88 -58l5 22q0 19 -30 19q-29 -49 -54 -143l-14 -62l-14 -73l3 -77l3 -79q0 -33 22 -65q23 -30 42 -30zM217 129q-31 -54 -51 -73t-36 -19
q-27 0 -42 67l-8 57l-4 76q0 55 7 84l15 62q27 48 82 48q37 0 60 -23q25 -22 25 -65l-1 -13q0 -21 -18 -107t-29 -94z" />
    <glyph glyph-name="one" unicode="1" horiz-adv-x="277" 
d="M97 -33q35 0 71 95l25 73l50 206l13 68l13 75q0 13 -11 27q-10 16 -26 16q-17 0 -33 -19q-29 -17 -52 -44l-44 -52l-47 -49q-52 -58 -52 -77q0 -9 17 -9l11 5l12 10l18 21q21 27 85 73l34 14q0 -85 -36 -220l-36 -129l-23 -54l-7 -25q0 -5 7 -8z" />
    <glyph glyph-name="two" unicode="2" horiz-adv-x="319" 
d="M53 -23l67 -3h41l36 5q12 0 31 6q7 2 26 9q16 -3 40 15t24 34q0 7 -15 10l-85 -7l-58 -4q-43 0 -64 11q6 23 36 63l46 62q43 55 71 101q9 15 17 31.5t15 34.5q11 31 11 55l-1 16q-12 46 -54 70q-22 12 -89 26l-19 1q-40 0 -76 -18q-32 -18 -41 -50l-3 -24q0 -24 9 -47.5
t20 -24.5q9 0 15 20q0 16 3 25t26 22q18 9 52 9q35 0 65 -12q26 -12 32 -38q0 -29 -22 -70l-37 -57l-137 -170l-16 -24q-12 -21 -12 -38q0 -15 9 -24t37 -15z" />
    <glyph glyph-name="three" unicode="3" horiz-adv-x="308" 
d="M31 -39q42 0 84 18l123 72q62 33 62 89l-1 12q-9 38 -63 65q-63 30 -72 39l28 45q21 33 29 37q4 14 47 75l33 52q3 29 -20 46q-21 18 -64 18q-48 0 -92 -6t-59 -18q-8 -8 -22 -34q-5 -9 -9 -21.5t-4 -19.5q0 -17 16 -20l42 14l18 5l24 6l41 4q28 0 36 -4q3 -1 6 -5
q0 -1 1 -2q-4 -12 -14.5 -29.5t-32.5 -48.5q-39 -56 -64 -84q-17 -20 -17 -37q0 -24 49 -45l85 -32q6 -3 7 -8q0 -19 -111 -85q-51 -30 -80 -43l-21 -17q-18 -15 -19 -25q0 -13 34 -13z" />
    <glyph glyph-name="four" unicode="4" horiz-adv-x="298" 
d="M167 25l-3 -22l-3 -29q0 -19 12 -31q13 6 22.5 15.5t12.5 19.5q9 3 15 67t15 81q3 9 34 22q18 6 38 19q21 9 21 31q0 13 -9 16l-33 -11q-18 -6 -34 -6l43 191q5 2 8 9q0 12 -33 26q-20 0 -23 -1.5t-6 -4t-6 -5.5l-21 -98l-20 -111q-3 -3 -16 -6l-28 -2l-30 1l-28 1
q-27 -3 -27 38q0 53 38 147l31 74l26 59q2 4 9 26.5t7 24.5l7 20q0 9 -12 9q-17 0 -46 -15.5t-39 -31.5l-21 -63l4 -15l-36 -148l-13 -56l-5 -52q0 -42 20 -68q22 -25 71 -25l52 5q7 0 14 -7l4 -24q0 -24 -5 -40z" />
    <glyph glyph-name="five" unicode="5" horiz-adv-x="306" 
d="M13 4q14 -15 32 -21t46 -6l27 1l26 1q54 6 100 34q57 33 57 77q0 15 -6.5 32t-25.5 36q-9 12 -103 74q-72 46 -83 81l-1 12q0 24 15 51q7 11 14.5 20.5t20.5 21.5l96 10q30 0 48 7.5t29 26.5t19 46q-24 6 -56 6l-34 -1l-34 -1h-21l-12 2l-22 -5l-36 -1q-17 3 -42 -43
q-20 -38 -36 -88l-6 -25l-2 -22q0 -51 48 -101q7 -7 102 -77q48 -39 48 -53q0 -9 -14 -19l-46 -23q-21 -9 -88 -21q-66 -9 -66 -21l2 -5z" />
    <glyph glyph-name="six" unicode="6" horiz-adv-x="292" 
d="M97 0l42 -16l22 -5l24 -2q26 0 42 8q20 6 36 27q11 16 15 29l4 32q0 63 -69 138q-52 55 -116 92q39 58 94 124l95 114q21 3 21 11q0 12 -32 12q-13 0 -26 -3.5t-24 -13.5q-96 -70 -158 -160q-69 -102 -69 -210l3 -46q15 -49 35 -77t61 -54zM208 102l7 -32q0 -26 -38 -26
l-34 3q-48 9 -70 41q-10 16 -16 35.5t-6 40.5l1 26q2 14 9 33q3 10 6 17.5t8 18.5t16 26l3 -3q5 -5 9 -15t11 -17q12 -7 47.5 -55.5t46.5 -92.5z" />
    <glyph glyph-name="seven" unicode="7" 
d="M141 -43q9 0 19 13q3 6 10 10q6 -3 13 15l16 56q9 38 48 141.5t48 137.5l5 28l2 23q0 20 -9 43q-5 14 -11 21q-4 8 -18 22q-33 30 -112 60q-39 15 -71 23t-57 8l-20 -2q0 -21 12 -51l17 -38q23 0 35 -2q15 0 47 -8q55 -10 90 -26q20 -9 27 -18q5 -4 8 -15l-3 -9l-3 -6
l-47 -155l-41 -158l-14 -54l-5 -36q0 -23 14 -23z" />
    <glyph glyph-name="eight" unicode="8" horiz-adv-x="281" 
d="M5 4q12 -47 65 -47h22l15 4q45 9 77 34.5t40 72.5q0 14 -6 40q-4 26 -17 38q-24 12 -24 27l6 20q32 32 62.5 75.5t45.5 90.5l1 13v11q0 56 -29 97.5t-86 56.5q-7 -7 -24 -7l-17 1q-31 -9 -73 -40t-42 -61q0 -10 2 -12q24 0 68 17q21 8 35.5 12.5t28.5 7.5l25 3l13 1
q47 0 47 -38l-4 -26q-18 -40 -49 -92q-35 -58 -63 -80q-18 5 -45 43q-30 42 -30 76l3 17q9 24 9 32q-14 0 -19 -2q-43 -40 -43 -76q0 -63 35 -88q51 -33 55 -43q-2 -4 -5 -9t-14 -17q-37 -43 -59 -88l-9 -25l-4 -26q0 -12 7 -13zM160 39q-6 -18 -29 -31q-9 -5 -21 -9t-23 -4
l-11 1q-15 5 -15 21q0 19 30 58l51 54l17 -22q14 -28 14 -46t-13 -22z" />
    <glyph glyph-name="nine" unicode="9" 
d="M158 -57q28 15 61 90q8 18 76 238l12 50q12 47 12 68l5 17q0 13 -17 13q-11 0 -25 -5q-6 -9 -11 -15t-18 -18l-26 -24l-33 -27q-35 -31 -73.5 -54.5t-51.5 -21.5q-7 10 14 42l23 34q33 39 79.5 84t78.5 65q21 0 33 6t12 19l-3 11q-3 9 -19 15l-25 11l-14 5q-12 0 -32 -13
l-34 -25l-76 -76q-4 -1 -17 -16l-32 -45q-23 -45 -37 -53l-12 -52l-1 -7v-4q0 -45 53 -45q30 0 66 18t79 61l15 16l15 8l-82 -329l-10 -16l-5 -21q0 -9 7 -10z" />
    <glyph glyph-name="colon" unicode=":" horiz-adv-x="156" 
d="M115 213q10 0 20 5l15 7q5 0 20 12l14 17q0 12 -10.5 24.5t-32.5 12.5q-11 6 -22 -5l-14 -15q-21 -18 -21 -31q0 -9 10 -16zM78 0q20 3 35 14q9 0 21 12t12 17q0 9 -10 22t-33 13l-9 4q-6 0 -13 -7l-13 -14q-20 -18 -20 -31q0 -8 5 -13z" />
    <glyph glyph-name="semicolon" unicode=";" horiz-adv-x="156" 
d="M90 213q10 0 20 5l15 7q2 1 3 1q7 4 17 11q12 12 13 17q0 12 -10.5 24.5t-31.5 12.5q-11 6 -22 -5l-14 -15q-21 -18 -21 -31q0 -9 10 -16zM51 51l-6 -35l-4 -20l-12 -44l-7 -28q0 -6 8 -6q6 0 23 12q9 6 10 13q0 13 8 30l9 23l8 11l10 25l14 36q9 18 7 26l-13 10l-15 2
q-12 0 -22 -6.5t-18 -23.5l-1 -10z" />
    <glyph glyph-name="less" unicode="&#x3c;" horiz-adv-x="184" 
d="M141 268l-27 -26q-9 -8 -20 -17.5t-21 -15.5q-3 -7 -31 -33q-15 -12 -18 -24q-7 -11 -7 -26q0 -13 9 -37l13 -32l16 -23l13 -18q2 -2 15 -5q22 0 36 11q7 4 4 11q-3 11 -23.5 42.5t-20.5 49.5q0 12 9 27l12 19l31 36q13 5 21 13l22 20q12 6 17.5 14.5t2.5 15.5
q-6 5 -21 8l-16 -4z" />
    <glyph glyph-name="greater" unicode="&#x3e;" horiz-adv-x="174" 
d="M65 21l23 24l14 9l13 11l20 17q3 5 22 23q18 15 21 30q7 16 7 31q0 27 -17 58.5t-37 50.5q-3 3 -10 3q-14 0 -28 -6.5t-15 -11.5q3 -10 26 -47q20 -34 20 -52q0 -12 -6 -24l-29 -33q-12 -12 -18 -24q-4 -2 -8 -4.5t-14 -10.5l-16 -13l-16 -13q-5 -3 -8 -12l6 -10
q6 -6 17 -6l17 4z" />
    <glyph glyph-name="question" unicode="?" 
d="M45 -4q3 -22 29 -22t53 23q25 19 25 46q0 18 -17 18l-14 -2q-5 0 -23 -9l-28 -15l-9 -14l-9 -9zM107 381l5 1l2 6l-3 10q-3 14 7 17q5 0 23 -12l23 -22q29 -34 29 -74q0 -30 -16 -68l-50 -116l-2 -9q0 -12 17 -12q21 0 38 13q5 5 8.5 23.5t10.5 29.5l38 61q4 9 14 31
q7 16 15.5 39.5t8.5 46.5q0 45 -37 85q-30 32 -84 57l-29 14q-25 8 -41 10q-18 0 -21 -14q-9 -23 -9 -45q0 -23 11.5 -41.5t41.5 -30.5z" />
    <glyph glyph-name="A" unicode="A" horiz-adv-x="358" 
d="M51 -45l14 35l4 30l4 7l5 13l10 38q9 12 15 30l13 35l21 1l22 7l72 31l26 3l18 4q7 0 10 2l1 -32l1 -44l4 -22q0 -13 -4 -21l1 -25l-1 -32v-12q0 -7 -2 -17q0 -9 8 -10q6 0 19 11.5t13 22.5l8 40l5 42l3 33l7 82q14 7 17 22q0 9 -13 19l1 29l1 31v12v8l-2 7q0 7 -6 13
l2 18v16v20q0 12 -2 20q0 8 -6 23q-3 15 -27 29q-24 9 -31 22l4 17l11 34q0 9 -8 14q-13 3 -27 -4l-39 -26q-3 -18 -25 -27q-18 -6 -26 -18q-3 -11 5 -21q3 -5 -1 -10q-15 -9 -39 -82l-31 -105l-16 -33l-10 -24q-21 -3 -31 -13t-16 -38v-28q0 -9 11 -10l9 1l-9 -33
q-9 -26 -9 -41l-5 -14l-2 -19l-8 -23l-4 -24q0 -21 14 -21q8 0 21 7zM285 232l-20 -1q-9 0 -21 -6l-12 1l-18 -1q-14 0 -33 -4l-26 -2q-8 0 -10 2q0 11 14 36l9 22l10 22l4 19l20 34q8 13 11 33l13 17q6 6 11 6q19 0 33 -26l17 -23q-3 -11 -3 -26l1 -23q2 -7 6 -9l-4 -15
q0 -16 4 -24l-1 -27z" />
    <glyph glyph-name="B" unicode="B" horiz-adv-x="385" 
d="M61 -45l4 -8l8 -4q3 3 14 4q11 0 15 -4l4 18l4 18l13 -1q21 0 69 12q55 15 80 30q41 15 52 22q37 22 37 50q0 13 -7 27l-9 15l-17 18q-18 15 -110 49q-68 24 -61 47q7 6 93 53q60 30 82 64q29 18 42 50.5t13 64.5l-16 20q-10 11 -21 14l-30 12q-12 3 -17 4t-18 1l-16 4
l-19 1l-23 -1l-68 -7l-50 -7q-85 -17 -85 -56q0 -10 2 -14l70 8l15 1h10l4 -1q-1 -5 -2 -6l-6 -8l-11 -15q-20 -6 -26.5 -77.5t-10.5 -88.5l-41 -24l-1 -7v-4q0 -10 5 -18q22 -6 27.5 -14t5.5 -29l-1 -35v-42v-37l3 -33l-18 -3q-7 0 -35 -34q9 -29 47 -29zM194 154
q18 -4 31 -9t28 -14q27 -15 27 -24q0 -6 -12 -17l-37 -16l-19 -9l-35 -16l-35 -8q-27 -5 -30 -8q0 27 7 75l6 45q3 17 8 25l5 -1q3 -1 5.5 -2t8.5 -5t19 -8.5t23 -7.5zM274 373q-15 -12 -67 -44q-37 -23 -54 -26l-3 21q0 15 6 33t12 24q-4 8 -7 27q0 16 5.5 31t15.5 26
q72 0 97.5 -11t25.5 -30q0 -13 -13 -30z" />
    <glyph glyph-name="C" unicode="C" horiz-adv-x="369" 
d="M90 -18l45 -14q23 -6 41 -6l18 1q11 0 22 4q15 3 39 16l32 15l15 14l20 19q6 8 6 16q0 11 -8 14l-4 -10l-53 -25q-34 -14 -58 -14q-14 0 -25 4q-12 0 -32 14l-37 31l-16 46q-9 25 -14 43.5t-5 33.5l9 54l5 39q24 68 53 107q23 33 54 54l24 11l33 4q24 0 41.5 -9t17.5 -29
q0 -17 -16 -42q-10 -13 -26 -69l-8 -50l-3 -51l11 -3l16 -1q21 0 34 17q4 7 17 46q10 29 21 77l8 42l2 12v11q0 34 -10 61q0 24 -20 38t-52 14l-14 -1q-38 0 -90 -32t-62 -56q-15 -8 -34 -32l-22 -37q-33 -59 -49 -116q-4 -19 -7 -41.5t-3 -41.5q0 -16 1 -30.5t4.5 -32.5
t17.5 -49q24 -51 61 -66z" />
    <glyph glyph-name="D" unicode="D" horiz-adv-x="350" 
d="M92 438l2 -6q-11 0 -21 -13l-18 -21q-9 -3 -16 -43l-10 -80v-21l-12 -91l-9 -124v-11l-2 -20q2 -5 9 -8q9 0 22 22.5t18 41.5l60 291l8 40q3 19 12 25l15 -8l53 -29l6 -6q28 -28 45 -51.5t33 -59.5q0 -20 -6 -43l-9 -35l-14 -16q-21 -45 -57 -81q-22 -22 -76 -64l-57 -23
q-42 -18 -39 -43q3 -20 30 -20q12 0 29 4.5t30.5 10t21.5 11.5l44 29l49 32q23 15 23 33l-2 4l-8 -1l-14 -5q3 12 18 27l23 23q29 36 51 86.5t22 95.5q0 40 -15.5 73.5t-49.5 59.5l-49 33l-29 20l-47 25l-45 10l-21 2l-24 10l-25 5l-27 -4q-12 0 -12 -7q-2 -7 2 -20
q0 -22 2 -24l41 -23z" />
    <glyph glyph-name="E" unicode="E" horiz-adv-x="319" 
d="M187 0q15 0 44 17.5t44 32.5t15 33q0 5 -7 8l-13 -5q-35 -20 -93 -31q-24 -4 -55.5 -7t-59.5 -3l-1 17l1 31l6 30l7 57q3 20 14 27t27 10q27 0 66 7l65 7q23 0 29 -2q14 3 14 35q0 16 -5 24q-3 9 -15 9l-32 1l-25 2q-26 0 -38 -4q-15 -3 -24 -11l-35 -22q-12 -9 -19 -9
q0 31 13 80l10 36l12 36q6 39 30.5 48t107.5 9q9 -14 33 -14q18 0 18 17l-2 11l7 24q0 15 -8 22q-6 8 -21 12l-27 3l-28 -1l-33 -3q-8 -1 -17.5 -4t-24 -8t-22.5 -16l-54 -45q-29 -29 -34 -49l-4 -24l-9 -37q-18 -99 -18 -117l-7 -47l-10 -76q0 -16 -5 -36l-4 -37
q0 -16 5.5 -25t20.5 -9l1 -8l-1 -12l19 -4l22 -1q60 0 120 21z" />
    <glyph glyph-name="F" unicode="F" horiz-adv-x="307" 
d="M76 422l-6 -18l-3 -17l-8 -73q-6 -68 -19.5 -77.5t-24.5 -23.5q-6 -12 -3 -18q8 -2 14 -1l9 1l6 2l3 -15l-1 -32l-4 -47l-3 -53l1 -19l1 -66q0 -21 9.5 -27.5t17.5 -6.5q9 0 15 15q5 17 5 35l-1 19v21q7 25 7 54v26q0 14 4 29l8 48q6 29 20 33l50 10l40 4l17 2l14 2
l27 -7l25 -5q6 0 9 4q9 9 9 26q0 28 -19 44q-20 6 -42 6q-30 0 -66 -9l-68 -22l1 24q0 12 7 30l12 47l3 21q2 12 5 16q12 22 34.5 40t47.5 18q15 0 33 -9l20 -4q32 0 32 43l-3 24q-3 11 -15 15l-18 5l-19 1q-30 0 -46 -4q-22 0 -40 -8t-43 -28q-36 -30 -54 -75z" />
    <glyph glyph-name="G" unicode="G" horiz-adv-x="375" 
d="M206 21l35 30q15 12 30 19l1 -18v-25q-3 -12 -4 -18l-9 -70v-11l-5 -31l-2 -22l3 -16q6 0 17 6q4 4 7 18q20 6 28 20l9 38l25 95l7 25q3 15 7 19l7 37l4 36l-1 15q-6 21 -36 21q-12 0 -20 -8l-51 -62l-16 -20l-19 -19q-14 -12 -39 -25q-25 -11 -44 -11q-24 0 -36 15
q-15 18 -15 58v11q0 6 -2 14v19v35q0 15 1 23t7 29l13 31l22 65l27 43l30 37l32 23q18 12 34 12q16 2 27.5 -4.5t17.5 -20.5l9 -11q5 -5 11 -19l7 -40q3 -34 20 -34q6 0 14 4.5t13.5 8.5t11.5 13l14 17v20l-7 24q-2 6 -9 11q0 16 -8 28l-31 40l-24 9l-17 7l-28 4
q-48 0 -99.5 -36.5t-69.5 -79.5q-5 -4 -29 -42l-31 -64q-11 -23 -24 -76t-13 -93q0 -61 24 -100q29 -43 90 -43l19 6l23 8q25 9 42 25z" />
    <glyph glyph-name="H" unicode="H" horiz-adv-x="400" 
d="M86 150q0 13 9.5 24t21.5 19q14 0 19 2l22 8q18 10 60 16l61 6q0 -22 -10 -75q-5 -31 -6 -35q-5 -24 -11 -35v-17v-13q-2 -9 -2 -13l-7 -43l-5 -37l-2 -33l15 -3l15 3q6 15 10 18.5t27 88.5l23 121q6 42 24 69l3 27l2 18l10 34l11 48q4 21 4.5 35.5t0.5 22.5q12 62 12 90
q0 31 -14 31q-10 0 -41 -31l-15 -22q-7 -7 -14 -19l2 -16v-18v-20q0 -12 -2 -26q0 -12 -6 -41q-6 -45 -12 -57l-25 -6l-31 -2h-15l-13 2l-20 -4l-27 -2q-34 0 -45 -5q-17 -5 -17 14l4 28q9 42 9 53l10 51l10 59q6 15 6 25q0 24 -26 24q-28 0 -50 -22l-4 -25l-4 -45l-20 -168
q-3 -12 -15 -36l-14 -27q3 -15 12 -33l11 -23l-4 -31l3 -39l7 -57q0 -13 5 -20t17 -8q21 0 39 28l18 32l11 21q0 6 -4 7q-5 -1 -6 -2l-8 -6l-11 -11l-7 18l-2 34v26z" />
    <glyph glyph-name="I" unicode="I" horiz-adv-x="139" 
d="M26 2q3 -25 21 -25l14 3l15 16q9 3 10 14l-5 38l-2 41q0 55 15 145l16 86q-3 7 4 39l17 69l7 33l4 22l4 22q0 20 -15 23q-9 0 -29 -12q-38 0 -61 -75l-15 -62l2 -6l2 -4l-4 -12l-2 -22q0 -12 2 -15l7 -7l4 -22q0 -16 -5 -25l-3 -73l-9 -121q0 -31 6 -70z" />
    <glyph glyph-name="J" unicode="J" horiz-adv-x="271" 
d="M120 55q-9 3 -20 18l-10 27q1 2 2 4.5t6.5 5t8.5 15.5l-1 12l-11 21l-7 18l-9 20q-6 18 -20 21l-18 4q-14 0 -19 -5.5t-5 -22.5q0 -40 21 -116t41 -93l16 -4l32 4l15 7l19 5q8 7 23 50l25 85l13 50l7 26q3 13 10 25q0 37 13 82q30 108 30 137l3 27q0 25 -6.5 39.5
t-16.5 15.5l-16 -10l-10 -7l-11 -10q-14 -3 -31 -19l-26 -28q0 -6 18 -11q14 0 17 -6l2 -16q0 -15 -6 -45l-13 -78v-19q0 -12 -2 -24l-9 -41q-10 -55 -26 -96q0 -20 -10.5 -43t-18.5 -25z" />
    <glyph glyph-name="K" unicode="K" horiz-adv-x="367" 
d="M186 41q28 -46 61 -46q20 0 52 21l31 39q14 3 20.5 12.5t9.5 22.5q0 12 -10 12q-6 0 -20 -11l-23 -18q-16 -11 -34 -14q-20 0 -33 25q-13 16 -32 55l-46 95q0 12 11 22l21 17l39 45l39 43l31 40q25 31 39 58q7 3 17 28l6 23l2 29q-3 9 -10 10l-13 -4q-19 0 -49 -18
q-16 -6 -21 -14q-6 -6 -6 -11q1 -5 2 -6l6 -7l5 -7q-3 -18 -30 -59t-50 -69l-47 -57q-30 -36 -60 -57q0 32 15 93.5t18 82.5l8 27l5 28q0 13 -4 20.5t-17 14.5q-27 -6 -44.5 -31t-17.5 -53l-17 -138l-5 -59q2 -7 -1.5 -15t-3.5 -21l-10 -78l-7 -81l3 -28l12 -2l13 -1
q15 0 22 11l-3 35l1 38l6 37q5 27 19 69q7 -5 33 -53l18 -25l21 -31z" />
    <glyph glyph-name="L" unicode="L" horiz-adv-x="236" 
d="M4 37l-2 -20q0 -33 25 -33l11 -8l20 -4l33 4l28 3l34 12l37 11l25 17l20 12v12l-2 21v11l-2 13q-6 0 -22.5 -10t-34.5 -10q-4 -3 -29 -11l-22 -6l-19 -2l-15 -2q-10 0 -15 4.5t-5 24.5q0 28 12 91l27 128l6 22q2 16 4 18l8 39l5 30l6 24l12 82q0 13 -5 18q-3 6 -15 9
q-48 -9 -70 -86l-18 -70l-11 -38l-5 -33q0 -23 14 -37l-18 -117z" />
    <glyph glyph-name="M" unicode="M" horiz-adv-x="453" 
d="M53 2l8 23l2 32l5 35q3 34 5 36l17 108q6 42 14 43q6 -3 9 -9l16 -36q12 -15 27 -27q14 -8 31 -10q11 0 23.5 6t29.5 24q31 6 77 64l35 47l4 2l3 1l3 -8l-3 -20l-5 -33l-6 -46q-3 -23 -6 -29l-11 -71l-11 -78q0 -15 -2.5 -28.5t-6.5 -29.5q13 -3 24.5 14.5t25.5 20.5
l24 112l24 96l26 94l9 36l5 27l3 22l2 27q0 22 -3.5 34t-13.5 12q-8 0 -21 -14q-12 -2 -24.5 -16.5t-18.5 -32.5l-58 -80q-9 -6 -35 -35q-39 -45 -65 -45q-18 0 -35 17q-24 30 -34 80l-5 55l-2 62v26q0 34 -9 37l-13 -6q-11 -6 -21 -6l-16 -13l-21 -12q-6 -6 -12 -61l-4 -80
l-8 -55l-4 -58v-18l-4 -25l-10 -75q0 -12 3 -15q-4 -10 -10 -48l-2 -81l7 -4l19 6z" />
    <glyph glyph-name="N" unicode="N" horiz-adv-x="418" 
d="M18 -16l-3 -19q0 -10 9 -16q3 6 12 6t12 11l28 93l15 54l11 47l22 76q12 39 17 43q6 -6 19 -38l22 -50l54 -126q38 -83 59 -83q13 0 24 8l25 12l13 23l7 26q10 40 18.5 95.5t16.5 134.5q0 86 9 160l12 73q0 27 -7 28l-14 -9l-14 -12q-16 -31 -27 -72q-9 -39 -9 -90
l-1 -69q0 -35 -4 -54l-17 -109q-9 -52 -14 -59q-13 6 -43 81l-33 81q-1 6 -4 16t-7 20l-24 66l-22 66q0 21 4 33l21 57q0 14 -9 17q-8 0 -28 -17l-15 -11l-6 -4q-2 9 -23 9l-20 -3q-8 2 -14.5 -16.5t-6.5 -41.5l1 -11l-18 -132l-7 -57q-2 -14 -3 -23t-7 -34l-17 -94l-5 -39z
" />
    <glyph glyph-name="O" unicode="O" horiz-adv-x="410" 
d="M244 33q60 56 99 114q63 96 63 195q-6 59 -43.5 110.5t-96.5 63.5q-28 -6 -43.5 -16t-23.5 -21l-21 -12q-13 -8 -18 -16q-3 -9 -10 -9l-3 5l1 12q11 16 14 36q0 12 -14 15l-21 -16q-24 -42 -55 -113l-49 -117q-9 -9 -12 -27l-3 -30q0 -9 5 -9l15 10l9 11l2 -12l-3 -15
l-3 -16q-3 -33 -5 -36v-22q0 -59 21 -97.5t70 -38.5q18 0 45 9l49 17l14 13zM248 94l-29 -23l-17 -12q-21 -12 -41 -12q-21 0 -36 15q-12 15 -22 47q-8 35 -8 63q0 37 10 86l9 50l11 44q26 37 37 45q19 16 70 31q51 0 81 -46q27 -41 27 -102q0 -36 -10 -65t-26 -56.5
t-56 -64.5z" />
    <glyph glyph-name="P" unicode="P" horiz-adv-x="358" 
d="M61 -63q12 0 29 17l22 34q-5 2 -12.5 12t-7.5 35l3 29l5 28q114 23 178 73q69 54 69 131l-3 27l-4 21q-18 79 -102 151q-36 30 -63 43t-44 13l-13 7q-7 0 -24 -17q-16 -9 -26.5 -21t-10.5 -32l18 -28l17 -26l-49 -319l-19 -12q-9 -6 -9 -12q0 -9 26 -23l1 -11l-1 -35v-12
q0 -8 -2 -16v-27q3 -10 5.5 -17.5t16.5 -12.5zM274 246q-9 -36 -63 -69q-42 -24 -90 -36l-6 1l-7 3l7 46q5 42 12 57q6 3 7 7l1 15v11l18 61q9 36 15 45l-1 16q0 8 -2 11l-32 45l-10 11l15 -1q14 -5 28 -16q51 -37 79.5 -90.5t28.5 -116.5z" />
    <glyph glyph-name="Q" unicode="Q" horiz-adv-x="428" 
d="M260 45q3 19 28 47q54 59 60 78l18 43l23 56q22 69 22 111q0 29 -5 49t-17 38q-18 31 -46 48t-61 17q-35 0 -72 -18.5t-73 -56.5q-39 -33 -57.5 -82t-18.5 -104q0 -44 12 -87.5t25 -54.5q3 -10 23 -41l27 -43l-10 -2q-30 0 -56 35q-35 46 -35 129l4 10q0 9 -9 9t-15 -13
q-10 -19 -16 -51l-3 -58q0 -29 6.5 -51.5t22.5 -39.5q30 -32 75 -32q40 0 76 23q3 3 38 -33q13 -14 30 -26q10 -8 21 -14.5t31 -17.5l38 -18l22 -12l22 -5q9 0 22 6t13 14q0 6 -16 19l-30 24l-35 28l-19 14l-20 9l-24 26zM328 221l-31 -59q-33 -69 -70 -88q-10 3 -26 25
l-29 44q-23 49 -33 79q-13 47 -13 79q0 50 28 105q35 50 93 50q34 0 60.5 -22.5t36.5 -68.5q0 -14 2 -19l1 -24l-1 -22l-3 -30q-3 -17 -15 -49z" />
    <glyph glyph-name="R" unicode="R" horiz-adv-x="375" 
d="M63 -27q9 0 21 80q6 40 12 58q24 -13 53 -34l23 -18q72 -49 182 -104q9 -9 19 -9q13 0 13 21q0 18 -9.5 33.5t-26.5 15.5q-13 19 -29 19q-13 15 -49 40l-49 36l-26 21l-22 20q-32 30 -36 49q-5 15 53 36q42 14 51 23l70 42q45 30 48 40l6 26l4 26l-3 23q-2 10 -10 21
q-18 15 -51 36l-49 30q-22 10 -64 20l-32 5l-27 2q-17 0 -21 -2q-36 -9 -48.5 -33.5t-12.5 -63.5l1 -29l1 -28v-45l1 -49v-19q0 -27 -3 -41l-11 -10l-16 -10q-6 -11 -6 -19q0 -10 9 -22l14 -14l1 -13l-3 -47l-7 -74q-2 -16 5.5 -27.5t23.5 -11.5zM274 332l-72 -50
q-42 -26 -81 -34l3 50q3 30 17 63l2 17q0 28 -20 28q-12 0 -27 -15q-9 3 -10 19l2 24q6 12 21 15l24 2l53 -9q32 -5 37 -8q31 -13 48 -25q27 -18 27 -39q0 -15 -24 -38z" />
    <glyph glyph-name="S" unicode="S" horiz-adv-x="262" 
d="M55 -45q13 0 37 9l27 14l19 10q10 4 20 16l30 18q13 10 25 23l8 10q6 9 14 13l19 15l12 7l2 9q0 7 -2 9q-5 9 -14 9q0 29 -15 59l-15 22l-26 32q-10 6 -20 20l-19 35l-15 14l-12 15q-9 12 -13 26l-3 24q0 27 18.5 51.5t49.5 41.5q3 3 6 0q0 -7 -2 -10l-20 -14
q-9 -6 -9 -17q3 -12 12 -12t34 16l20 11l21 15q33 30 40 33.5t7 33.5q0 10 -5.5 21.5t-19.5 11.5q-7 0 -20 -5l-51 -19q-24 -9 -42 -24q-47 -31 -81 -70q-42 -48 -42 -93q0 -36 33 -71q0 -7 53 -61l52 -57q11 -13 15 -23l4 -18q0 -15 -15 -21q-9 -6 -6 -20l-19 -22
q-6 -6 -22 -11q-3 3 3 7l21 15q6 6 0 12t-16 3l-74 -35q-45 -24 -49 -43q2 -15 18 -24z" />
    <glyph glyph-name="T" unicode="T" horiz-adv-x="279" 
d="M145 -23q4 5 11 9q9 3 12 10l3 41l1 72l10 53l10 67l19 85l16 102q0 14 -5 20l-24 27q3 9 27 9l16 -1l32 -6l20 -2l5 3l2 11l-1 11l1 26q0 12 -7 19l-23 4l-24 4h-6l-5 -2l-24 2l-39 -3l-38 -3l-20 2l-47 -6q-20 -3 -27 -19q-3 -3 -9 -20l-5 -27l-4 -17q0 -12 15 -12
l26 6l39 13l10 2l26 5q10 0 13 -9l-4 -44l-4 -54q-4 -9 -13 -98l-6 -64l-2 -33l1 -22l1 -25l-3 -13l-1 -13q0 -13 4 -21v-23q0 -20 2 -27q0 -21 3 -30t16 -9z" />
    <glyph glyph-name="U" unicode="U" horiz-adv-x="367" 
d="M22 145q-1 -8 -1 -13q0 -10 3 -27q3 -31 10 -46l15 -31l12 -20q15 -21 35 -18q39 0 77 36q18 20 52 74l5 2l3 -10l-4 -40l-4 -40q3 -3 3 -14v-5l-1 -5q0 -22 14 -22q5 0 22 9l26 15l10 16l5 11q0 6 -13 12q0 76 20 153l41 172q21 87 21 152l-3 26q-3 13 -11 14l-9 -3
t-14.5 -8t-14.5 -15l-7 -16l-3 -27q-7 -7 -19 -43l-7 -34l-13 -59l-6 -36q-8 -16 -26.5 -88t-45.5 -98q-16 -33 -26.5 -44.5t-32.5 -11.5q-17 6 -32 27l-10 22l-6 23l-3 14l-6 27l-5 57l1 13l2 7v8l-1 20v18l3 23l6 20l1 13l4 25l5 47q0 18 -6 33q-3 14 -12.5 17.5
t-18.5 19.5q-6 15 -12 13q-14 -3 -20.5 -36.5t-6.5 -84.5l-6 -27l-2 -44v-25l2 -29q0 -22 4 -34l-3 -29l3 -17l-1 -17q0 -15 7 -22z" />
    <glyph glyph-name="V" unicode="V" 
d="M157 4l4 5l13 13q16 14 16 26q0 7 -4 15l28 49l29 66l46 121q20 46 20 64q6 3 15 43q6 27 6 38q0 24 -13 25l-16 -6q-27 -9 -41 -42q-6 -20 -6 -64l-16 -49q-10 -27 -25 -58l-47 -105q-17 -43 -28 -43q-6 0 -12.5 29t-13.5 37l1 20q0 12 -7 19q0 18 -2 26v12l-2 21l-5 33
l-1 40v35v35l-4 21l7 40l4 44q0 27 -7 35q-3 9 -13 9l-22 -6l-27 -13l-16 -35l-6 -23l-2 -25q0 -16 6 -40l-1 -18v-18l1 -30q0 -9 8 -10l3 -65q3 -24 9 -33v-25l5 -29q2 -14 8 -22q0 -20 5.5 -37.5t12.5 -23.5l6 -36l17 -42q-15 -15 -15 -30q0 -13 8 -18.5t22 -5.5l19 3
q18 6 33 28z" />
    <glyph glyph-name="W" unicode="W" horiz-adv-x="453" 
d="M137 18q12 9 24 36t15 46q15 43 24.5 61t16.5 19q8 0 8 -37l6 -66q0 -20 9 -38q3 -18 10 -22l16 -4l18 3l23 5q25 20 58 105q22 57 32 104q8 12 18 49l21 82q15 75 15 127l1 6v5q0 12 -5 15q-17 -9 -29 -29q-10 -20 -10 -44l-22 -89l-21 -81l-22 -46l-9 -24l-10 -34
l-9 -25q-3 -12 -10 -23l-6 -15l-4 -4l-3 -2q-7 0 -7 31v27v18q0 15 2 21l-4 46q0 39 18 128l13 65l2 15v5q0 21 -20 21q-15 0 -31 -10t-23 -24l-13 -53l-8 -46l-12 -39q-19 -77 -23 -84l-17 -36l-30 -72q-8 -18 -15 -18q-9 0 -15 56q0 53 -8 66l-3 12l-1 20l-1 39v19
q0 32 -4 39l4 34l4 32q-3 8 -3 20l2 38l3 30q0 21 -10 31l-6 12q-8 14 -29 20q-15 3 -28 -22q-11 -25 -11 -66l-11 -51l-3 -69l1 -34l3 -28q12 -3 16 -20l5 -27q0 -26 10.5 -90t21.5 -72l-4 -17q0 -12 5 -25l16 -48q7 -10 23 -10q12 0 24 9t12 27z" />
    <glyph glyph-name="X" unicode="X" horiz-adv-x="375" 
d="M32 10q-6 -3 -10 -17l-4 -26q0 -21 8 -22q2 -1 10.5 10t24.5 36q15 29 27 36l21 39l14 24l12 25l13 18q9 15 16 19l4 -2q4 -3 5 -5l17 -32l15 -28l8 -11l16 -17q5 -13 19 -27q20 -21 39 -24q14 0 20.5 1.5t7.5 13.5l-5 12l-13 16l-28 48l-28 55q-9 9 -18 30t-9 35l3 13
l78 99q90 111 90 191q-11 27 -23 27q-5 0 -20 -12l-40 -29q-27 -21 -36 -33q-8 -5 -11 -21q0 -18 21 -13q6 6 11 6l-3 -7l-9 -18l-33 -55q-2 -7 -23 -34l-16 -23l-13 -23q-2 3 -3 5q-5 9 -7 16l-6 26q-3 2 -17 55l-10 68q5 8 7 25q0 16 -4.5 27.5t-16.5 21.5q-3 14 -15 14
q-7 0 -14.5 -4t-19.5 -16l-19 -40q-6 -17 -6 -32t2 -20l10 -19q0 -15 5 -28l10 -29q0 -24 18 -71l33 -67q3 -12 -9 -31l-30 -45q-15 -32 -46 -81q-20 -34 -20 -50z" />
    <glyph glyph-name="Y" unicode="Y" horiz-adv-x="332" 
d="M53 -14q0 -9 10 -12l21 -7q20 3 31 12q28 6 28 25l-3 7q-3 3 -3 9l4 34l11 51q16 22 27 53l18 49l26 39l27 45l20 35l4 6l5 11l6 20q14 23 24 57l17 98q-5 11 -16 14q-12 0 -34 -35l-40 -69l-25 -53l-18 -45l-37 -79q-15 -28 -23 -32q-6 7 -17 43l-13 64l-9 52l-3 37v12
l5 34q0 23 -9 37q-11 12 -29 12q-14 0 -27.5 -7.5t-22.5 -22.5v-22l2 -24q3 -16 8 -18l-1 -17q0 -37 13 -89l19 -68l18 -37q18 -43 37 -53q0 -12 -4 -24l-10 -26q-6 -12 -9.5 -23t-6.5 -22q-9 -12 -15 -33t-6 -38z" />
    <glyph glyph-name="Z" unicode="Z" horiz-adv-x="335" 
d="M74 -25l89 16q56 11 81 36l24 6q8 3 19 12q34 9 49 23q9 9 9 25q0 9 -3 13.5t-10 2.5l-49 -19q-17 -9 -52 -18l-69 -15l-17 4q-10 -2 -12 -4h-12q-7 0 -17 2q0 17 20 40t23 32l22 23q4 5 10 14.5t13 22.5l19 18q11 11 12 16l38 44q18 21 30 45q29 20 48 53l15 33
q4 14 4.5 22t0.5 12q0 15 -1.5 21.5t-7.5 21t-28 31.5l-49 16q-57 19 -84 19l-25 -2l-8 2l-25 4q-15 0 -31 -8t-20 -33q-6 -3 -10 -14l-4 -21q0 -12 8 -12l17 1l25 -1l28 -1q19 0 28 3l50 -9q50 -8 57 -26q3 -16 -40 -84l-34 -51l-33 -42l-31 -42l-25 -29l-40 -49l-19 -20
l-17 -21l-24 -39q-3 -3 -6 -14l-2 -20q0 -18 10.5 -29.5t37.5 -11.5z" />
    <glyph glyph-name="bracketleft" unicode="[" horiz-adv-x="254" 
d="M170 -51l1 7l6 16q6 12 1 18l-10 1h-13l-18 -5l-30 -7l-24 3q-11 0 -15 2.5t-7 17.5q0 16 5 32l10 36q-5 5 8 86l14 82q11 47 24 140l4 33l7 30q0 17 8.5 27.5t27.5 18.5q21 7 63 7q11 5 16.5 14t5.5 20q0 9 -4 13l-27 5l-19 -1q-7 0 -24 -7l-32 -9q-18 0 -36 -11
q-18 -9 -28 -32q-20 -56 -32.5 -164.5t-22.5 -145.5v-31q-3 -16 -4 -25l-7 -59l-10 -106q4 -10 22.5 -16.5t46.5 -6.5q62 0 93 17z" />
    <glyph glyph-name="bracketright" unicode="]" horiz-adv-x="254" 
d="M121 -51q52 6 71 67l33 224q11 84 21 135l6 28q3 14 3 34l7 86q-6 9 -18 15l-22 7l-26 2q-26 0 -88 -12q-6 0 -14 -14l-10 -27q6 -6 11 -7l18 1l47 12l27 -4q17 -2 18 -8q0 -39 -7 -78q-6 -42 -18 -90q0 -42 -12 -102q-29 -142 -29 -173l-8 -20l-6 -21q-7 -9 -28 -16
t-36 -7l-24 3q-24 -8 -24 -29q0 -10 5 -18l26 -4q27 0 42 5q10 1 18.5 3.5t16.5 7.5z" />
    <glyph glyph-name="underscore" unicode="_" horiz-adv-x="383" 
d="M4 -57v-37h377v37h-377z" />
    <glyph glyph-name="grave" unicode="`" horiz-adv-x="184" 
d="M102 385q-35 21 -61 60q-15 6 -35 -11l-2 -12q0 -6 2 -8l6 -10l6 -11l10 -5l31 -18l23 -11l32 -15l46 -16l9 5q9 6 9 11l-45 20q-14 6 -31 21z" />
    <glyph glyph-name="a" unicode="a" horiz-adv-x="318" 
d="M2 76q8 -4 11 -13l-5 -16v-23q2 -6 12 -12q3 -11 20 -11q15 0 26 11q10 0 18 7l25 26l17 12l28 26q16 16 32 26q0 -27 11 -45q15 -29 41 -29l14 2q12 -3 31 9l18 11q3 7 8 9q8 6 9 10l-2 11l2 11q0 16 -2 20l-2 3l-19 -16q-6 -5 -20 -8q-26 0 -26 33q0 13 5 24l-6 25
q-3 13 -19 10q-8 0 -31 -14.5t-28 -26.5q-30 -17 -41 -37l-19 -13q-15 -12 -24 -12l9 20q4 7 22 27l19 19l16 15l12 17q11 3 33.5 24.5t32.5 39.5q18 8 25 17.5t11 19.5q-9 17 -27 17q-13 0 -23 -5l-50 -33l-60 -47q-38 -29 -51 -55l-33 -27l-14 -18z" />
    <glyph glyph-name="b" unicode="b" horiz-adv-x="287" 
d="M180 33l12 24l15 25l12 29l15 31l4 21q0 9 -6 12l-14 4l-19 -1q-7 0 -10 2l-26 -23q-15 -17 -23 -30l-13 -24l-4 -31l10 -7q9 -3 10 -10q0 -7 -8 -16q-30 -15 -39 -12q-11 17 -15 34l-4 37q0 28 6.5 48.5t19.5 35.5l38 67l37 76q26 61 58 152l1 19q0 24 -5 34
q-3 12 -19 9q-9 3 -34 -9l-27 -14q-2 -7 -13 -18l-10 -16q-13 -20 -32 -62l-27 -70l-22 -83l-7 -44l-9 -35l-7 -47q-1 -5 -2 -6l-6 -7l-15 -15l-3 -36l1 -13l9 7l7 7l3 2q0 -32 4 -49q11 -73 53 -73l10 1q17 3 50 31zM201 49l-7 -12l-3 -8l4 -8q9 0 16 4l21 14l33 24
q20 12 20 33l-7 19q-2 6 -7 6q-3 -8 -13 -19l-19 -20zM119 281q-3 -10 -12 -25l-11 -18q8 49 28 97l20 45l24 46q3 3 6 -1q4 -4 -8 -18q-9 -16 -24 -64q-11 -45 -23 -62z" />
    <glyph glyph-name="c" unicode="c" horiz-adv-x="273" 
d="M16 125q-12 -6 -13 -19l1 -22l-1 -13l9 1l11 4l5 -30l9 -25l22 -17q20 -15 48 -15t61 16q22 11 55 34l11 6l15 12q16 13 22 27l-2 13q0 10 2 14l-11 11l-4 -5q0 -12 -52 -45l-38 -21l-26 -4q-18 0 -30 6t-12 19l-2 18q0 28 39 58l49 36q28 14 40 26q16 16 16 35
q0 8 -6 25q-18 3 -43 -10l-15 -10q-7 -3 -12 -10q-22 -10 -65 -44t-46 -44q-13 -3 -30 -20z" />
    <glyph glyph-name="d" unicode="d" horiz-adv-x="368" 
d="M74 2q26 12 63 58l33 40l14 25q12 18 21 16l3 -14q0 -12 7 -22q3 -25 25 -44q21 -15 49 -15q43 0 74 34q6 20 6 33q0 8 -2 10h-6q-13 -8 -26 -12l-22 -4q-16 0 -28 12q-23 32 -23 76q0 22 2 34t9 31q10 15 16 39l8 15l6 16q11 15 15 27l4 30l13 26q8 18 11 38
q10 23 10 42l1 13q0 27 -16 27q-10 0 -23.5 -13.5t-24.5 -37.5l-18 -31l-25 -53l-17 -55q-9 -33 -18 -42q-9 0 -16 -4l-21 -14l-42 -40l-21 -24q-16 -5 -45 -41l-21 -26l-21 -15l-20 -16l-4 -12l4 -15q-5 -5 -8 -20q2 -4 9 -2q13 10 20 10l-12 -36l-5 -27q0 -17 8 -21l24 -6
q20 0 30 10zM166 158l-40 -50q-27 -33 -38 -34q-6 9 26.5 60t49.5 63q7 15 17 24l24 19v-12l-2 -15l-24 -36z" />
    <glyph glyph-name="e" unicode="e" horiz-adv-x="231" 
d="M24 29q7 -6 12.5 -9t14.5 -8l32 -6q26 0 71 24l70 38q5 8 5 37l2 9l-15 -3l-20 -13l-21 -14q-29 -16 -66 -16q-18 0 -29.5 6t-11.5 23l3 16l13 9l13 13q25 12 50.5 42t25.5 42q10 3 10 25t-10 29q-6 9 -15 12l-20 3q-10 0 -18.5 -3.5t-13.5 -9.5l-25 -18l-23 -23l-16 -18
l-17 -29l-17 -38q-9 -21 -9 -30q0 -43 12 -67zM116 217q10 -5 -1.5 -21t-17.5 -18q-5 -14 -22 -14l-4 1l-2 2l8 17l20 22q9 8 19 11z" />
    <glyph glyph-name="f" unicode="f" horiz-adv-x="219" 
d="M121 -217q18 17 40 64q15 35 27 79l9 37l10 41l2 12l3 13q0 8 -5 12l1 12l1 18q0 12 -4 15q-14 0 -17 -16l-7 -12l-9 -40l-12 -35l-8 -36q-14 -40 -25 -58l-8 -8l-7 27l-2 26l1 23q0 10 2 14l-1 24q0 77 7.5 144t25.5 84q14 19 32 65l22 73l11 55l5 33l2 28q0 30 -10 50
v13q-3 15 -21 15q-30 0 -51 -55q-12 -26 -30 -86t-25 -74l-6 -59l-1 -31v-21l1 -18q-7 -16 -16.5 -31t-24.5 -33l-31 -38l1 -20l-3 -21l24 10l27 22l2 -14l-1 -21l-1 -20l1 -61l1 -59q0 -53 13 -89q9 -54 42 -54zM170 387q0 -23 -12.5 -57t-22.5 -41q-3 -14 -7 -17l-2 11
l-1 13v13q5 7 5 24l-1 11q5 7 17 53q9 43 26 54l4 -1l1 -8l-3 -27z" />
    <glyph glyph-name="g" unicode="g" horiz-adv-x="277" 
d="M197 -156q0 5 9 23.5t9 33.5l-3 21l-7 28q-6 22 -20 40q-3 3 15 21l22 16l34 25q20 14 27 24v27l-1 15l-1 4l-2 3l-5 -3l-8 -8l-16 -14l-47 -33l-45 -36l-21 30l-14 33l-1 18l3 24l6 18l20 14l32 31q40 25 67 63l12 9l5 26q0 29 -24 29q-15 0 -38 -17q-8 -2 -17 -9.5
t-12 -14.5q-19 -10 -48 -38q-29 -26 -34 -42l-12 -18q-11 -15 -22 -23q-3 -9 -27.5 -26.5t-30.5 -26.5l4 -25l-2 -18l49 32q0 -42 24 -81q23 -34 26 -44l-45 -42q-28 -27 -40 -43q-10 -18 -18.5 -41.5t-8.5 -44.5q0 -27 17 -31q5 -17 32 -17q14 0 21 1t22 7q24 6 36 15
q13 3 33 19q22 14 45 46zM138 -145q-20 -21 -38 -33t-49 -21q-20 0 -20 17q0 5 6 14q0 7 21 37l30 37q6 0 21 18.5t22 18.5l13 -19q5 -14 7 -31q0 -21 -13 -38z" />
    <glyph glyph-name="h" unicode="h" horiz-adv-x="297" 
d="M148 82q5 0 17 -12l15 -19q12 -12 34 -12q27 0 52 16t25 39l3 20l-1 6l-3 3l-5 -3l-8 -7q-20 -9 -30 -9q-12 0 -26 13l-13 39q-8 30 -17 33q-16 0 -27 -5q-14 -3 -18 -14l-16 -27l-25 -55l-10 -18l-10 -15l-13 -10l-3 12v25l4 19l9 49q27 21 55 61l82 115l34 67
q5 10 9 20t8 21l11 18l4 21l7 21l3 16q0 10 -2 13q-6 12 -25 12q-3 6 -11 7q-15 0 -44 -25q-22 -19 -47 -50q-24 -24 -47 -62q-19 -31 -35 -73q-27 -36 -42 -95l-22 -100l-20 -22l-2 -49l4 2q5 2 6 4l4 4v-27q0 -32 6 -52t33 -20l15 2l24 24l27 34l7 15zM156 297l-51 -61
q-3 10 8 34l26 64q6 3 12 12t7 21l60 81l24 17q0 -15 -7 -32l-32 -60l-15 -30q-9 -14 -14 -17l-7 -15z" />
    <glyph glyph-name="i" unicode="i" horiz-adv-x="234" 
d="M98 330q0 -6 8 -9l25 -1q14 6 26.5 17.5t18.5 31.5l8 20l4 22q0 14 -12 17q-8 3 -25 -5t-20 -19q-14 -3 -27 -19.5t-13 -33.5q0 -13 7 -21zM4 66l9 7l12 9q6 9 9.5 12.5t14.5 13t21 7.5q5 -5 8.5 -17t11.5 -18q0 -11 11 -25.5t34 -27.5l15 -2q22 0 46 17q18 12 35 32
l2 49q-7 -2 -15 -10q-7 -4 -13 -15l-12 -5l-17 -5q-9 0 -15 6t-12 29l-6 40q0 15 -4 26q-7 10 -17 16t-28 6l-8 -7l-8 -11q-9 -3 -22 -19.5t-15 -23.5q-10 -3 -18 -14l-17 -19l-4 -40v-6z" />
    <glyph glyph-name="j" unicode="j" horiz-adv-x="236" 
d="M225 412l7 27l2 22q-3 9 -16 9q-8 0 -19.5 -6.5t-18.5 -16.5q-19 -11 -30 -25q-12 -12 -12 -30q0 -13 8 -25q9 -6 32 -6q18 10 30 20t17 31zM0 64q9 5 29 25l34 38q24 29 36 29q8 0 9 -16l3 -31l-10 -83q-3 -35 -11 -46q-15 -17 -49 -78l-24 -52l-7 -34q-12 -12 -12 -37
q0 -35 27 -35q12 0 22 8t23 39q15 22 34 93t44 100q31 24 51 50q15 17 43 54l-6 23q5 14 0 18q-4 -3 -6 -5q-7 -6 -10 -10l-10 -18l-28 -27l-18 -14l-4 1l-2 3l15 86q9 54 9 91v17l-2 17l-12 7l-10 3q-11 0 -29 -19l-25 -31l-40 -47l-44 -48q-9 -7 -17 -19l-4 -23z" />
    <glyph glyph-name="k" unicode="k" 
d="M74 -31q12 0 25 16l20 25l22 28l17 25q5 9 11 9t31 -21t38 -24q21 0 44 20q27 23 27 53l-2 15q-3 4 -8 4q-21 -24 -37 -24q-15 0 -30 24l-11 9l-6 17q0 11 10 25l29 49q22 39 22 57q0 12 -6 19.5t-14 9.5q-7 0 -17 -16l-10 -29l-30 -52l-17 -32q-33 -3 -37 -29l-4 -36
l-34 -62l-7 -3l-3 10q0 16 10 42q0 5 3 19t11 41l9 39l5 26l64 173l11 29l5 32q0 22 -8 33q-6 14 -23 18q-9 3 -22 -23l-9 -23l-8 -31q-3 -16 -15 -40q-3 -7 -8 -19t-9 -25l-10 -35q-3 -11 -4.5 -15t-9.5 -19l-50 -114l-26 -36q-11 -17 -11 -40l-4 -20q13 0 29.5 27t29.5 28
q0 -18 -5 -34q-3 -16 -1 -26l-7 -23l-3 -28q0 -22 6 -32.5t27 -10.5z" />
    <glyph glyph-name="l" unicode="l" horiz-adv-x="251" 
d="M257 68v53l-22 -12q-10 -3 -21 -13q-27 -16 -48 -16q-27 0 -44.5 22.5t-17.5 57.5q57 78 95 157t52 171v18q0 22 -5 32q-3 11 -24 11q-15 3 -43 -27q-19 -22 -34 -49q-39 -81 -64 -156q-21 -70 -33 -153l-25 -28l-20 -19l-1 -21l1 -14l-2 -10l19 9l30 24q6 -38 30 -64
q20 -20 46 -20l15 -3q18 0 46 12.5t44 24.5l13 5q9 3 13 8zM140 279l-5 -13l-11 -17q-9 -12 -16 -13l3 19l15 44q9 9 19 37l22 62l13 14q9 9 16 10l-4 -16l-4 -23q-6 -6 -12 -30t-9 -27z" />
    <glyph glyph-name="m" unicode="m" horiz-adv-x="513" 
d="M72 2q7 3 9 8q13 17 22 23l20 26l19 21l36 37q40 34 49 34q6 0 6 -10q0 -13 -7 -37l-7 -32q-3 -16 -10 -31l-10 -37q6 -15 17 -15t24 13l45 49l23 25l21 19q9 9 18 12q15 0 38 -24q23 -27 33 -34q19 -11 35 -11q18 0 35 13l22 23l-1 14v15l1 20l-8 -5l-10 -8
q-10 -10 -22 -13q-8 0 -15 8l-13 19l-11 17q-11 41 -38 41q-22 0 -54 -26l-46 -43l1 19q0 11 4 23q12 56 12 70q0 32 -21 32q-22 0 -61 -42l-32 -33q-16 -19 -34 -30q-8 -8 -16 -11l1 22l9 44l1 11l-2 12q-3 12 -18 12q-9 0 -30 -12l-21 -18l-24 -26l-66 -73l2 -45
q8 3 34.5 35.5t37.5 29.5q7 -3 -2 -30l-13 -45l-14 -44q0 -6 6 -12l13 -4q8 0 12 4z" />
    <glyph glyph-name="n" unicode="n" horiz-adv-x="373" 
d="M99 -16l72 84l36 30q12 11 20 14q6 0 18 -18q9 -6 22 -28l19 -31q6 -4 21 -7q18 0 38 17l31 31l-3 18l-1 27l-16 -14q-5 -7 -15 -10l-10 3q-12 6 -25 34l-20 50q-12 6 -25 6q-28 0 -71 -43l-35 -40l-13 -17l-8 -8q-3 7 4 30l15 46l9 23l3 13l2 16q0 12 -4 20
q-8 21 -24 21l-19 -6l-19 -9l-36 -38q-36 -36 -56 -69q-9 -6 -9 -24l1 -23l-2 -10l4 -5q5 2 12 13l17 19l24 28q6 9 17 9q8 0 8 -9q0 -6 -6 -18l-9 -34q-6 -18 -4 -26l-8 -18q-6 -15 -6 -25l2 -10q-3 -15 0 -19q6 -3 22 -3q23 0 27 10z" />
    <glyph glyph-name="o" unicode="o" horiz-adv-x="321" 
d="M72 10q3 -5 16 -11l25 -3q36 0 66 21l42 40l12 15l11 12l2 5l4 8l20 32q9 18 9 45q0 25 -7 45q-17 24 -45 24q-20 0 -43 -13q-3 3 1 12l6 12q-1 2 -2.5 3.5l-2.5 2.5l-21 2h-6l-5 -2l-64 -65q-7 -4 -42 -37l-46 -45v-13l2 -15v-17l7 6l21 18q12 12 21 12l-4 -26l-3 -32
q0 -16 5.5 -24.5t20.5 -11.5zM211 102l-12 -15l-9 -9l-18 -14q-22 -19 -40 -19q-19 0 -19 31q0 24 24 57q9 0 19 11l18 22q7 5 23 8q9 0 16 -10t10 -28q0 -19 -12 -34zM242 21l13 6l30 20l26 18q17 12 17 29q-6 20 -12 23l-10 -7l-13 -12q-6 -14 -19 -24l-16 -15l-14 -16
l-7 -16q2 -4 3 -5t2 -1z" />
    <glyph glyph-name="p" unicode="p" horiz-adv-x="307" 
d="M51 -201l8 13q6 12 6 28q6 12 14 38q4 14 9 32l16 42q4 10 6 16.5t7 25.5l13 27l18 44q9 27 20 27l5 -2l8 -6l16 -16q25 -25 46 -25q15 0 36 12l26 17l2 33l-1 7l-1 5l-10 -3q-18 -15 -27 -15l-15 3q-6 3 -15 15q-6 22 -23 39q-20 23 -37 23q-18 0 -30 -25
q-17 -26 -40 -87l-30 -90l-10 -31q-9 -35 -15 -40q6 40 19 86l36 136l16 55q9 33 23 47l4 23l10 25l4 14l4 19q0 30 -13 33l-5 -2l-6 -6l-12 -14q-27 -61 -55 -110q-34 -58 -74 -97q0 -18 -4 -23l2 -10q0 -12 2 -14q6 0 15 12q6 11 18 16q0 -39 -21 -177q-5 -40 -6 -49
q-4 -36 -4 -59l-1 -10q0 -27 21 -27q18 0 25 25z" />
    <glyph glyph-name="q" unicode="q" horiz-adv-x="262" 
d="M-2 61q13 10 22 13l-9 -26l-3 -21q0 -7 2 -9q11 -24 38 -24q14 0 29 8.5t28 24.5l12 6l26 23l27 24q6 6 10 -2l1 -16v-23l-4 -17l-5 -38l-12 -78l-6 -58l-17 -80l-1 -10q0 -15 13 -15q14 0 25 11l9 25l6 26l9 35l11 41l30 122q15 72 15 124q0 15 -8.5 26.5t-21.5 11.5
q-9 0 -17 -7l-48 -37q-31 -25 -38 -35l-18 -9l-19 -9q-3 9 10 26q0 6 18 27l46 47l22 15l15 11l14 13l14 8l10 6q9 6 9 13l-13 15q-5 7 -16 7q-6 0 -32 -12l-28 -14l-30 -19q-8 -6 -14 -14q-16 -8 -35 -23l-33 -28l-29 -21q-11 -7 -14 -18l3 -24z" />
    <glyph glyph-name="r" unicode="r" horiz-adv-x="259" 
d="M0 74v-6q8 5 25 30l23 23q9 9 9 14q37 40 48 40q5 0 14 -13l6 -13l2 -18q0 -15 -6 -42l-10 -44l-10 -19l-4 -20q0 -24 32 -24q10 0 27 11l31 17l37 30l24 17l1 7l4 10l7 20q0 7 -2 10q0 12 -4 13l-6 -6l-36 -32q-27 -21 -32 -22l-9 -3l-2 5q0 8 2 12l9 25l7 26l4 23
q3 29 -18 68q-24 39 -56 43q-12 3 -27 -6l-9 -7l-13 -13q-12 -3 -12 -13l4 -18l-13 -15l-8 -12l-18 -28l-23 -33l-1 -7v-4l1 -15q0 -7 2 -11z" />
    <glyph glyph-name="s" unicode="s" horiz-adv-x="236" 
d="M0 68q5 2 23 20q45 48 61 58l16 12q5 5 8.5 7t6.5 4q2 -1 5 -3t5 -6l1 -13l-1 -25l-6 -50l-3 -6l-8 6q-3 6 -8 6q-7 0 -19 -8t-12 -21l3 -12v-19q0 -13 2.5 -22t11.5 -25q0 -15 11 -15l14 5l18 8q6 9 23 19l58 45q36 29 36 58l-2 14q0 15 -5 16l-11 -11l-13 -20l-31 -27
q-10 -8 -18 -10q-3 8 7 36l11 28l14 76l-1 10q4 6 7 22q0 14 -11.5 30t-27.5 16q-9 0 -21 -9l-33 -38q-21 -25 -37 -33q-12 -18 -38 -44l-20 -18l-8 -6q-8 -3 -11 -17z" />
    <glyph glyph-name="t" unicode="t" horiz-adv-x="244" 
d="M78 20l-1 -13q0 -24 13 -25l12 -6l11 -9q9 0 37 25l30 29q31 15 45.5 41.5t14.5 58.5q-3 6 -9 0l-24 -19l-23 -23q-14 -13 -34 -22l-4 2l-1 10q0 24 2 31l9 46q0 16 3 32t11 37l27 76l18 5q13 3 16 9v20l3 29l-8 7q-3 6 -3 10l6 21l4 23q0 11 -5 17t-17 6q-13 -3 -36 -53
q-9 -21 -25 -22l-11 2l-13 -2l-39 2l-17 -2l-23 2q-37 0 -37 -37l1 -14q2 -8 11 -12l21 -5l17 1l18 -1h14l16 1q16 0 20 -2l1 -7l-33 -58q-12 -22 -22 -30q-9 -20 -35 -50l-37 -38l-1 -15l1 -21q0 -10 2 -14l58 57l36 44q0 -19 -5 -39l-9 -49l-5 -24z" />
    <glyph glyph-name="u" unicode="u" horiz-adv-x="347" 
d="M74 4q14 -6 27 -6q32 0 66 35q18 18 46 61l11 -10q15 -45 53 -45q21 0 33 8l30 17q13 3 13 34q0 15 -2 18l-1 4l-2 3l-18 -13q-15 -12 -24 -12q-8 0 -14 7l-9 32l1 15q0 13 -5 23.5t-23 13.5q-14 0 -34 -24l-31 -46l-41 -49l-14 -9l-7 -3l-4 -1q-6 9 -6 32q0 39 12 75
q0 9 10 38l7 23l4 17q0 6 -4 11l-9 4q-7 0 -17 -5l-19 -12l-42 -62q-27 -36 -51 -57q-6 -3 -10 -16l-3 -21q0 -17 5 -20l6 3q7 3 15 13l20 22l9 -18q0 -34 5.5 -53t16.5 -27z" />
    <glyph glyph-name="v" unicode="v" horiz-adv-x="281" 
d="M63 47l-3 -17q0 -21 12 -39t28 -18q23 0 30 10l11 21q10 6 24 28l35 60l12 23q3 4 8 14.5t5 20.5l13 26l5 29l10 20l8 39q0 8 -12 11q-14 0 -25 -21l-45 -125l-33 -53q-15 -24 -22 -25q-6 0 -9 17l-3 34v12l1 17l-3 45l2 23v18v12l-2 14q0 6 -6 9q-10 0 -22 -11
q-12 -9 -15 -16q-9 -24 -33 -63l-35 -53l1 -27q0 -10 5 -14l22 25q20 24 27 24l1 -43q0 -24 8 -27zM233 43l35 23q18 15 18 28l-6 13q-2 10 -4 12l-2 4l-4 -3l-10 -10l-11 -10l-28 -32q-24 -24 -27 -33l-1 -10l6 -4l9 2z" />
    <glyph glyph-name="w" unicode="w" horiz-adv-x="397" 
d="M58 94l5 -39l6 -35l8 -34q0 -31 22 -31q12 0 21 9.5t14 31.5l12 17q4 6 7 22q9 9 22 40q6 15 10 19l4 -2l1 -8l-3 -16l-1 -18q0 -30 10 -60q13 -13 25 -13q10 0 16 5q10 3 18 14q36 41 68.5 101.5t46.5 117.5l7 23l4 25q0 22 -15 34q-8 -3 -17 -15l-10 -52l-14 -38
l-11 -36l-35 -61q-21 -36 -30 -34q-5 5 -5 29l1 39l4 45l4 17l2 22q5 0 8 18q0 10 -5 18.5t-19 6.5q-13 -3 -24 -20l-23 -43q0 -6 -7 -17l-14 -22q-9 -29 -18 -37l-12 -25q-6 -12 -11 -12q-2 3 -4 7t-4 16v32l-1 27q0 18 -2 26l1 11q0 12 2 17l2 15q0 17 -18 17
q-11 0 -22 -11l-19 -24l-7 -19l-10 -18l-33 -45q-9 -9 -12 -20l-1 -15l-1 -10v-10q0 -5 4 -8l12 13l17 15q15 18 22 19l3 -6zM356 51l29 18q15 12 12 25l-3 19q0 7 -6 10l-9 -10q-6 -9 -23 -19l-41 -45q-15 -15 -9 -26q5 -6 23 5.5t27 22.5z" />
    <glyph glyph-name="x" unicode="x" horiz-adv-x="305" 
d="M194 191l-26 -34q-15 -18 -27 -24l-4 3q-4 3 -9 14.5t-2 23.5q4 7 14 15l27 24q8 3 19 12l12 11q13 0 13 -11q0 -8 -4 -16zM59 4q30 15 51 45l6 -5l12 -10l20 -18q17 -15 36 -15q18 0 41 13l30 19q9 2 18 9l34 32v31v16h-5l-12 -12q-11 -20 -37 -35q-12 0 -18 -6l-32 -7
q-20 0 -40 27q-3 6 33 40q20 19 24 26l21 23l22 30q14 17 14 39q0 20 -11 35.5t-26 15.5q-6 0 -17 -7l-17 -14l-43 -38l-40 -31h-13l-9 30q-3 12 -7 17l-10 6q-10 0 -20.5 -9.5t-15.5 -27.5l-2 -13q0 -9 4 -20l9 -28l-3 -10q-7 -7 -34 -23q-18 -9 -21 -18l-3 -35q0 -8 4 -11
l6 4l10 11l26 23l29 26l5 -7l9 -16l11 -28q-4 -6 -37 -38l-35 -34q-3 -6 3 -9l13 -3l10 5z" />
    <glyph glyph-name="y" unicode="y" horiz-adv-x="354" 
d="M177 86q0 6 15 18l24 15q3 -4 3 -8l-3 -22l-4 -36q-5 -6 -20 -41l-13 -35q-6 -3 -12 -9t-15 -17l-32 -41q-9 -6 -24 -27l-19 -29l-12 -16q-5 -10 -11 -12l-17 -25q-12 -18 -9 -30q3 -6 19 -7q17 0 30 8q17 6 27 20l20 24q5 2 12 14l13 14q14 29 37 61l26 34q18 37 67 80
l71 61v17v24q-6 1 -9 0q-8 -4 -18 -14l-25 -21l-16 -17q-3 -6 -10 -10l-2 -2l4 28l30 85l9 28l5 22q0 6 -5 10q-35 0 -65 -29l-58 -56q-8 -4 -29 -28q-30 -20 -37 -29q-12 -3 -12 12l28 91q2 15 -6.5 20.5t-21.5 5.5q-10 -2 -27 -20l-33 -35l-36 -35l-17 -18l1 -20l-3 -21
l2 -5q9 4 24 20l21 17l2 -8l3 -11q0 -16 3 -22l-2 -22q0 -12 9 -18l19 -4q25 0 52 36q12 0 26 13z" />
    <glyph glyph-name="z" unicode="z" horiz-adv-x="271" 
d="M4 111l-3 -20l-1 -19l2 -4l14 6q6 6 13 20l10 7l18 20l41 41q6 6 12 6q7 0 18 -15t15 -30q0 -9 -12 -29.5t-12 -27.5q-17 -14 -17 -49q0 -30 11 -52l-26 -32q-17 -24 -22 -27l-31 -46l-14 -22l-10 -23l-3 -23l1 -28q7 -7 13 -10q14 -7 30 -7l25 3q58 31 87 65
q18 19 28 45t10 49q0 16 -6 40l-5 7l-12 23q0 10 20 27l21 21l35 31l14 18v41l-4 6q-4 -1 -32 -37l-37 -35q-5 -13 -18.5 -24.5t-22.5 -5.5l-2 17q0 11 12 32l14 24q22 35 22 64q0 17 -5 27l-8 18q-2 7 -7 12q-6 14 -17.5 22.5t-31.5 11.5q-22 0 -35 -28l-43 -49zM141 -137
l-16 -23l-17 -21q-28 -28 -47 -28l-10 2q-4 3 -1 20l11 27l12 17l11 14q4 9 9 17.5t14 18.5q15 17 24 19q3 -2 8 -22z" />
    <glyph glyph-name="braceleft" unicode="{" horiz-adv-x="244" 
d="M230 500l6 47h-56q-45 0 -70 -38q-18 -27 -24 -81l-3 -57q-3 -27 -11 -46q-18 -58 -68 -65l-6 -41q18 0 32 -13q19 -19 19 -60l-10 -63q-4 -23 -6 -41.5t-2 -33.5q0 -34 21 -58q18 -18 42 -18h58l6 47l-27 -1q-18 0 -25 4l-11 10q-3 6 -3 17l2 20l2 24l8 54l4 48
q0 32 -9.5 53t-35.5 30q32 15 51 39q27 33 27 84v21q0 52 7 76q11 42 43 42h39z" />
    <glyph glyph-name="braceright" unicode="}" horiz-adv-x="244" 
d="M4 -21l-6 -47h53q24 0 43 11q20 8 35 30q4 9 25 144q12 96 76 102l6 41q-21 0 -35 20l-7 16q-6 17 -6 36l1 22q0 14 4 27q12 66 12 92q0 33 -20.5 53.5t-43.5 20.5h-57l-8 -45h12q30 0 37 -1.5t16 -16.5l3 -21l-2 -18q0 -14 -2 -20l-7 -48l-7 -58q0 -30 9 -51
q9 -17 39 -28q-54 -21 -75 -96l-7 -43l-10 -85q-3 -13 -7 -18q-13 -19 -34 -19h-37z" />
    <glyph glyph-name="c141" horiz-adv-x="604" 
d="M36 -53q24 0 36 29l13 45l21 67q9 12 12 26l8 29q11 -2 62 19q33 14 55 18q18 0 32.5 6t21.5 3l2 -25l-1 -42l-1 -50l1 -11v-12l-1 -28l-1 -25q0 -21 7 -21q8 -2 21 11q8 8 9 14l2 -2q0 -24 10 -24l19 3q40 0 79 9q36 6 71 28q14 3 29 12l21 14l15 16q6 9 8 21
q0 12 -10 13q-7 0 -22 -12q-98 -33 -199 -33l-1 13l3 30l6 29q0 26 6 54.5t17 35.5q32 11 64 15l85 10l19 -2l17 -2q6 0 11 6l4 19l2 24q-3 15 -13 18.5t-29 3.5l-43 -5q-29 0 -50 -9q-16 0 -33.5 -14.5t-27.5 -14.5l-1 13v11l1 23v16q3 8 4.5 10.5t13 44t21.5 48.5
q6 21 24 29l35 8l42 4q34 0 48 -10l21 -4q14 0 14 28l5 15l3 15q0 11 -9.5 20t-28.5 9l-13 -1l-21 4l-22 -4q-23 0 -51 -9t-35 -20q-51 -39 -61 -52q-31 -34 -31 -73l-7 36l-4 35q0 10 -21.5 22t-27.5 20l12 34l4 18q0 9 -8 14l-10 3q-11 0 -29.5 -15.5t-27.5 -18.5l-6 -15
l-13 -12q-10 0 -20 -6t-13 -17l3 -10q3 -3 5 -10l-3 -8q-9 -6 -24 -45t-19 -62l-14 -39l-11 -39l-8 -14l-9 -19l-9 -24q-20 0 -35 -16q-11 -16 -11 -35l1 -10l-5 -18q0 -8 12 -11l9 2q0 -9 -7 -33l-9 -43l-14 -40l-7 -40q0 -18 10 -18zM297 232q-12 0 -19 -2q-11 0 -22 -5
l-50 -3l-51 -3l3 17q3 12 11 18q3 16 11 29l16 26l5 14l15 32q9 18 9 30l12 19q7 11 18 14q27 0 39 -44l5 -29l2 -36l-3 -25l1 -33q0 -15 -2 -19z" />
    <glyph glyph-name="c141" unicode="&#x40c;" horiz-adv-x="604" 
d="M36 -53q24 0 36 29l13 45l21 67q9 12 12 26l8 29q11 -2 62 19q33 14 55 18q18 0 32.5 6t21.5 3l2 -25l-1 -42l-1 -50l1 -11v-12l-1 -28l-1 -25q0 -21 7 -21q8 -2 21 11q8 8 9 14l2 -2q0 -24 10 -24l19 3q40 0 79 9q36 6 71 28q14 3 29 12l21 14l15 16q6 9 8 21
q0 12 -10 13q-7 0 -22 -12q-98 -33 -199 -33l-1 13l3 30l6 29q0 26 6 54.5t17 35.5q32 11 64 15l85 10l19 -2l17 -2q6 0 11 6l4 19l2 24q-3 15 -13 18.5t-29 3.5l-43 -5q-29 0 -50 -9q-16 0 -33.5 -14.5t-27.5 -14.5l-1 13v11l1 23v16q3 8 4.5 10.5t13 44t21.5 48.5
q6 21 24 29l35 8l42 4q34 0 48 -10l21 -4q14 0 14 28l5 15l3 15q0 11 -9.5 20t-28.5 9l-13 -1l-21 4l-22 -4q-23 0 -51 -9t-35 -20q-51 -39 -61 -52q-31 -34 -31 -73l-7 36l-4 35q0 10 -21.5 22t-27.5 20l12 34l4 18q0 9 -8 14l-10 3q-11 0 -29.5 -15.5t-27.5 -18.5l-6 -15
l-13 -12q-10 0 -20 -6t-13 -17l3 -10q3 -3 5 -10l-3 -8q-9 -6 -24 -45t-19 -62l-14 -39l-11 -39l-8 -14l-9 -19l-9 -24q-20 0 -35 -16q-11 -16 -11 -35l1 -10l-5 -18q0 -8 12 -11l9 2q0 -9 -7 -33l-9 -43l-14 -40l-7 -40q0 -18 10 -18zM297 232q-12 0 -19 -2q-11 0 -22 -5
l-50 -3l-51 -3l3 17q3 12 11 18q3 16 11 29l16 26l5 14l15 32q9 18 9 30l12 19q7 11 18 14q27 0 39 -44l5 -29l2 -36l-3 -25l1 -33q0 -15 -2 -19z" />
    <glyph glyph-name="nonbreakingspace" unicode="&#xa0;" horiz-adv-x="500" 
 />
    <glyph glyph-name="cent" unicode="&#xa2;" horiz-adv-x="244" 
d="M10 105q0 -29 29 -46q25 -14 55 -14l-1 -12v-13q0 -16 6 -19l12 9l4 18q0 16 2 19q25 0 63 26t56 52q6 6 6 14q0 6 -8 7l-28 -13l-20 -4q-13 -11 -32 -20l-13 -4l-18 -1l2 48l8 37l6 26q7 4 23 21l33 18q18 13 26 25q3 8 3 24q0 21 -9 21l-11 1q-9 0 -13 -5q-6 0 -15 -6
l-16 -6l-14 -11q-3 3 6 39q0 9 -2 12l-33 -6l-4 -26l-5 -19l-1 -27l-38 -29l-20 -22l-28 -28q-19 -25 -19 -48q8 -14 8 -38zM105 189l-1 -18l-1 -12q0 -9 2 -11l-4 -22l-1 -22q-26 12 -26 37q0 33 31 48z" />
    <glyph glyph-name="cent" unicode="&#x45e;" horiz-adv-x="244" 
d="M10 105q0 -29 29 -46q25 -14 55 -14l-1 -12v-13q0 -16 6 -19l12 9l4 18q0 16 2 19q25 0 63 26t56 52q6 6 6 14q0 6 -8 7l-28 -13l-20 -4q-13 -11 -32 -20l-13 -4l-18 -1l2 48l8 37l6 26q7 4 23 21l33 18q18 13 26 25q3 8 3 24q0 21 -9 21l-11 1q-9 0 -13 -5q-6 0 -15 -6
l-16 -6l-14 -11q-3 3 6 39q0 9 -2 12l-33 -6l-4 -26l-5 -19l-1 -27l-38 -29l-20 -22l-28 -28q-19 -25 -19 -48q8 -14 8 -38zM105 189l-1 -18l-1 -12q0 -9 2 -11l-4 -22l-1 -22q-26 12 -26 37q0 33 31 48z" />
    <glyph glyph-name="sterling" unicode="&#xa3;" horiz-adv-x="402" 
d="M96 -4l11 10q7 7 18 10l41 -24q27 -14 39 -15q17 0 21 -2l19 -2q33 0 64 22q16 11 33 32t39 57q0 11 6 29l3 11l8 19l-20 -8q-13 -13 -26 -39l-45 -45q-27 -24 -49 -24q-51 0 -92 39q0 16 5 31l9 30l13 49q3 20 10 31q12 5 40 9l75 9l28 21q9 8 11 19l-3 8l-56 -3l-79 -6
l25 117l13 56q0 6 5 6l6 -7l1 -42l1 -44v-20q0 -16 2.5 -19.5t14.5 -1.5l25 19q10 8 13 18l-4 9l-8 12q0 14 -2 19l-1 23l3 40q0 19 -3.5 33t-9.5 27q-9 18 -23 19q-15 0 -33 -18q-14 -6 -21.5 -12.5t-7.5 -22.5l-18 -56l-5 -25l-2 -21q-6 -10 -15 -44l-15 -73
q-22 -8 -38 -8q-15 0 -16 8l-28 -3q-7 -1 -13.5 -3.5t-13.5 -7.5q-9 -12 -13 -26l-4 -20q0 -9 5 -12l14 1l35 4l24 6l33 2l-4 -33l-4 -25q-9 -6 -12.5 -21.5t-9.5 -15.5q-11 0 -39 20t-47 23q-6 3 -15 -12l-14 -26q0 -13 14 -33l39 -56l22 -14z" />
    <glyph glyph-name="sterling" unicode="&#x408;" horiz-adv-x="402" 
d="M96 -4l11 10q7 7 18 10l41 -24q27 -14 39 -15q17 0 21 -2l19 -2q33 0 64 22q16 11 33 32t39 57q0 11 6 29l3 11l8 19l-20 -8q-13 -13 -26 -39l-45 -45q-27 -24 -49 -24q-51 0 -92 39q0 16 5 31l9 30l13 49q3 20 10 31q12 5 40 9l75 9l28 21q9 8 11 19l-3 8l-56 -3l-79 -6
l25 117l13 56q0 6 5 6l6 -7l1 -42l1 -44v-20q0 -16 2.5 -19.5t14.5 -1.5l25 19q10 8 13 18l-4 9l-8 12q0 14 -2 19l-1 23l3 40q0 19 -3.5 33t-9.5 27q-9 18 -23 19q-15 0 -33 -18q-14 -6 -21.5 -12.5t-7.5 -22.5l-18 -56l-5 -25l-2 -21q-6 -10 -15 -44l-15 -73
q-22 -8 -38 -8q-15 0 -16 8l-28 -3q-7 -1 -13.5 -3.5t-13.5 -7.5q-9 -12 -13 -26l-4 -20q0 -9 5 -12l14 1l35 4l24 6l33 2l-4 -33l-4 -25q-9 -6 -12.5 -21.5t-9.5 -15.5q-11 0 -39 20t-47 23q-6 3 -15 -12l-14 -26q0 -13 14 -33l39 -56l22 -14z" />
    <glyph glyph-name="yen" unicode="&#xa5;" horiz-adv-x="298" 
d="M138 -23q-13 0 -16 9t-3 30q-2 7 -2 27v23q-4 8 -4 21l1 13l3 13l-1 25l-1 22l2 33v3l-15 -1l-51 -2q-26 0 -26 6q-1 4 -1 14l-1 17q2 16 5 20l94 -1l1 8q1 15 3 28h-4l-51 -2q-26 0 -26 6q-1 4 -1 14l-1 17q2 16 5 20l84 -1q2 13 4 16l4 54l4 44q-3 9 -13 9l-26 -5
l-10 -2l-39 -13l-26 -6q-15 0 -15 12l4 17l5 27q6 17 9 20q7 16 27 19l47 6l20 -2l38 3l39 3l24 -2l5 2h6l24 -4l23 -4q7 -7 7 -19l-1 -26l1 -11l-2 -11l-5 -3l-20 2l-32 6l-16 1q-24 0 -27 -9l24 -27q5 -6 5 -20l-12 -78h73q6 0 8 -5v-42q-8 -8 -21 -8l-16 1l-15 4l-27 1
h-12l-9 -41h72q6 0 8 -5v-42q-8 -8 -21 -8l-16 1l-15 4l-27 1h-10l-5 -37l-10 -53l-1 -72l-3 -41q-3 -7 -12 -10q-7 -4 -11 -9z" />
    <glyph glyph-name="yen" unicode="&#x20ae;" horiz-adv-x="298" 
d="M138 -23q-13 0 -16 9t-3 30q-2 7 -2 27v23q-4 8 -4 21l1 13l3 13l-1 25l-1 22l2 33v3l-15 -1l-51 -2q-26 0 -26 6q-1 4 -1 14l-1 17q2 16 5 20l94 -1l1 8q1 15 3 28h-4l-51 -2q-26 0 -26 6q-1 4 -1 14l-1 17q2 16 5 20l84 -1q2 13 4 16l4 54l4 44q-3 9 -13 9l-26 -5
l-10 -2l-39 -13l-26 -6q-15 0 -15 12l4 17l5 27q6 17 9 20q7 16 27 19l47 6l20 -2l38 3l39 3l24 -2l5 2h6l24 -4l23 -4q7 -7 7 -19l-1 -26l1 -11l-2 -11l-5 -3l-20 2l-32 6l-16 1q-24 0 -27 -9l24 -27q5 -6 5 -20l-12 -78h73q6 0 8 -5v-42q-8 -8 -21 -8l-16 1l-15 4l-27 1
h-12l-9 -41h72q6 0 8 -5v-42q-8 -8 -21 -8l-16 1l-15 4l-27 1h-10l-5 -37l-10 -53l-1 -72l-3 -41q-3 -7 -12 -10q-7 -4 -11 -9z" />
    <glyph glyph-name="dieresis" unicode="&#xa8;" horiz-adv-x="332" 
d="M208 -6q17 0 51 22l28 18l17 13q7 8 10 27q0 12 -10 13l-10 -3q-44 -23 -96 -33t-117 -10l-1 14q0 10 1 22.5t4 24.5l13 78q6 27 70 40l49 7l15 1l14 1h22l31 -4q7 6 9 10l6 27q0 33 -19 33l-66 -3q-33 -3 -57 -13q-5 0 -35 -21q-7 -4 -19 -8q2 17 3 23.5t5 17.5
q1 7 4 20t7 27l18 66q3 31 41 47l28 6l43 2h28q7 -13 30 -13q21 0 21 19l-2 10q4 6 7 24q0 17 -9.5 23t-19 9t-25.5 3l-25 -1q-17 0 -23 -2l-19 -1q-6 0 -10 -1t-21 -6.5t-29 -18.5l-31 -25l-27 -20l-22 -30q-9 -14 -9 -29l-6 -19l-15 -58q-15 -75 -15 -89l-13 -125l-5 -40
l-2 -31q0 -22 3.5 -30.5t20.5 -11.5v-17q6 -6 19 -7l24 1l30 1h11q13 3 31 5t44 15zM276 568l16 2q7 0 11 -2q4 6 13 11q9 3 12 9t3 19l-3 16q-3 6 -9 4q-7 5 -23 8q-16 0 -28.5 -13t-15.5 -31q0 -17 24 -23zM163 568l17 2l12 -2q0 6 12.5 12.5t13.5 13.5l1 17q0 10 -3.5 14
t-7.5 4l-20 5q-15 0 -28 -11t-16 -28q0 -17 19 -27z" />
    <glyph glyph-name="dieresis" unicode="&#x401;" horiz-adv-x="332" 
d="M208 -6q17 0 51 22l28 18l17 13q7 8 10 27q0 12 -10 13l-10 -3q-44 -23 -96 -33t-117 -10l-1 14q0 10 1 22.5t4 24.5l13 78q6 27 70 40l49 7l15 1l14 1h22l31 -4q7 6 9 10l6 27q0 33 -19 33l-66 -3q-33 -3 -57 -13q-5 0 -35 -21q-7 -4 -19 -8q2 17 3 23.5t5 17.5
q1 7 4 20t7 27l18 66q3 31 41 47l28 6l43 2h28q7 -13 30 -13q21 0 21 19l-2 10q4 6 7 24q0 17 -9.5 23t-19 9t-25.5 3l-25 -1q-17 0 -23 -2l-19 -1q-6 0 -10 -1t-21 -6.5t-29 -18.5l-31 -25l-27 -20l-22 -30q-9 -14 -9 -29l-6 -19l-15 -58q-15 -75 -15 -89l-13 -125l-5 -40
l-2 -31q0 -22 3.5 -30.5t20.5 -11.5v-17q6 -6 19 -7l24 1l30 1h11q13 3 31 5t44 15zM276 568l16 2q7 0 11 -2q4 6 13 11q9 3 12 9t3 19l-3 16q-3 6 -9 4q-7 5 -23 8q-16 0 -28.5 -13t-15.5 -31q0 -17 24 -23zM163 568l17 2l12 -2q0 6 12.5 12.5t13.5 13.5l1 17q0 10 -3.5 14
t-7.5 4l-20 5q-15 0 -28 -11t-16 -28q0 -17 19 -27z" />
    <glyph glyph-name="copyright" unicode="&#xa9;" horiz-adv-x="541" 
d="M289 -16q94 0 173 76.5t79 187.5q0 108 -75 189t-179 81q-118 0 -198.5 -74t-80.5 -184q0 -118 81 -197t200 -79zM367 305h47q-9 34 -21 55q-36 56 -112 56q-64 0 -105 -41q-51 -48 -51 -133q0 -70 48 -115q43 -38 105 -38q52 0 90 28t46 84h-47q-3 -31 -30 -52
q-21 -15 -51 -15l-18 2q-14 2 -18 5q-34 12 -51 45t-17 70q0 41 21 74t65 39l8 1h6q31 0 55 -20q24 -18 30 -45zM273 35q-87 0 -147.5 64.5t-60.5 160.5q0 81 58 143q62 66 150 66q90 0 150.5 -67t60.5 -156q0 -84 -65 -147.5t-146 -63.5z" />
    <glyph glyph-name="ordfeminine" unicode="&#xaa;" horiz-adv-x="404" 
d="M238 33q60 56 99 114q63 96 63 195q-6 59 -43.5 110.5t-96.5 63.5q-28 -6 -43.5 -16t-23.5 -21l-21 -12q-13 -8 -18 -16q-3 -9 -10 -9l-3 5l1 12q11 16 14 36q0 12 -14 15l-21 -16q-24 -42 -55 -113l-49 -117q-9 -9 -12 -27l-3 -30q0 -9 5 -9l15 10l9 11l2 -12l-3 -15
l-3 -16q-3 -33 -5 -36v-22q0 -59 21 -97.5t70 -38.5q18 0 45 9l49 17l14 13zM322 214l1 3q-7 -27 -24 -56.5t-57 -66.5l-29 -23l-17 -12q-21 -12 -41 -12q-21 0 -36 15q-12 15 -22 47q-8 35 -8 63l5 46q5 2 13.5 3t26.5 1q10 0 49 -2t69 -2h38q21 -3 32 -4zM98 256l21 96
q26 37 37 45q19 16 70 31q51 0 81 -46q27 -41 27 -102l-4 -28l-23 -3l-57 -1q-20 0 -54 1t-48 1z" />
    <glyph glyph-name="ordfeminine" unicode="&#x4e8;" horiz-adv-x="404" 
d="M238 33q60 56 99 114q63 96 63 195q-6 59 -43.5 110.5t-96.5 63.5q-28 -6 -43.5 -16t-23.5 -21l-21 -12q-13 -8 -18 -16q-3 -9 -10 -9l-3 5l1 12q11 16 14 36q0 12 -14 15l-21 -16q-24 -42 -55 -113l-49 -117q-9 -9 -12 -27l-3 -30q0 -9 5 -9l15 10l9 11l2 -12l-3 -15
l-3 -16q-3 -33 -5 -36v-22q0 -59 21 -97.5t70 -38.5q18 0 45 9l49 17l14 13zM322 214l1 3q-7 -27 -24 -56.5t-57 -66.5l-29 -23l-17 -12q-21 -12 -41 -12q-21 0 -36 15q-12 15 -22 47q-8 35 -8 63l5 46q5 2 13.5 3t26.5 1q10 0 49 -2t69 -2h38q21 -3 32 -4zM98 256l21 96
q26 37 37 45q19 16 70 31q51 0 81 -46q27 -41 27 -102l-4 -28l-23 -3l-57 -1q-20 0 -54 1t-48 1z" />
    <glyph glyph-name="ordfeminine" unicode="&#x404;" horiz-adv-x="404" 
d="M238 33q60 56 99 114q63 96 63 195q-6 59 -43.5 110.5t-96.5 63.5q-28 -6 -43.5 -16t-23.5 -21l-21 -12q-13 -8 -18 -16q-3 -9 -10 -9l-3 5l1 12q11 16 14 36q0 12 -14 15l-21 -16q-24 -42 -55 -113l-49 -117q-9 -9 -12 -27l-3 -30q0 -9 5 -9l15 10l9 11l2 -12l-3 -15
l-3 -16q-3 -33 -5 -36v-22q0 -59 21 -97.5t70 -38.5q18 0 45 9l49 17l14 13zM322 214l1 3q-7 -27 -24 -56.5t-57 -66.5l-29 -23l-17 -12q-21 -12 -41 -12q-21 0 -36 15q-12 15 -22 47q-8 35 -8 63l5 46q5 2 13.5 3t26.5 1q10 0 49 -2t69 -2h38q21 -3 32 -4zM98 256l21 96
q26 37 37 45q19 16 70 31q51 0 81 -46q27 -41 27 -102l-4 -28l-23 -3l-57 -1q-20 0 -54 1t-48 1z" />
    <glyph glyph-name="guillemotleft" unicode="&#xab;" horiz-adv-x="307" 
d="M143 268l-27 -26q-9 -8 -20 -17.5t-21 -15.5q-3 -7 -31 -33q-15 -12 -18 -24q-7 -11 -7 -26q0 -13 9 -37l13 -32l17 -23l13 -19q3 -3 14 -4l15 1l17 7q11 6 10 14q-3 14 -17 30l-14 23q-11 19 -13 36q0 18 17 41l35 44l18 13l23 20q21 11 21 23l-3 7l-9 6l-11 2
q-7 0 -15 -4zM266 266l-28 -27l-42 -34q-3 -9 -24 -27q-19 -14 -25 -30q-6 -9 -6 -27q0 -27 16.5 -58.5t36.5 -48.5q3 -6 16 -7q20 0 34 10q6 6 4 10q-3 11 -24 42q-19 33 -19 52q0 14 8 25q3 10 19 27l22 30q13 5 21 13l22 20q28 15 20 30l-10 7l-10 2l-16 -3z" />
    <glyph glyph-name="minus" unicode="&#xad;" horiz-adv-x="227" 
d="M151 141l21 -4q13 0 22 9.5t9 25.5q0 9 -3.5 15.5t-11.5 7.5l-56 -1h-54l-25 1l-5 -4l-9 -12q-7 -10 -13 -13q-5 -5 -8 -19q0 -9 14 -10l31 -1l33 -1l29 1q13 0 26 5z" />
    <glyph glyph-name="registered" unicode="&#xae;" horiz-adv-x="541" 
d="M170 404v-306h51v132h45l86 -134h50l-88 134q39 12 57 27q24 20 24 57q0 39 -27 68q-25 22 -50 22h-148zM221 361h76q20 0 31 -14q12 -12 12 -31q0 -18 -11 -31.5t-32 -13.5h-76v90zM273 -18q107 0 186.5 84.5t79.5 183.5q0 107 -78.5 186.5t-177.5 79.5
q-120 0 -198.5 -79t-78.5 -193q0 -99 75 -180.5t192 -81.5zM285 33q-100 0 -167 67q-59 61 -59 144q0 85 58 150q63 71 154 71q88 0 150.5 -65t62.5 -152q0 -84 -56.5 -149.5t-142.5 -65.5z" />
    <glyph glyph-name="macron" unicode="&#xaf;" horiz-adv-x="284" 
d="M53 -14q0 17 6 38t15 33q3 11 6.5 22t9.5 23q-5 60 -23 103l-18 37l-19 68q-13 52 -13 89l1 17q-5 2 -8 18l-2 24v22q9 15 22.5 22.5t27.5 7.5q18 0 29 -12q9 -14 9 -37l-5 -34v-12l3 -37l9 -52l13 -64q11 -36 17 -43q8 4 23 32l37 79l18 45l25 53l40 69q22 35 34 35
q11 -3 16 -14l-17 -98q-10 -34 -24 -57l-6 -20l-5 -11l-4 -6l-20 -35l-27 -45l-26 -39l-18 -49q-11 -31 -27 -53l-11 -51l-4 -34q0 -6 3 -9l3 -7q0 -19 -28 -25q-11 -9 -31 -12l-21 7q-10 3 -10 12z" />
    <glyph glyph-name="macron" unicode="&#x4ae;" horiz-adv-x="284" 
d="M53 -14q0 17 6 38t15 33q3 11 6.5 22t9.5 23q-5 60 -23 103l-18 37l-19 68q-13 52 -13 89l1 17q-5 2 -8 18l-2 24v22q9 15 22.5 22.5t27.5 7.5q18 0 29 -12q9 -14 9 -37l-5 -34v-12l3 -37l9 -52l13 -64q11 -36 17 -43q8 4 23 32l37 79l18 45l25 53l40 69q22 35 34 35
q11 -3 16 -14l-17 -98q-10 -34 -24 -57l-6 -20l-5 -11l-4 -6l-20 -35l-27 -45l-26 -39l-18 -49q-11 -31 -27 -53l-11 -51l-4 -34q0 -6 3 -9l3 -7q0 -19 -28 -25q-11 -9 -31 -12l-21 7q-10 3 -10 12z" />
    <glyph glyph-name="macron" unicode="&#x407;" horiz-adv-x="284" 
d="M53 -14q0 17 6 38t15 33q3 11 6.5 22t9.5 23q-5 60 -23 103l-18 37l-19 68q-13 52 -13 89l1 17q-5 2 -8 18l-2 24v22q9 15 22.5 22.5t27.5 7.5q18 0 29 -12q9 -14 9 -37l-5 -34v-12l3 -37l9 -52l13 -64q11 -36 17 -43q8 4 23 32l37 79l18 45l25 53l40 69q22 35 34 35
q11 -3 16 -14l-17 -98q-10 -34 -24 -57l-6 -20l-5 -11l-4 -6l-20 -35l-27 -45l-26 -39l-18 -49q-11 -31 -27 -53l-11 -51l-4 -34q0 -6 3 -9l3 -7q0 -19 -28 -25q-11 -9 -31 -12l-21 7q-10 3 -10 12z" />
    <glyph glyph-name="degree" unicode="&#xb0;" horiz-adv-x="146" 
d="M35 391l-2 -6l-3 -4q-6 -12 -6 -19q2 -10 4 -12l11 -12l13 -10l16 -3q10 0 27 5.5t26 5.5q11 9 15 20l9 23q6 3 6 16l-4 11l-2 8l-17 10q-16 9 -32 10l-12 -3l-12 -4q-12 -6 -21 -15l-8 -12zM57 363q0 16 10 27t27 13l12 -3q8 0 11 -16q0 -19 -13.5 -23.5t-30.5 -6.5
q-11 0 -16 9z" />
    <glyph glyph-name="twosuperior" unicode="&#xb2;" horiz-adv-x="139" 
d="M26 2q3 -25 21 -25l14 3l15 16q9 3 10 14l-5 38l-2 41q0 55 15 145l16 86q-3 7 4 39l17 69l7 33l4 22l4 22q0 20 -15 23q-9 0 -29 -12q-38 0 -61 -75l-15 -62l2 -6l2 -4l-4 -12l-2 -22q0 -12 2 -15l7 -7l4 -22q0 -16 -5 -25l-3 -73l-9 -121q0 -31 6 -70z" />
    <glyph glyph-name="twosuperior" unicode="&#x406;" horiz-adv-x="139" 
d="M26 2q3 -25 21 -25l14 3l15 16q9 3 10 14l-5 38l-2 41q0 55 15 145l16 86q-3 7 4 39l17 69l7 33l4 22l4 22q0 20 -15 23q-9 0 -29 -12q-38 0 -61 -75l-15 -62l2 -6l2 -4l-4 -12l-2 -22q0 -12 2 -15l7 -7l4 -22q0 -16 -5 -25l-3 -73l-9 -121q0 -31 6 -70z" />
    <glyph glyph-name="threesuperior" unicode="&#xb3;" horiz-adv-x="234" 
d="M98 330q0 -6 8 -9l25 -1q14 6 26.5 17.5t18.5 31.5l8 20l4 22q0 14 -12 17q-8 3 -25 -5t-20 -19q-14 -3 -27 -19.5t-13 -33.5q0 -13 7 -21zM4 66l9 7l12 9q6 9 9.5 12.5t14.5 13t21 7.5q5 -5 8.5 -17t11.5 -18q0 -11 11 -25.5t34 -27.5l15 -2q22 0 46 17q18 12 35 32
l2 49q-7 -2 -15 -10q-7 -4 -13 -15l-12 -5l-17 -5q-9 0 -15 6t-12 29l-6 40q0 15 -4 26q-7 10 -17 16t-28 6l-8 -7l-8 -11q-9 -3 -22 -19.5t-15 -23.5q-10 -3 -18 -14l-17 -19l-4 -40v-6z" />
    <glyph glyph-name="threesuperior" unicode="&#x456;" horiz-adv-x="234" 
d="M98 330q0 -6 8 -9l25 -1q14 6 26.5 17.5t18.5 31.5l8 20l4 22q0 14 -12 17q-8 3 -25 -5t-20 -19q-14 -3 -27 -19.5t-13 -33.5q0 -13 7 -21zM4 66l9 7l12 9q6 9 9.5 12.5t14.5 13t21 7.5q5 -5 8.5 -17t11.5 -18q0 -11 11 -25.5t34 -27.5l15 -2q22 0 46 17q18 12 35 32
l2 49q-7 -2 -15 -10q-7 -4 -13 -15l-12 -5l-17 -5q-9 0 -15 6t-12 29l-6 40q0 15 -4 26q-7 10 -17 16t-28 6l-8 -7l-8 -11q-9 -3 -22 -19.5t-15 -23.5q-10 -3 -18 -14l-17 -19l-4 -40v-6z" />
    <glyph glyph-name="acute" unicode="&#xb4;" horiz-adv-x="184" 
d="M80 383q-10 -9 -43 -23q-28 -9 -33 -16l3 -5l6 -6l8 -5l47 14q18 6 34 19q6 0 29 13l33 19l14 21l1 8l-3 12q-15 14 -35 11q-13 -24 -31 -41z" />
    <glyph glyph-name="acute" unicode="&#x491;" horiz-adv-x="184" 
d="M80 383q-10 -9 -43 -23q-28 -9 -33 -16l3 -5l6 -6l8 -5l47 14q18 6 34 19q6 0 29 13l33 19l14 21l1 8l-3 12q-15 14 -35 11q-13 -24 -31 -41z" />
    <glyph glyph-name="paragraph" unicode="&#xb6;" horiz-adv-x="394" 
d="M173 -17v357q-67 0 -111 41.5t-44 98.5q0 71 48 108t135 37h161v-642h-51v592h-87v-592h-51z" />
    <glyph glyph-name="periodcentered" unicode="&#xb7;" horiz-adv-x="94" 
d="M106 152q17 0 30 12t13 31t-11 31t-32 12q-18 0 -32 -13q-11 -13 -11 -30q0 -19 11.5 -31t31.5 -12z" />
    <glyph glyph-name="periodcentered" unicode="&#x2219;" horiz-adv-x="94" 
d="M106 152q17 0 30 12t13 31t-11 31t-32 12q-18 0 -32 -13q-11 -13 -11 -30q0 -19 11.5 -31t31.5 -12z" />
    <glyph glyph-name="cedilla" unicode="&#xb8;" horiz-adv-x="262" 
d="M29 29q7 -6 12.5 -9t14.5 -8l32 -6q26 0 71 24l70 38q5 8 5 37l2 9l-15 -3l-20 -13l-21 -14q-29 -16 -66 -16q-18 0 -29.5 6t-11.5 23l3 16l13 9l13 13q25 12 50.5 42t25.5 42q10 3 10 25t-10 29q-6 9 -15 12l-20 3q-10 0 -18.5 -3.5t-13.5 -9.5l-25 -18l-23 -23l-16 -18
l-17 -29l-17 -38q-9 -21 -9 -30q0 -43 12 -67zM121 217q10 -5 -1.5 -21t-17.5 -18q-5 -14 -22 -14l-4 1l-2 2l8 17l20 22q9 8 19 11zM207 340l15 2q8 0 12 -4q3 7 10 11l12 6l5 23l-3 16q-3 4 -10 4q-6 5 -22 8q-15 0 -27.5 -13t-15.5 -31q0 -16 24 -22zM94 338l20 4l9 -2
l25 21l2 21q0 16 -11 16q-7 6 -23 7q-17 0 -29 -11t-12 -27q0 -14 19 -29z" />
    <glyph glyph-name="cedilla" unicode="&#x451;" horiz-adv-x="262" 
d="M29 29q7 -6 12.5 -9t14.5 -8l32 -6q26 0 71 24l70 38q5 8 5 37l2 9l-15 -3l-20 -13l-21 -14q-29 -16 -66 -16q-18 0 -29.5 6t-11.5 23l3 16l13 9l13 13q25 12 50.5 42t25.5 42q10 3 10 25t-10 29q-6 9 -15 12l-20 3q-10 0 -18.5 -3.5t-13.5 -9.5l-25 -18l-23 -23l-16 -18
l-17 -29l-17 -38q-9 -21 -9 -30q0 -43 12 -67zM121 217q10 -5 -1.5 -21t-17.5 -18q-5 -14 -22 -14l-4 1l-2 2l8 17l20 22q9 8 19 11zM207 340l15 2q8 0 12 -4q3 7 10 11l12 6l5 23l-3 16q-3 4 -10 4q-6 5 -22 8q-15 0 -27.5 -13t-15.5 -31q0 -16 24 -22zM94 338l20 4l9 -2
l25 21l2 21q0 16 -11 16q-7 6 -23 7q-17 0 -29 -11t-12 -27q0 -14 19 -29z" />
    <glyph glyph-name="onesuperior" unicode="&#xb9;" horiz-adv-x="657" 
d="M18 -16l-3 -19q0 -10 9 -16q3 6 12 6t12 11l28 93l15 54l11 47l22 76q12 39 17 43q6 -6 19 -38l22 -50l54 -126q38 -83 59 -83q13 0 24 8l25 12l13 23l7 26q10 40 18.5 95.5t16.5 134.5q0 86 9 160l12 73q0 27 -7 28l-14 -9l-14 -12q-16 -31 -27 -72q-9 -39 -9 -90
l-1 -69q0 -35 -4 -54l-17 -109q-9 -52 -14 -59q-13 6 -43 81l-33 81q-1 6 -4 16t-7 20l-24 66l-22 66q0 21 4 33l21 57q0 14 -9 17q-8 0 -28 -17l-15 -11l-6 -4q-2 9 -23 9l-20 -3q-8 2 -14.5 -16.5t-6.5 -41.5l1 -11l-18 -132l-7 -57q-2 -14 -3 -23t-7 -34l-17 -94l-5 -39z
M577 213q-36 -39 -56 -30q-4 3 -7 15q0 10 4.5 19t11.5 15q10 0 16 12q9 10 27 13q14 0 14 -23zM485 154l12 -6l26 -4l32 10q21 9 28 22q8 3 16 15q14 8 24 30l7 19q3 9 3 25q0 13 -5 22q-14 15 -35 15q-15 0 -35 -7q0 6 6 12q0 9 -22 9l-23 -23l-16 -12q-3 -3 -10 -14
q-16 -24 -16 -25q-12 -26 -12 -49q0 -28 20 -39zM552 82l19 -3q29 0 29 24q0 16 -13 16l-52 -1h-52l-23 1l-14 -10l-12 -10q-8 -5 -8 -13q0 -6 13 -7l30 -1h32h31z" />
    <glyph glyph-name="onesuperior" unicode="&#x2116;" horiz-adv-x="657" 
d="M18 -16l-3 -19q0 -10 9 -16q3 6 12 6t12 11l28 93l15 54l11 47l22 76q12 39 17 43q6 -6 19 -38l22 -50l54 -126q38 -83 59 -83q13 0 24 8l25 12l13 23l7 26q10 40 18.5 95.5t16.5 134.5q0 86 9 160l12 73q0 27 -7 28l-14 -9l-14 -12q-16 -31 -27 -72q-9 -39 -9 -90
l-1 -69q0 -35 -4 -54l-17 -109q-9 -52 -14 -59q-13 6 -43 81l-33 81q-1 6 -4 16t-7 20l-24 66l-22 66q0 21 4 33l21 57q0 14 -9 17q-8 0 -28 -17l-15 -11l-6 -4q-2 9 -23 9l-20 -3q-8 2 -14.5 -16.5t-6.5 -41.5l1 -11l-18 -132l-7 -57q-2 -14 -3 -23t-7 -34l-17 -94l-5 -39z
M577 213q-36 -39 -56 -30q-4 3 -7 15q0 10 4.5 19t11.5 15q10 0 16 12q9 10 27 13q14 0 14 -23zM485 154l12 -6l26 -4l32 10q21 9 28 22q8 3 16 15q14 8 24 30l7 19q3 9 3 25q0 13 -5 22q-14 15 -35 15q-15 0 -35 -7q0 6 6 12q0 9 -22 9l-23 -23l-16 -12q-3 -3 -10 -14
q-16 -24 -16 -25q-12 -26 -12 -49q0 -28 20 -39zM552 82l19 -3q29 0 29 24q0 16 -13 16l-52 -1h-52l-23 1l-14 -10l-12 -10q-8 -5 -8 -13q0 -6 13 -7l30 -1h32h31z" />
    <glyph glyph-name="ordmasculine" unicode="&#xba;" horiz-adv-x="312" 
d="M68 10q3 -5 16 -11l25 -3q36 0 66 21l42 40l12 15l11 12l2 5l4 8l20 32q9 18 9 45q0 25 -7 45q-17 24 -45 24q-20 0 -43 -13q-3 3 1 12l6 12q-1 2 -2.5 3.5l-2.5 2.5l-21 2h-6l-5 -2l-64 -65q-7 -4 -42 -37l-46 -45v-13l2 -15v-17l7 6l21 18q12 12 21 12l-4 -26l-3 -32
q0 -16 5.5 -24.5t20.5 -11.5zM238 21l13 6l30 20l26 18q17 12 17 29q-6 20 -12 23l-10 -7l-13 -12q-6 -14 -19 -24l-16 -15l-14 -16l-7 -16q2 -4 3 -5t2 -1zM206 102l-11 -15l-9 -9l-18 -14q-22 -19 -40 -19q-19 0 -19 31q0 10 7 27l4 9zM132 134q5 3 6 5l9 12l22 14
q11 6 24 9q9 0 16 -10t10 -28l-2 -13l-47 5z" />
    <glyph glyph-name="ordmasculine" unicode="&#x4e9;" horiz-adv-x="312" 
d="M68 10q3 -5 16 -11l25 -3q36 0 66 21l42 40l12 15l11 12l2 5l4 8l20 32q9 18 9 45q0 25 -7 45q-17 24 -45 24q-20 0 -43 -13q-3 3 1 12l6 12q-1 2 -2.5 3.5l-2.5 2.5l-21 2h-6l-5 -2l-64 -65q-7 -4 -42 -37l-46 -45v-13l2 -15v-17l7 6l21 18q12 12 21 12l-4 -26l-3 -32
q0 -16 5.5 -24.5t20.5 -11.5zM238 21l13 6l30 20l26 18q17 12 17 29q-6 20 -12 23l-10 -7l-13 -12q-6 -14 -19 -24l-16 -15l-14 -16l-7 -16q2 -4 3 -5t2 -1zM206 102l-11 -15l-9 -9l-18 -14q-22 -19 -40 -19q-19 0 -19 31q0 10 7 27l4 9zM132 134q5 3 6 5l9 12l22 14
q11 6 24 9q9 0 16 -10t10 -28l-2 -13l-47 5z" />
    <glyph glyph-name="ordmasculine" unicode="&#x454;" horiz-adv-x="312" 
d="M68 10q3 -5 16 -11l25 -3q36 0 66 21l42 40l12 15l11 12l2 5l4 8l20 32q9 18 9 45q0 25 -7 45q-17 24 -45 24q-20 0 -43 -13q-3 3 1 12l6 12q-1 2 -2.5 3.5l-2.5 2.5l-21 2h-6l-5 -2l-64 -65q-7 -4 -42 -37l-46 -45v-13l2 -15v-17l7 6l21 18q12 12 21 12l-4 -26l-3 -32
q0 -16 5.5 -24.5t20.5 -11.5zM238 21l13 6l30 20l26 18q17 12 17 29q-6 20 -12 23l-10 -7l-13 -12q-6 -14 -19 -24l-16 -15l-14 -16l-7 -16q2 -4 3 -5t2 -1zM206 102l-11 -15l-9 -9l-18 -14q-22 -19 -40 -19q-19 0 -19 31q0 10 7 27l4 9zM132 134q5 3 6 5l9 12l22 14
q11 6 24 9q9 0 16 -10t10 -28l-2 -13l-47 5z" />
    <glyph glyph-name="guillemotright" unicode="&#xbb;" horiz-adv-x="307" 
d="M143 268l-27 -26q-9 -8 -20 -17.5t-21 -15.5q-3 -7 -31 -33q-15 -12 -18 -24q-7 -11 -7 -26q0 -13 9 -37l13 -32l17 -23l13 -19q3 -3 14 -4l15 1l17 7q11 6 10 14q-3 14 -17 30l-14 23q-11 19 -13 36q0 18 17 41l35 44l18 13l23 20q21 11 21 23l-3 7l-9 6l-11 2
q-7 0 -15 -4zM266 266l-28 -27l-42 -34q-3 -9 -24 -27q-19 -14 -25 -30q-6 -9 -6 -27q0 -27 16.5 -58.5t36.5 -48.5q3 -6 16 -7q20 0 34 10q6 6 4 10q-3 11 -24 42q-19 33 -19 52q0 14 8 25q3 10 19 27l22 30q13 5 21 13l22 20q28 15 20 30l-10 7l-10 2l-16 -3z" />
    <glyph glyph-name="questiondown" unicode="&#xbf;" horiz-adv-x="280" 
d="M180 -201q-7 -25 -25 -25q-21 0 -21 27l1 10q0 23 4 59q1 9 6 49q21 138 21 177l-8 -4q-2 -4 -2 -6l-21 -22q-14 -13 -26 -23q-27 -36 -52 -36l-19 4q-9 6 -9 18l-1 154l-3 11l-2 8l-21 -17q-15 -16 -24 -20l-2 5l3 21l-1 20l17 18l36 35l33 35q17 18 27 20
q13 0 21.5 -5.5t6.5 -20.5l-28 -91q0 -15 9 -59.5t41 -15.5t66 87q28 49 55 110l12 14l6 6l5 2q13 -3 13 -33l-4 -19l-4 -14l-10 -25l-4 -23q-14 -14 -23 -47l-16 -55l-36 -136q-13 -46 -19 -86q6 5 15 40l10 31l30 90q23 61 40 87q9 -62 0 -89l-18 -44l-13 -27
q-5 -19 -7 -25.5t-6 -16.5l-16 -42q-5 -18 -9 -32q-8 -26 -14 -38q0 -16 -6 -28z" />
    <glyph glyph-name="questiondown" unicode="&#x4af;" horiz-adv-x="280" 
d="M180 -201q-7 -25 -25 -25q-21 0 -21 27l1 10q0 23 4 59q1 9 6 49q21 138 21 177l-8 -4q-2 -4 -2 -6l-21 -22q-14 -13 -26 -23q-27 -36 -52 -36l-19 4q-9 6 -9 18l-1 154l-3 11l-2 8l-21 -17q-15 -16 -24 -20l-2 5l3 21l-1 20l17 18l36 35l33 35q17 18 27 20
q13 0 21.5 -5.5t6.5 -20.5l-28 -91q0 -15 9 -59.5t41 -15.5t66 87q28 49 55 110l12 14l6 6l5 2q13 -3 13 -33l-4 -19l-4 -14l-10 -25l-4 -23q-14 -14 -23 -47l-16 -55l-36 -136q-13 -46 -19 -86q6 5 15 40l10 31l30 90q23 61 40 87q9 -62 0 -89l-18 -44l-13 -27
q-5 -19 -7 -25.5t-6 -16.5l-16 -42q-5 -18 -9 -32q-8 -26 -14 -38q0 -16 -6 -28z" />
    <glyph glyph-name="questiondown" unicode="&#x457;" horiz-adv-x="280" 
d="M180 -201q-7 -25 -25 -25q-21 0 -21 27l1 10q0 23 4 59q1 9 6 49q21 138 21 177l-8 -4q-2 -4 -2 -6l-21 -22q-14 -13 -26 -23q-27 -36 -52 -36l-19 4q-9 6 -9 18l-1 154l-3 11l-2 8l-21 -17q-15 -16 -24 -20l-2 5l3 21l-1 20l17 18l36 35l33 35q17 18 27 20
q13 0 21.5 -5.5t6.5 -20.5l-28 -91q0 -15 9 -59.5t41 -15.5t66 87q28 49 55 110l12 14l6 6l5 2q13 -3 13 -33l-4 -19l-4 -14l-10 -25l-4 -23q-14 -14 -23 -47l-16 -55l-36 -136q-13 -46 -19 -86q6 5 15 40l10 31l30 90q23 61 40 87q9 -62 0 -89l-18 -44l-13 -27
q-5 -19 -7 -25.5t-6 -16.5l-16 -42q-5 -18 -9 -32q-8 -26 -14 -38q0 -16 -6 -28z" />
    <glyph glyph-name="Agrave" unicode="&#xc0;" horiz-adv-x="367" 
d="M41 -43l12 23q8 19 8 41l4 7l5 13l10 39l19 37l8 28q19 0 27 2l31 12l56 25h12q7 0 17 2l27 7l1 -32l1 -44q3 -8 3 -19l-3 -24l1 -25l-1 -32v-12q0 -7 -2 -17q0 -9 8 -10q9 0 19.5 10t11.5 24l8 38l4 44l7 53l5 62q14 7 17 22q0 9 -13 19l1 28l1 31q0 33 -8 41l2 18v15
q0 41 -8 62q-3 18 -27 29q-21 8 -32 24l4 16q12 29 12 35q0 7 -7 11l-11 3q-6 0 -23 -9l-33 -21q0 -8 -4 -13q-5 -11 -18 -14l-13 -4q-9 -2 -16 -14l-2 -6v-4l6 -11q3 -3 0 -10q-14 -11 -39 -83l-33 -104l-13 -26l-11 -31q-18 -3 -32 -15l-17 -36l2 -13v-12q0 -14 20 -14
l-9 -32q-9 -24 -9 -40l-6 -14l-3 -19l-8 -23l-4 -25q0 -21 14 -21q9 0 21 8zM277 234l-26 -1q-6 0 -15 -6l-49 -3l-39 -3q-9 0 -11 2q0 19 17 49l12 26l8 22l20 36l11 31l12 16l12 7q12 0 27 -15l23 -34l-3 -25l1 -21q2 -9 6 -12q-1 -3 -1 -4q-3 -9 -4 -13l3 -20v-13l-1 -15
z" />
    <glyph glyph-name="Agrave" unicode="&#x410;" horiz-adv-x="367" 
d="M41 -43l12 23q8 19 8 41l4 7l5 13l10 39l19 37l8 28q19 0 27 2l31 12l56 25h12q7 0 17 2l27 7l1 -32l1 -44q3 -8 3 -19l-3 -24l1 -25l-1 -32v-12q0 -7 -2 -17q0 -9 8 -10q9 0 19.5 10t11.5 24l8 38l4 44l7 53l5 62q14 7 17 22q0 9 -13 19l1 28l1 31q0 33 -8 41l2 18v15
q0 41 -8 62q-3 18 -27 29q-21 8 -32 24l4 16q12 29 12 35q0 7 -7 11l-11 3q-6 0 -23 -9l-33 -21q0 -8 -4 -13q-5 -11 -18 -14l-13 -4q-9 -2 -16 -14l-2 -6v-4l6 -11q3 -3 0 -10q-14 -11 -39 -83l-33 -104l-13 -26l-11 -31q-18 -3 -32 -15l-17 -36l2 -13v-12q0 -14 20 -14
l-9 -32q-9 -24 -9 -40l-6 -14l-3 -19l-8 -23l-4 -25q0 -21 14 -21q9 0 21 8zM277 234l-26 -1q-6 0 -15 -6l-49 -3l-39 -3q-9 0 -11 2q0 19 17 49l12 26l8 22l20 36l11 31l12 16l12 7q12 0 27 -15l23 -34l-3 -25l1 -21q2 -9 6 -12q-1 -3 -1 -4q-3 -9 -4 -13l3 -20v-13l-1 -15
z" />
    <glyph glyph-name="Aacute" unicode="&#xc1;" horiz-adv-x="334" 
d="M43 529q22 8 95 22l63 8l61 3q55 0 78 -10l1 -21q0 -16 2 -22q0 -22 -16 -26q-16 5 -37 8t-46 3l-55 -3l-41 -4q-3 -6 -7.5 -20t-9.5 -32l-10 -48l-6 -33l-6 -26q39 -12 62 -26l28 -15q14 -6 31 -18.5t28 -22.5t21 -23q30 -38 30 -79q0 -25 -17 -53q-6 -10 -12.5 -18.5
t-16.5 -18.5q-17 -16 -43 -30q-24 -11 -50 -19q-47 -12 -72 -12l-29 3q-26 3 -40 18q-3 4 -7 18t-4 34l6 85q6 74 19 141l24 140q2 5 4 8q6 11 14 23l10 19l-26 -3l-23 -7l-4 -1l-6 16l-3 19q0 14 10 23zM91 204q-9 -51 -9 -96q0 -44 6 -58q7 -10 27 -10h17q12 3 18 4
q15 4 35 16q48 27 64 71q0 33 -41 71q-37 34 -71 45q-11 6 -17 13q-2 7 -7 12l-12 10z" />
    <glyph glyph-name="Aacute" unicode="&#x411;" horiz-adv-x="334" 
d="M43 529q22 8 95 22l63 8l61 3q55 0 78 -10l1 -21q0 -16 2 -22q0 -22 -16 -26q-16 5 -37 8t-46 3l-55 -3l-41 -4q-3 -6 -7.5 -20t-9.5 -32l-10 -48l-6 -33l-6 -26q39 -12 62 -26l28 -15q14 -6 31 -18.5t28 -22.5t21 -23q30 -38 30 -79q0 -25 -17 -53q-6 -10 -12.5 -18.5
t-16.5 -18.5q-17 -16 -43 -30q-24 -11 -50 -19q-47 -12 -72 -12l-29 3q-26 3 -40 18q-3 4 -7 18t-4 34l6 85q6 74 19 141l24 140q2 5 4 8q6 11 14 23l10 19l-26 -3l-23 -7l-4 -1l-6 16l-3 19q0 14 10 23zM91 204q-9 -51 -9 -96q0 -44 6 -58q7 -10 27 -10h17q12 3 18 4
q15 4 35 16q48 27 64 71q0 33 -41 71q-37 34 -71 45q-11 6 -17 13q-2 7 -7 12l-12 10z" />
    <glyph glyph-name="Acircumflex" unicode="&#xc2;" horiz-adv-x="385" 
d="M61 -45l4 -8l8 -4q3 3 14 4q11 0 15 -4l4 18l4 18l13 -1q21 0 69 12q55 15 80 30q41 15 52 22q37 22 37 50q0 13 -7 27l-9 15l-17 18q-18 15 -110 49q-68 24 -61 47q7 6 93 53q60 30 82 64q29 18 42 50.5t13 64.5l-16 20q-10 11 -21 14l-30 12q-12 3 -17 4t-18 1l-16 4
l-19 1l-23 -1l-68 -7l-50 -7q-85 -17 -85 -56q0 -10 2 -14l70 8l15 1h10l4 -1q-1 -5 -2 -6l-6 -8l-11 -15q-20 -6 -26.5 -77.5t-10.5 -88.5l-41 -24l-1 -7v-4q0 -10 5 -18q22 -6 27.5 -14t5.5 -29l-1 -35v-42v-37l3 -33l-18 -3q-7 0 -35 -34q9 -29 47 -29zM194 154
q18 -4 31 -9t28 -14q27 -15 27 -24q0 -6 -12 -17l-37 -16l-19 -9l-35 -16l-35 -8q-27 -5 -30 -8q0 27 7 75l6 45q3 17 8 25l5 -1q3 -1 5.5 -2t8.5 -5t19 -8.5t23 -7.5zM274 373q-15 -12 -67 -44q-37 -23 -54 -26l-3 21q0 15 6 33t12 24q-4 8 -7 27q0 16 5.5 31t15.5 26
q72 0 97.5 -11t25.5 -30q0 -13 -13 -30z" />
    <glyph glyph-name="Acircumflex" unicode="&#x412;" horiz-adv-x="385" 
d="M61 -45l4 -8l8 -4q3 3 14 4q11 0 15 -4l4 18l4 18l13 -1q21 0 69 12q55 15 80 30q41 15 52 22q37 22 37 50q0 13 -7 27l-9 15l-17 18q-18 15 -110 49q-68 24 -61 47q7 6 93 53q60 30 82 64q29 18 42 50.5t13 64.5l-16 20q-10 11 -21 14l-30 12q-12 3 -17 4t-18 1l-16 4
l-19 1l-23 -1l-68 -7l-50 -7q-85 -17 -85 -56q0 -10 2 -14l70 8l15 1h10l4 -1q-1 -5 -2 -6l-6 -8l-11 -15q-20 -6 -26.5 -77.5t-10.5 -88.5l-41 -24l-1 -7v-4q0 -10 5 -18q22 -6 27.5 -14t5.5 -29l-1 -35v-42v-37l3 -33l-18 -3q-7 0 -35 -34q9 -29 47 -29zM194 154
q18 -4 31 -9t28 -14q27 -15 27 -24q0 -6 -12 -17l-37 -16l-19 -9l-35 -16l-35 -8q-27 -5 -30 -8q0 27 7 75l6 45q3 17 8 25l5 -1q3 -1 5.5 -2t8.5 -5t19 -8.5t23 -7.5zM274 373q-15 -12 -67 -44q-37 -23 -54 -26l-3 21q0 15 6 33t12 24q-4 8 -7 27q0 16 5.5 31t15.5 26
q72 0 97.5 -11t25.5 -30q0 -13 -13 -30z" />
    <glyph glyph-name="Atilde" unicode="&#xc3;" horiz-adv-x="339" 
d="M99 525q-24 -6 -24 -42l1 -11v-16l1 -10q0 -19 -1 -29t-6 -39l-12 -79l1 -55v-19l2 -22v-18v-13l-2 -14q0 -14 -1.5 -20t-6.5 -17q0 -20 -10.5 -43t-18.5 -25l-12 -29l-9 -26l15 -15l13 -1l15 7l19 5q8 7 23 50l25 85l10 72q3 28 11 44v17.5t2 19.5l9 51l7 47l4 42l-3 5
q-4 8 -11 15l-16 21l20 5l44 2l83 -3l64 -3h10l2 2l2 19l2 27q0 18 -8 23l-29 10h-19l-134 -7q-50 0 -62 -13z" />
    <glyph glyph-name="Atilde" unicode="&#x413;" horiz-adv-x="339" 
d="M99 525q-24 -6 -24 -42l1 -11v-16l1 -10q0 -19 -1 -29t-6 -39l-12 -79l1 -55v-19l2 -22v-18v-13l-2 -14q0 -14 -1.5 -20t-6.5 -17q0 -20 -10.5 -43t-18.5 -25l-12 -29l-9 -26l15 -15l13 -1l15 7l19 5q8 7 23 50l25 85l10 72q3 28 11 44v17.5t2 19.5l9 51l7 47l4 42l-3 5
q-4 8 -11 15l-16 21l20 5l44 2l83 -3l64 -3h10l2 2l2 19l2 27q0 18 -8 23l-29 10h-19l-134 -7q-50 0 -62 -13z" />
    <glyph glyph-name="Adieresis" unicode="&#xc4;" horiz-adv-x="366" 
d="M108 438l2 -6q-11 0 -21 -13l-18 -21q-9 -3 -16 -43l-10 -80v-21l-12 -91l-9 -124v-11l-2 -20q2 -5 9 -8q9 0 22 22.5t18 41.5l60 291l8 40q3 19 12 25l15 -8l53 -29l6 -6q28 -28 45 -51.5t33 -59.5q0 -20 -6 -43l-9 -35l-14 -16q-21 -45 -57 -81q-22 -22 -76 -64
l-57 -23q-42 -18 -39 -43q3 -20 30 -20q12 0 29 4.5t30.5 10t21.5 11.5l44 29l49 32q23 15 23 33l-2 4l-8 -1l-14 -5q3 12 18 27l23 23q29 36 51 86.5t22 95.5q0 40 -15.5 73.5t-49.5 59.5l-49 33l-29 20l-47 25l-45 10l-21 2l-24 10l-25 5l-27 -4q-12 0 -12 -7q-2 -7 2 -20
q0 -22 2 -24l41 -23z" />
    <glyph glyph-name="Adieresis" unicode="&#x414;" horiz-adv-x="366" 
d="M108 438l2 -6q-11 0 -21 -13l-18 -21q-9 -3 -16 -43l-10 -80v-21l-12 -91l-9 -124v-11l-2 -20q2 -5 9 -8q9 0 22 22.5t18 41.5l60 291l8 40q3 19 12 25l15 -8l53 -29l6 -6q28 -28 45 -51.5t33 -59.5q0 -20 -6 -43l-9 -35l-14 -16q-21 -45 -57 -81q-22 -22 -76 -64
l-57 -23q-42 -18 -39 -43q3 -20 30 -20q12 0 29 4.5t30.5 10t21.5 11.5l44 29l49 32q23 15 23 33l-2 4l-8 -1l-14 -5q3 12 18 27l23 23q29 36 51 86.5t22 95.5q0 40 -15.5 73.5t-49.5 59.5l-49 33l-29 20l-47 25l-45 10l-21 2l-24 10l-25 5l-27 -4q-12 0 -12 -7q-2 -7 2 -20
q0 -22 2 -24l41 -23z" />
    <glyph glyph-name="Aring" unicode="&#xc5;" horiz-adv-x="327" 
d="M195 0q15 0 44 17.5t44 32.5t15 33q0 5 -7 8l-13 -5q-35 -20 -93 -31q-24 -4 -55.5 -7t-59.5 -3l-1 17l1 31l6 30l7 57q3 20 14 27t27 10q27 0 66 7l65 7q23 0 29 -2q14 3 14 35q0 16 -5 24q-3 9 -15 9l-32 1l-25 2q-26 0 -38 -4q-15 -3 -24 -11l-35 -22q-12 -9 -19 -9
q0 31 13 80l10 36l12 36q6 39 30.5 48t107.5 9q9 -14 33 -14q18 0 18 17l-2 11l7 24q0 15 -8 22q-6 8 -21 12l-27 3l-28 -1l-33 -3q-8 -1 -17.5 -4t-24 -8t-22.5 -16l-54 -45q-29 -29 -34 -49l-4 -24l-9 -37q-18 -99 -18 -117l-7 -47l-10 -76q0 -16 -5 -36l-4 -37
q0 -16 5.5 -25t20.5 -9l1 -8l-1 -12l19 -4l22 -1q60 0 120 21z" />
    <glyph glyph-name="Aring" unicode="&#x415;" horiz-adv-x="327" 
d="M195 0q15 0 44 17.5t44 32.5t15 33q0 5 -7 8l-13 -5q-35 -20 -93 -31q-24 -4 -55.5 -7t-59.5 -3l-1 17l1 31l6 30l7 57q3 20 14 27t27 10q27 0 66 7l65 7q23 0 29 -2q14 3 14 35q0 16 -5 24q-3 9 -15 9l-32 1l-25 2q-26 0 -38 -4q-15 -3 -24 -11l-35 -22q-12 -9 -19 -9
q0 31 13 80l10 36l12 36q6 39 30.5 48t107.5 9q9 -14 33 -14q18 0 18 17l-2 11l7 24q0 15 -8 22q-6 8 -21 12l-27 3l-28 -1l-33 -3q-8 -1 -17.5 -4t-24 -8t-22.5 -16l-54 -45q-29 -29 -34 -49l-4 -24l-9 -37q-18 -99 -18 -117l-7 -47l-10 -76q0 -16 -5 -36l-4 -37
q0 -16 5.5 -25t20.5 -9l1 -8l-1 -12l19 -4l22 -1q60 0 120 21z" />
    <glyph glyph-name="AE" unicode="&#xc6;" horiz-adv-x="918" 
d="M430 2l-5 37l-2 37l1 36v25q3 12 4 17h-30l-32 4q-31 5 -38 8l-39 -78l-21 -37q-24 -34 -54 -56q-11 -6 -29 -12.5t-40 -13.5l-33 -4q-41 0 -71 31q-27 30 -27 89l-1 19v14q0 15 2 23.5t10 24.5q3 9 11 10q2 -1 5 -3t5 -6l2 -17q0 -73 11 -95q6 -13 35 -20l24 -2
q44 0 82 33q16 17 36 52l33 61q-14 0 -29 5l-24 8l-18 8l7 23q9 33 25 30q10 0 40 -13q14 -6 22 -6l15 71l3 49q-6 43 -33.5 67t-63.5 24q-25 0 -52 -12q-21 -12 -41 -38l-4 64q30 29 67 45t65 16q68 0 107 -64q12 -22 18 -47l7 -42q0 -30 -12 -71l-20 -66l12 -4q9 0 16 -4
l22 -3q12 -3 31 -3l4 23l3 27q5 10 5 26q0 14 -2.5 19t-5 6.5t-3.5 2.5l-2 18q0 20 6 31l-4 10l21 84q18 53 55 53q17 10 30 13q14 0 14 -23q0 -21 -5 -36l-10 -42l-16 -72l-5 -36l-18 -115l64 -3q3 34 16 73l15 40q4 9 10 21t13 23l22 36q18 24 34 33q6 20 59.5 54t92.5 34
l16 1q70 0 70 -52q10 -33 10 -63q0 -18 -2 -21q0 -15 -11 -47l-14 -43q0 -36 -21 -36q-12 0 -17 2l-25 7v45q0 22 2.5 34.5t15.5 29.5q8 11 12 23l4 20q0 18 -19 27.5t-40 9.5q-37 0 -59 -15.5t-52 -56t-53 -104.5v-18l-5 -22q0 -10 -2 -16q0 -9 -5 -19l52 -2q6 0 7 -7
l-3 -12l-6 -11q-5 -15 -17 -15l-32 2q2 -15 4.5 -23t9.5 -24l18 -49l27 -23q25 -19 42 -22l26 -4q23 0 43 7l20 8l47 24q0 9 4 10q8 0 8 -14q0 -6 -6 -15l-20 -20l-15 -14l-22 -9l-50 -22l-19 -4l-20 -1l-21 1l-22 6l-43 13q-36 14 -60 67t-24 103l-21 -1h-21h-12l-14 2
l-3 -32l-1 -34l1 -37l6 -40q0 -8 -9 -14t-16 -16l-15 -3q-16 0 -20 25z" />
    <glyph glyph-name="AE" unicode="&#x416;" horiz-adv-x="918" 
d="M430 2l-5 37l-2 37l1 36v25q3 12 4 17h-30l-32 4q-31 5 -38 8l-39 -78l-21 -37q-24 -34 -54 -56q-11 -6 -29 -12.5t-40 -13.5l-33 -4q-41 0 -71 31q-27 30 -27 89l-1 19v14q0 15 2 23.5t10 24.5q3 9 11 10q2 -1 5 -3t5 -6l2 -17q0 -73 11 -95q6 -13 35 -20l24 -2
q44 0 82 33q16 17 36 52l33 61q-14 0 -29 5l-24 8l-18 8l7 23q9 33 25 30q10 0 40 -13q14 -6 22 -6l15 71l3 49q-6 43 -33.5 67t-63.5 24q-25 0 -52 -12q-21 -12 -41 -38l-4 64q30 29 67 45t65 16q68 0 107 -64q12 -22 18 -47l7 -42q0 -30 -12 -71l-20 -66l12 -4q9 0 16 -4
l22 -3q12 -3 31 -3l4 23l3 27q5 10 5 26q0 14 -2.5 19t-5 6.5t-3.5 2.5l-2 18q0 20 6 31l-4 10l21 84q18 53 55 53q17 10 30 13q14 0 14 -23q0 -21 -5 -36l-10 -42l-16 -72l-5 -36l-18 -115l64 -3q3 34 16 73l15 40q4 9 10 21t13 23l22 36q18 24 34 33q6 20 59.5 54t92.5 34
l16 1q70 0 70 -52q10 -33 10 -63q0 -18 -2 -21q0 -15 -11 -47l-14 -43q0 -36 -21 -36q-12 0 -17 2l-25 7v45q0 22 2.5 34.5t15.5 29.5q8 11 12 23l4 20q0 18 -19 27.5t-40 9.5q-37 0 -59 -15.5t-52 -56t-53 -104.5v-18l-5 -22q0 -10 -2 -16q0 -9 -5 -19l52 -2q6 0 7 -7
l-3 -12l-6 -11q-5 -15 -17 -15l-32 2q2 -15 4.5 -23t9.5 -24l18 -49l27 -23q25 -19 42 -22l26 -4q23 0 43 7l20 8l47 24q0 9 4 10q8 0 8 -14q0 -6 -6 -15l-20 -20l-15 -14l-22 -9l-50 -22l-19 -4l-20 -1l-21 1l-22 6l-43 13q-36 14 -60 67t-24 103l-21 -1h-21h-12l-14 2
l-3 -32l-1 -34l1 -37l6 -40q0 -8 -9 -14t-16 -16l-15 -3q-16 0 -20 25z" />
    <glyph glyph-name="Ccedilla" unicode="&#xc7;" horiz-adv-x="319" 
d="M39 -39q42 0 84 18l123 72q62 33 62 89l-1 12q-9 38 -63 65q-63 30 -72 39l28 45q21 33 29 37q4 14 47 75l33 52q3 29 -20 46q-21 18 -64 18q-48 0 -92 -6t-59 -18q-8 -8 -22 -34q-5 -9 -9 -21.5t-4 -19.5q0 -17 16 -20l42 14l18 5l24 6l41 4q28 0 36 -4q3 -1 6 -5
q0 -1 1 -2q-4 -12 -14.5 -29.5t-32.5 -48.5q-39 -56 -64 -84q-17 -20 -17 -37q0 -24 49 -45l85 -32q6 -3 7 -8q0 -19 -111 -85q-51 -30 -80 -43l-21 -17q-18 -15 -19 -25q0 -13 34 -13z" />
    <glyph glyph-name="Ccedilla" unicode="&#x417;" horiz-adv-x="319" 
d="M39 -39q42 0 84 18l123 72q62 33 62 89l-1 12q-9 38 -63 65q-63 30 -72 39l28 45q21 33 29 37q4 14 47 75l33 52q3 29 -20 46q-21 18 -64 18q-48 0 -92 -6t-59 -18q-8 -8 -22 -34q-5 -9 -9 -21.5t-4 -19.5q0 -17 16 -20l42 14l18 5l24 6l41 4q28 0 36 -4q3 -1 6 -5
q0 -1 1 -2q-4 -12 -14.5 -29.5t-32.5 -48.5q-39 -56 -64 -84q-17 -20 -17 -37q0 -24 49 -45l85 -32q6 -3 7 -8q0 -19 -111 -85q-51 -30 -80 -43l-21 -17q-18 -15 -19 -25q0 -13 34 -13z" />
    <glyph glyph-name="Egrave" unicode="&#xc8;" horiz-adv-x="414" 
d="M219 200q0 13 27 60t38 54q6 0 15 29t19 33l5 -23q0 -22 -12 -61l-9 -26q-3 -13 -14 -32q0 -22 -10 -75q-5 -31 -6 -35q-5 -24 -11 -35v-17v-13q-2 -9 -2 -13l-7 -44l-5 -36l-2 -33l15 -3l15 3q6 15 10 18.5t27 88.5l23 121q6 42 24 69l3 27l2 18l10 34l11 48
q4 21 4.5 35.5t0.5 22.5q12 62 12 90q0 31 -14 31q-10 0 -41 -31l-15 -22q-7 -7 -14 -19l-17 -22l-27 -39l-32 -51q-11 -5 -74.5 -133t-70.5 -132l-2 22l4 39l4 57l3 50l14 109l10 51l10 59q6 15 6 25q0 24 -26 24q-28 0 -50 -22l-4 -25l-4 -45l-20 -168l-11 -61l1 -13
l-1 -23q0 -12 5 -22l-4 -21l-1 -29l1 -44v-18l2 -20q0 -10 9 -22q10 -10 26 -10q10 0 20 5.5t21 19.5l32 56q0 10 22 36q10 13 14 15q-6 3 6 26q32 52 35 62z" />
    <glyph glyph-name="Egrave" unicode="&#x418;" horiz-adv-x="414" 
d="M219 200q0 13 27 60t38 54q6 0 15 29t19 33l5 -23q0 -22 -12 -61l-9 -26q-3 -13 -14 -32q0 -22 -10 -75q-5 -31 -6 -35q-5 -24 -11 -35v-17v-13q-2 -9 -2 -13l-7 -44l-5 -36l-2 -33l15 -3l15 3q6 15 10 18.5t27 88.5l23 121q6 42 24 69l3 27l2 18l10 34l11 48
q4 21 4.5 35.5t0.5 22.5q12 62 12 90q0 31 -14 31q-10 0 -41 -31l-15 -22q-7 -7 -14 -19l-17 -22l-27 -39l-32 -51q-11 -5 -74.5 -133t-70.5 -132l-2 22l4 39l4 57l3 50l14 109l10 51l10 59q6 15 6 25q0 24 -26 24q-28 0 -50 -22l-4 -25l-4 -45l-20 -168l-11 -61l1 -13
l-1 -23q0 -12 5 -22l-4 -21l-1 -29l1 -44v-18l2 -20q0 -10 9 -22q10 -10 26 -10q10 0 20 5.5t21 19.5l32 56q0 10 22 36q10 13 14 15q-6 3 6 26q32 52 35 62z" />
    <glyph glyph-name="Eacute" unicode="&#xc9;" horiz-adv-x="418" 
d="M234 200q0 13 27 60t38 54q6 0 15 29t19 33l5 -23q0 -22 -12 -61l-9 -26q-3 -13 -14 -32q0 -22 -10 -75q-5 -31 -6 -35q-5 -24 -11 -35v-17v-13q-2 -9 -2 -13l-7 -44l-5 -36l-2 -33l15 -3l15 3q6 15 10 18.5t27 88.5l23 121q6 42 24 69l3 27l2 18l10 34l11 48
q4 21 4.5 35.5t0.5 22.5q12 62 12 90q0 31 -14 31q-10 0 -41 -31l-15 -22q-7 -7 -14 -19l-17 -22l-27 -39l-32 -51q-11 -5 -74.5 -133t-70.5 -132l-2 22l4 39l4 57l3 50l14 109l10 51l10 59q6 15 6 25q0 24 -26 24q-28 0 -50 -22l-4 -25l-4 -45l-20 -168l-11 -61l1 -13
l-1 -23q0 -12 5 -22l-4 -21l-1 -29l1 -44v-18l2 -20q0 -10 9 -22q10 -10 26 -10q10 0 20 5.5t21 19.5l32 56q0 10 22 36q10 13 14 15q-6 3 6 26q32 52 35 62zM240 604q-12 -8 -43 -22q-27 -9 -34 -17l2 -5l5 -5l11 -5l47 15q20 6 31 16q5 0 32 15l32 16l10 19l4 14
q0 7 -2 10q-18 18 -35 12q-12 -21 -26 -35q-6 -9 -34 -28z" />
    <glyph glyph-name="Eacute" unicode="&#x419;" horiz-adv-x="418" 
d="M234 200q0 13 27 60t38 54q6 0 15 29t19 33l5 -23q0 -22 -12 -61l-9 -26q-3 -13 -14 -32q0 -22 -10 -75q-5 -31 -6 -35q-5 -24 -11 -35v-17v-13q-2 -9 -2 -13l-7 -44l-5 -36l-2 -33l15 -3l15 3q6 15 10 18.5t27 88.5l23 121q6 42 24 69l3 27l2 18l10 34l11 48
q4 21 4.5 35.5t0.5 22.5q12 62 12 90q0 31 -14 31q-10 0 -41 -31l-15 -22q-7 -7 -14 -19l-17 -22l-27 -39l-32 -51q-11 -5 -74.5 -133t-70.5 -132l-2 22l4 39l4 57l3 50l14 109l10 51l10 59q6 15 6 25q0 24 -26 24q-28 0 -50 -22l-4 -25l-4 -45l-20 -168l-11 -61l1 -13
l-1 -23q0 -12 5 -22l-4 -21l-1 -29l1 -44v-18l2 -20q0 -10 9 -22q10 -10 26 -10q10 0 20 5.5t21 19.5l32 56q0 10 22 36q10 13 14 15q-6 3 6 26q32 52 35 62zM240 604q-12 -8 -43 -22q-27 -9 -34 -17l2 -5l5 -5l11 -5l47 15q20 6 31 16q5 0 32 15l32 16l10 19l4 14
q0 7 -2 10q-18 18 -35 12q-12 -21 -26 -35q-6 -9 -34 -28z" />
    <glyph glyph-name="Ecircumflex" unicode="&#xca;" horiz-adv-x="367" 
d="M186 41q28 -46 61 -46q20 0 52 21l31 39q14 3 20.5 12.5t9.5 22.5q0 12 -10 12q-6 0 -20 -11l-23 -18q-16 -11 -34 -14q-20 0 -33 25q-13 16 -32 55l-46 95q0 12 11 22l21 17l39 45l39 43l31 40q25 31 39 58q7 3 17 28l6 23l2 29q-3 9 -10 10l-13 -4q-19 0 -49 -18
q-16 -6 -21 -14q-6 -6 -6 -11q1 -5 2 -6l6 -7l5 -7q-3 -18 -30 -59t-50 -69l-47 -57q-30 -36 -60 -57q0 32 15 93.5t18 82.5l8 27l5 28q0 13 -4 20.5t-17 14.5q-27 -6 -44.5 -31t-17.5 -53l-17 -138l-5 -59q2 -7 -1.5 -15t-3.5 -21l-10 -78l-7 -81l3 -28l12 -2l13 -1
q15 0 22 11l-3 35l1 38l6 37q5 27 19 69q7 -5 33 -53l18 -25l21 -31z" />
    <glyph glyph-name="Ecircumflex" unicode="&#x41a;" horiz-adv-x="367" 
d="M186 41q28 -46 61 -46q20 0 52 21l31 39q14 3 20.5 12.5t9.5 22.5q0 12 -10 12q-6 0 -20 -11l-23 -18q-16 -11 -34 -14q-20 0 -33 25q-13 16 -32 55l-46 95q0 12 11 22l21 17l39 45l39 43l31 40q25 31 39 58q7 3 17 28l6 23l2 29q-3 9 -10 10l-13 -4q-19 0 -49 -18
q-16 -6 -21 -14q-6 -6 -6 -11q1 -5 2 -6l6 -7l5 -7q-3 -18 -30 -59t-50 -69l-47 -57q-30 -36 -60 -57q0 32 15 93.5t18 82.5l8 27l5 28q0 13 -4 20.5t-17 14.5q-27 -6 -44.5 -31t-17.5 -53l-17 -138l-5 -59q2 -7 -1.5 -15t-3.5 -21l-10 -78l-7 -81l3 -28l12 -2l13 -1
q15 0 22 11l-3 35l1 38l6 37q5 27 19 69q7 -5 33 -53l18 -25l21 -31z" />
    <glyph glyph-name="Edieresis" unicode="&#xcb;" horiz-adv-x="344" 
d="M187 516l-4 -5l-13 -14q-16 -13 -16 -25q0 -7 4 -15q-28 -43 -66 -149l-55 -154q-20 -46 -20 -64q-4 -1 -14 -37l-7 -44q0 -24 13 -25l16 6q27 9 41 42q6 20 6 64l18 59q12 33 13 37q5 13 19 44l56 139q17 43 28 43q6 0 12 -29t14 -37l-1 -20q0 -12 7 -19l2 -31l2 -28
l5 -33l1 -40v-47q0 -25 4 -44l-7 -40l-4 -44q0 -27 7 -35q3 -9 13 -9l21 6l28 13l16 34q4 13 6 24.5t2 24.5q0 16 -6 40v17l1 19v14q0 10 -2 16q0 9 -7 10l-3 64q-3 23 -9 34v25l-5 28q-2 15 -8 23q0 15 -6 36q-3 19 -12 25l-7 35q0 8 -16 43q15 15 15 30q0 13 -8 18.5
t-22 5.5l-19 -3q-18 -6 -33 -28z" />
    <glyph glyph-name="Edieresis" unicode="&#x41b;" horiz-adv-x="344" 
d="M187 516l-4 -5l-13 -14q-16 -13 -16 -25q0 -7 4 -15q-28 -43 -66 -149l-55 -154q-20 -46 -20 -64q-4 -1 -14 -37l-7 -44q0 -24 13 -25l16 6q27 9 41 42q6 20 6 64l18 59q12 33 13 37q5 13 19 44l56 139q17 43 28 43q6 0 12 -29t14 -37l-1 -20q0 -12 7 -19l2 -31l2 -28
l5 -33l1 -40v-47q0 -25 4 -44l-7 -40l-4 -44q0 -27 7 -35q3 -9 13 -9l21 6l28 13l16 34q4 13 6 24.5t2 24.5q0 16 -6 40v17l1 19v14q0 10 -2 16q0 9 -7 10l-3 64q-3 23 -9 34v25l-5 28q-2 15 -8 23q0 15 -6 36q-3 19 -12 25l-7 35q0 8 -16 43q15 15 15 30q0 13 -8 18.5
t-22 5.5l-19 -3q-18 -6 -33 -28z" />
    <glyph glyph-name="Igrave" unicode="&#xcc;" horiz-adv-x="464" 
d="M53 2l8 23l2 32l5 35q3 34 5 36l17 108q6 42 14 43q6 -3 9 -9l16 -36q12 -15 27 -27q14 -8 31 -10q11 0 23.5 6t29.5 24q31 6 77 64l35 47l4 2l3 1l3 -8l-3 -20l-5 -33l-6 -46q-3 -23 -6 -29l-11 -71l-11 -78q0 -15 -2.5 -28.5t-6.5 -29.5q13 -3 24.5 14.5t25.5 20.5
l24 112l24 96l26 94l9 36l5 27l3 22l2 27q0 22 -3.5 34t-13.5 12q-8 0 -21 -14q-12 -2 -24.5 -16.5t-18.5 -32.5l-58 -80q-9 -6 -35 -35q-39 -45 -65 -45q-18 0 -35 17q-24 30 -34 80l-5 55l-2 62v26q0 34 -9 37l-13 -6q-11 -6 -21 -6l-16 -13l-21 -12q-6 -6 -12 -61l-4 -80
l-8 -55l-4 -58v-18l-4 -25l-10 -75q0 -12 3 -15q-4 -10 -10 -48l-2 -81l7 -4l19 6z" />
    <glyph glyph-name="Igrave" unicode="&#x41c;" horiz-adv-x="464" 
d="M53 2l8 23l2 32l5 35q3 34 5 36l17 108q6 42 14 43q6 -3 9 -9l16 -36q12 -15 27 -27q14 -8 31 -10q11 0 23.5 6t29.5 24q31 6 77 64l35 47l4 2l3 1l3 -8l-3 -20l-5 -33l-6 -46q-3 -23 -6 -29l-11 -71l-11 -78q0 -15 -2.5 -28.5t-6.5 -29.5q13 -3 24.5 14.5t25.5 20.5
l24 112l24 96l26 94l9 36l5 27l3 22l2 27q0 22 -3.5 34t-13.5 12q-8 0 -21 -14q-12 -2 -24.5 -16.5t-18.5 -32.5l-58 -80q-9 -6 -35 -35q-39 -45 -65 -45q-18 0 -35 17q-24 30 -34 80l-5 55l-2 62v26q0 34 -9 37l-13 -6q-11 -6 -21 -6l-16 -13l-21 -12q-6 -6 -12 -61l-4 -80
l-8 -55l-4 -58v-18l-4 -25l-10 -75q0 -12 3 -15q-4 -10 -10 -48l-2 -81l7 -4l19 6z" />
    <glyph glyph-name="Iacute" unicode="&#xcd;" horiz-adv-x="409" 
d="M86 150q0 13 9.5 24t21.5 19q14 0 19 2l22 8q18 10 60 16l61 6q0 -22 -10 -75q-5 -31 -6 -35q-5 -24 -11 -35v-17v-13q-2 -9 -2 -13l-7 -43l-5 -37l-2 -33l15 -3l15 3q6 15 10 18.5t27 88.5l23 121q6 42 24 69l3 27l2 18l10 34l11 48q4 21 4.5 35.5t0.5 22.5q12 62 12 90
q0 31 -14 31q-10 0 -41 -31l-15 -22q-7 -7 -14 -19l2 -16v-18v-20q0 -12 -2 -26q0 -12 -6 -41q-6 -45 -12 -57l-25 -6l-31 -2h-15l-13 2l-20 -4l-27 -2q-34 0 -45 -5q-17 -5 -17 14l4 28q9 42 9 53l10 51l10 59q6 15 6 25q0 24 -26 24q-28 0 -50 -22l-4 -25l-4 -45l-20 -168
q-3 -12 -15 -36l-14 -27q3 -15 12 -33l11 -23l-4 -31l3 -39l7 -57q0 -13 5 -20t17 -8q21 0 39 28l18 32l11 21q0 6 -4 7q-5 -1 -6 -2l-8 -6l-11 -11l-7 18l-2 34v26z" />
    <glyph glyph-name="Iacute" unicode="&#x41d;" horiz-adv-x="409" 
d="M86 150q0 13 9.5 24t21.5 19q14 0 19 2l22 8q18 10 60 16l61 6q0 -22 -10 -75q-5 -31 -6 -35q-5 -24 -11 -35v-17v-13q-2 -9 -2 -13l-7 -43l-5 -37l-2 -33l15 -3l15 3q6 15 10 18.5t27 88.5l23 121q6 42 24 69l3 27l2 18l10 34l11 48q4 21 4.5 35.5t0.5 22.5q12 62 12 90
q0 31 -14 31q-10 0 -41 -31l-15 -22q-7 -7 -14 -19l2 -16v-18v-20q0 -12 -2 -26q0 -12 -6 -41q-6 -45 -12 -57l-25 -6l-31 -2h-15l-13 2l-20 -4l-27 -2q-34 0 -45 -5q-17 -5 -17 14l4 28q9 42 9 53l10 51l10 59q6 15 6 25q0 24 -26 24q-28 0 -50 -22l-4 -25l-4 -45l-20 -168
q-3 -12 -15 -36l-14 -27q3 -15 12 -33l11 -23l-4 -31l3 -39l7 -57q0 -13 5 -20t17 -8q21 0 39 28l18 32l11 21q0 6 -4 7q-5 -1 -6 -2l-8 -6l-11 -11l-7 18l-2 34v26z" />
    <glyph glyph-name="Icircumflex" unicode="&#xce;" horiz-adv-x="404" 
d="M238 33q60 56 99 114q63 96 63 195q-6 59 -43.5 110.5t-96.5 63.5q-28 -6 -43.5 -16t-23.5 -21l-21 -12q-13 -8 -18 -16q-3 -9 -10 -9l-3 5l1 12q11 16 14 36q0 12 -14 15l-21 -16q-24 -42 -55 -113l-49 -117q-9 -9 -12 -27l-3 -30q0 -9 5 -9l15 10l9 11l2 -12l-3 -15
l-3 -16q-3 -33 -5 -36v-22q0 -59 21 -97.5t70 -38.5q18 0 45 9l49 17l14 13zM242 94l-29 -23l-17 -12q-21 -12 -41 -12q-21 0 -36 15q-12 15 -22 47q-8 35 -8 63q0 37 10 86l9 50l11 44q26 37 37 45q19 16 70 31q51 0 81 -46q27 -41 27 -102q0 -36 -10 -65t-26 -56.5
t-56 -64.5z" />
    <glyph glyph-name="Icircumflex" unicode="&#x41e;" horiz-adv-x="404" 
d="M238 33q60 56 99 114q63 96 63 195q-6 59 -43.5 110.5t-96.5 63.5q-28 -6 -43.5 -16t-23.5 -21l-21 -12q-13 -8 -18 -16q-3 -9 -10 -9l-3 5l1 12q11 16 14 36q0 12 -14 15l-21 -16q-24 -42 -55 -113l-49 -117q-9 -9 -12 -27l-3 -30q0 -9 5 -9l15 10l9 11l2 -12l-3 -15
l-3 -16q-3 -33 -5 -36v-22q0 -59 21 -97.5t70 -38.5q18 0 45 9l49 17l14 13zM242 94l-29 -23l-17 -12q-21 -12 -41 -12q-21 0 -36 15q-12 15 -22 47q-8 35 -8 63q0 37 10 86l9 50l11 44q26 37 37 45q19 16 70 31q51 0 81 -46q27 -41 27 -102q0 -36 -10 -65t-26 -56.5
t-56 -64.5z" />
    <glyph glyph-name="Idieresis" unicode="&#xcf;" horiz-adv-x="400" 
d="M86 150l23 125l8 63l3 62q-3 13 -11 21l-8 7h59q15 8 75 16l103 10q0 -9 -16 -22q-9 -6 -10 -13l-1 -19q0 -10 -4 -22l-11 -43l-8 -33l-9 -42l-10 -73q0 -20 -1 -28q-5 -20 -6 -30q-6 -42 -10 -49v-17v-13q-2 -9 -2 -13l-7 -43l-5 -37l-2 -33l15 -3l15 3q6 15 10 18.5
t27 88.5l23 121q6 42 24 69l3 27l2 18l10 34l11 48q4 21 4.5 35.5t0.5 22.5l5 24l3 24l20 -3q9 0 9 7l1 19l1 19q0 16 -3.5 21.5t-17.5 6.5l-26 3l-34 1h-31q-25 0 -36 -4l-57 -8l-55 -4l-37 2q-14 0 -38 -6l-17 -6l-13 -5q-7 -5 -14 -26q-3 -10 -5 -21t-3 -17q0 -21 8 -22
q9 0 12 2l-20 -159l-12 -63l1 -17v-20q0 -10 5 -19l-4 -31l3 -39l7 -57q0 -13 5 -20t17 -8q21 0 39 28l18 30q0 14 -8 17l-10 -6l-7 18l-2 34v26z" />
    <glyph glyph-name="Idieresis" unicode="&#x41f;" horiz-adv-x="400" 
d="M86 150l23 125l8 63l3 62q-3 13 -11 21l-8 7h59q15 8 75 16l103 10q0 -9 -16 -22q-9 -6 -10 -13l-1 -19q0 -10 -4 -22l-11 -43l-8 -33l-9 -42l-10 -73q0 -20 -1 -28q-5 -20 -6 -30q-6 -42 -10 -49v-17v-13q-2 -9 -2 -13l-7 -43l-5 -37l-2 -33l15 -3l15 3q6 15 10 18.5
t27 88.5l23 121q6 42 24 69l3 27l2 18l10 34l11 48q4 21 4.5 35.5t0.5 22.5l5 24l3 24l20 -3q9 0 9 7l1 19l1 19q0 16 -3.5 21.5t-17.5 6.5l-26 3l-34 1h-31q-25 0 -36 -4l-57 -8l-55 -4l-37 2q-14 0 -38 -6l-17 -6l-13 -5q-7 -5 -14 -26q-3 -10 -5 -21t-3 -17q0 -21 8 -22
q9 0 12 2l-20 -159l-12 -63l1 -17v-20q0 -10 5 -19l-4 -31l3 -39l7 -57q0 -13 5 -20t17 -8q21 0 39 28l18 30q0 14 -8 17l-10 -6l-7 18l-2 34v26z" />
    <glyph glyph-name="Eth" unicode="&#xd0;" horiz-adv-x="342" 
d="M49 -63q12 0 29 17l22 34q-5 2 -12.5 12t-7.5 35l3 29l5 28q114 23 178 73q69 54 69 131l-3 27l-4 21q-18 79 -102 151q-36 30 -63 43t-44 13l-13 7q-7 0 -24 -17q-16 -9 -26.5 -21t-10.5 -32l18 -28l17 -26l-49 -319l-19 -12q-9 -6 -9 -12q0 -9 26 -23l1 -11l-1 -35v-12
q0 -8 -2 -16v-27q3 -10 5.5 -17.5t16.5 -12.5zM262 246q-9 -36 -63 -69q-42 -24 -90 -36l-6 1l-7 3l7 46q5 42 12 57q6 3 7 7l1 15v11l18 61q9 36 15 45l-1 16q0 8 -2 11l-32 45l-10 11l15 -1q14 -5 28 -16q51 -37 79.5 -90.5t28.5 -116.5z" />
    <glyph glyph-name="Eth" unicode="&#x420;" horiz-adv-x="342" 
d="M49 -63q12 0 29 17l22 34q-5 2 -12.5 12t-7.5 35l3 29l5 28q114 23 178 73q69 54 69 131l-3 27l-4 21q-18 79 -102 151q-36 30 -63 43t-44 13l-13 7q-7 0 -24 -17q-16 -9 -26.5 -21t-10.5 -32l18 -28l17 -26l-49 -319l-19 -12q-9 -6 -9 -12q0 -9 26 -23l1 -11l-1 -35v-12
q0 -8 -2 -16v-27q3 -10 5.5 -17.5t16.5 -12.5zM262 246q-9 -36 -63 -69q-42 -24 -90 -36l-6 1l-7 3l7 46q5 42 12 57q6 3 7 7l1 15v11l18 61q9 36 15 45l-1 16q0 8 -2 11l-32 45l-10 11l15 -1q14 -5 28 -16q51 -37 79.5 -90.5t28.5 -116.5z" />
    <glyph glyph-name="Ntilde" unicode="&#xd1;" horiz-adv-x="369" 
d="M90 -18l45 -14q23 -6 41 -6l18 1q11 0 22 4q15 3 39 16l32 15l15 14l20 19q6 8 6 16q0 11 -8 14l-4 -10l-53 -25q-34 -14 -58 -14q-14 0 -25 4q-12 0 -32 14l-37 31l-16 46q-9 25 -14 43.5t-5 33.5l9 54l5 39q24 68 53 107q23 33 54 54l24 11l33 4q24 0 41.5 -9t17.5 -29
q0 -17 -16 -42q-10 -13 -26 -69l-8 -50l-3 -51l11 -3l16 -1q21 0 34 17q4 7 17 46q10 29 21 77l8 42l2 12v11q0 34 -10 61q0 24 -20 38t-52 14l-14 -1q-38 0 -90 -32t-62 -56q-15 -8 -34 -32l-22 -37q-33 -59 -49 -116q-4 -19 -7 -41.5t-3 -41.5q0 -16 1 -30.5t4.5 -32.5
t17.5 -49q24 -51 61 -66z" />
    <glyph glyph-name="Ntilde" unicode="&#x421;" horiz-adv-x="369" 
d="M90 -18l45 -14q23 -6 41 -6l18 1q11 0 22 4q15 3 39 16l32 15l15 14l20 19q6 8 6 16q0 11 -8 14l-4 -10l-53 -25q-34 -14 -58 -14q-14 0 -25 4q-12 0 -32 14l-37 31l-16 46q-9 25 -14 43.5t-5 33.5l9 54l5 39q24 68 53 107q23 33 54 54l24 11l33 4q24 0 41.5 -9t17.5 -29
q0 -17 -16 -42q-10 -13 -26 -69l-8 -50l-3 -51l11 -3l16 -1q21 0 34 17q4 7 17 46q10 29 21 77l8 42l2 12v11q0 34 -10 61q0 24 -20 38t-52 14l-14 -1q-38 0 -90 -32t-62 -56q-15 -8 -34 -32l-22 -37q-33 -59 -49 -116q-4 -19 -7 -41.5t-3 -41.5q0 -16 1 -30.5t4.5 -32.5
t17.5 -49q24 -51 61 -66z" />
    <glyph glyph-name="Ograve" unicode="&#xd2;" horiz-adv-x="298" 
d="M138 -23q4 5 11 9q9 3 12 10l3 41l1 72l10 53l10 67l19 85l16 102q0 14 -5 20l-24 27q3 9 27 9l16 -1l32 -6l20 -2l5 3l2 11l-1 11l1 26q0 12 -7 19l-23 4l-24 4h-6l-5 -2l-24 2l-39 -3l-38 -3l-20 2l-47 -6q-20 -3 -27 -19q-3 -3 -9 -20l-5 -27l-4 -17q0 -12 15 -12
l26 6l39 13l10 2l26 5q10 0 13 -9l-4 -44l-4 -54q-4 -9 -13 -98l-6 -64l-2 -33l1 -22l1 -25l-3 -13l-1 -13q0 -13 4 -21v-23q0 -20 2 -27q0 -21 3 -30t16 -9z" />
    <glyph glyph-name="Ograve" unicode="&#x422;" horiz-adv-x="298" 
d="M138 -23q4 5 11 9q9 3 12 10l3 41l1 72l10 53l10 67l19 85l16 102q0 14 -5 20l-24 27q3 9 27 9l16 -1l32 -6l20 -2l5 3l2 11l-1 11l1 26q0 12 -7 19l-23 4l-24 4h-6l-5 -2l-24 2l-39 -3l-38 -3l-20 2l-47 -6q-20 -3 -27 -19q-3 -3 -9 -20l-5 -27l-4 -17q0 -12 15 -12
l26 6l39 13l10 2l26 5q10 0 13 -9l-4 -44l-4 -54q-4 -9 -13 -98l-6 -64l-2 -33l1 -22l1 -25l-3 -13l-1 -13q0 -13 4 -21v-23q0 -20 2 -27q0 -21 3 -30t16 -9z" />
    <glyph glyph-name="Oacute" unicode="&#xd3;" horiz-adv-x="343" 
d="M85 57q-5 -8 -13 -34l-22 13q-24 12 -30 9t-12 -12.5t-8 -17.5q0 -5 18 -19l17 -11q8 -1 14 -1.5t16 -3.5l24 -1q18 -3 22 0q28 6 28 25l7 17l10 43l7 41q16 22 27 53l18 49l26 39l27 45l20 35l4 6l5 11l6 20q14 23 24 57l17 98q-5 11 -16 14q-12 0 -34 -35l-40 -69
l-25 -53l-18 -45l-37 -79q-15 -28 -23 -32q-6 7 -17 43l-13 64l-9 52l-3 37v12l5 34q0 23 -9 37q-11 12 -29 12q-14 0 -27.5 -7.5t-22.5 -22.5v-22l2 -24q3 -16 8 -18l-1 -17q0 -37 13 -89l19 -68l18 -37q18 -43 37 -53q0 -12 -4 -24l-10 -26q-6 -12 -9.5 -23t-6.5 -22z" />
    <glyph glyph-name="Oacute" unicode="&#x423;" horiz-adv-x="343" 
d="M85 57q-5 -8 -13 -34l-22 13q-24 12 -30 9t-12 -12.5t-8 -17.5q0 -5 18 -19l17 -11q8 -1 14 -1.5t16 -3.5l24 -1q18 -3 22 0q28 6 28 25l7 17l10 43l7 41q16 22 27 53l18 49l26 39l27 45l20 35l4 6l5 11l6 20q14 23 24 57l17 98q-5 11 -16 14q-12 0 -34 -35l-40 -69
l-25 -53l-18 -45l-37 -79q-15 -28 -23 -32q-6 7 -17 43l-13 64l-9 52l-3 37v12l5 34q0 23 -9 37q-11 12 -29 12q-14 0 -27.5 -7.5t-22.5 -22.5v-22l2 -24q3 -16 8 -18l-1 -17q0 -37 13 -89l19 -68l18 -37q18 -43 37 -53q0 -12 -4 -24l-10 -26q-6 -12 -9.5 -23t-6.5 -22z" />
    <glyph glyph-name="Ocircumflex" unicode="&#xd4;" horiz-adv-x="385" 
d="M219 119l-19 -8l-6 -43l-4 -13l-7 -18q-20 -84 -25 -87t-12 -20l-15 -3l-15 3l1 34l6 39l7 48l2 35l3 7l-23 -4h-18q-47 0 -69 24t-22 58q0 20 5 34l3 12q3 5 1 14q-6 16 17 63q27 56 73 102l21 10q11 0 14 -10q0 -10 -14 -21l3 -10q6 0 9 5.5t16 8.5l23 8l16 9v21l1 22
l-2 22l29 41q27 30 41 31q14 0 14 -32q0 -26 -12 -89v-6q45 -9 78 -39t42 -62l1 -13q0 -54 -64 -109q-27 -24 -99 -64zM223 156q39 21 57 39l25 35q4 8 7 18t3 20q0 26 -15.5 48.5t-43.5 32.5l-5 -27l-3 -12q-2 -11 -13 -38l-2 -22l-3 -23q-9 -13 -16 -38l-9 -43zM171 283
q3 5 14 70q-29 -5 -40 -11q-13 -5 -45 -31l-19 -53l-8 -29l-3 -27l1 -21l8 -21q6 -13 24 -24q19 -8 41 -8q15 71 15 103z" />
    <glyph glyph-name="Ocircumflex" unicode="&#x424;" horiz-adv-x="385" 
d="M219 119l-19 -8l-6 -43l-4 -13l-7 -18q-20 -84 -25 -87t-12 -20l-15 -3l-15 3l1 34l6 39l7 48l2 35l3 7l-23 -4h-18q-47 0 -69 24t-22 58q0 20 5 34l3 12q3 5 1 14q-6 16 17 63q27 56 73 102l21 10q11 0 14 -10q0 -10 -14 -21l3 -10q6 0 9 5.5t16 8.5l23 8l16 9v21l1 22
l-2 22l29 41q27 30 41 31q14 0 14 -32q0 -26 -12 -89v-6q45 -9 78 -39t42 -62l1 -13q0 -54 -64 -109q-27 -24 -99 -64zM223 156q39 21 57 39l25 35q4 8 7 18t3 20q0 26 -15.5 48.5t-43.5 32.5l-5 -27l-3 -12q-2 -11 -13 -38l-2 -22l-3 -23q-9 -13 -16 -38l-9 -43zM171 283
q3 5 14 70q-29 -5 -40 -11q-13 -5 -45 -31l-19 -53l-8 -29l-3 -27l1 -21l8 -21q6 -13 24 -24q19 -8 41 -8q15 71 15 103z" />
    <glyph glyph-name="Otilde" unicode="&#xd5;" horiz-adv-x="375" 
d="M32 10q-6 -3 -10 -17l-4 -26q0 -21 8 -22q2 -1 10.5 10t24.5 36q15 29 27 36l21 39l14 24l12 25l13 18q9 15 16 19l4 -2q4 -3 5 -5l17 -32l15 -28l8 -11l16 -17q5 -13 19 -27q20 -21 39 -24q14 0 20.5 1.5t7.5 13.5l-5 12l-13 16l-28 48l-28 55q-9 9 -18 30t-9 35l3 13
l78 99q90 111 90 191q-11 27 -23 27q-5 0 -20 -12l-40 -29q-27 -21 -36 -33q-8 -5 -11 -21q0 -18 21 -13q6 6 11 6l-3 -7l-9 -18l-33 -55q-2 -7 -23 -34l-16 -23l-13 -23q-2 3 -3 5q-5 9 -7 16l-6 26q-3 2 -17 55l-10 68q5 8 7 25q0 16 -4.5 27.5t-16.5 21.5q-3 14 -15 14
q-7 0 -14.5 -4t-19.5 -16l-19 -40q-6 -17 -6 -32t2 -20l10 -19q0 -15 5 -28l10 -29q0 -24 18 -71l33 -67q3 -12 -9 -31l-30 -45q-15 -32 -46 -81q-20 -34 -20 -50z" />
    <glyph glyph-name="Otilde" unicode="&#x425;" horiz-adv-x="375" 
d="M32 10q-6 -3 -10 -17l-4 -26q0 -21 8 -22q2 -1 10.5 10t24.5 36q15 29 27 36l21 39l14 24l12 25l13 18q9 15 16 19l4 -2q4 -3 5 -5l17 -32l15 -28l8 -11l16 -17q5 -13 19 -27q20 -21 39 -24q14 0 20.5 1.5t7.5 13.5l-5 12l-13 16l-28 48l-28 55q-9 9 -18 30t-9 35l3 13
l78 99q90 111 90 191q-11 27 -23 27q-5 0 -20 -12l-40 -29q-27 -21 -36 -33q-8 -5 -11 -21q0 -18 21 -13q6 6 11 6l-3 -7l-9 -18l-33 -55q-2 -7 -23 -34l-16 -23l-13 -23q-2 3 -3 5q-5 9 -7 16l-6 26q-3 2 -17 55l-10 68q5 8 7 25q0 16 -4.5 27.5t-16.5 21.5q-3 14 -15 14
q-7 0 -14.5 -4t-19.5 -16l-19 -40q-6 -17 -6 -32t2 -20l10 -19q0 -15 5 -28l10 -29q0 -24 18 -71l33 -67q3 -12 -9 -31l-30 -45q-15 -32 -46 -81q-20 -34 -20 -50z" />
    <glyph glyph-name="Odieresis" unicode="&#xd6;" horiz-adv-x="409" 
d="M308 462l29 41q27 30 41 31q14 0 14 -32q0 -26 -12 -89q0 -36 -6 -69q-2 -15 -7 -33t-13 -38l-2 -22l-3 -23q-15 -24 -24 -69l-11 -81l40 6l43 3q3 -3 3 -21q0 -26 -3.5 -53.5t-8.5 -34.5l-8 -24l-1 -10l-15 -26l-18 1q-8 2 -16 7q-5 3 7 55l7 39l-10 3q-6 -3 -32 -6
q-22 0 -36 -9l-43 -11l-29 -9l-54 -3l-109 -8l-21 1q-1 3 -1 4l-4 12l1 22q0 18 2 24v31l5 32q2 17 9 36l-1 13l1 20q0 16 2 22l5 30l8 38l10 67l10 100l4 38q0 24 4 32q18 21 50 21q26 0 26 -24q0 -9 -6 -24l-12 -68l-8 -42l-12 -61l-5 -57v-41l-4 -26l-15 -106v-26l95 5
l20 1q7 0 24 7l34 11l45 244l9 60l4 58v13z" />
    <glyph glyph-name="Odieresis" unicode="&#x426;" horiz-adv-x="409" 
d="M308 462l29 41q27 30 41 31q14 0 14 -32q0 -26 -12 -89q0 -36 -6 -69q-2 -15 -7 -33t-13 -38l-2 -22l-3 -23q-15 -24 -24 -69l-11 -81l40 6l43 3q3 -3 3 -21q0 -26 -3.5 -53.5t-8.5 -34.5l-8 -24l-1 -10l-15 -26l-18 1q-8 2 -16 7q-5 3 7 55l7 39l-10 3q-6 -3 -32 -6
q-22 0 -36 -9l-43 -11l-29 -9l-54 -3l-109 -8l-21 1q-1 3 -1 4l-4 12l1 22q0 18 2 24v31l5 32q2 17 9 36l-1 13l1 20q0 16 2 22l5 30l8 38l10 67l10 100l4 38q0 24 4 32q18 21 50 21q26 0 26 -24q0 -9 -6 -24l-12 -68l-8 -42l-12 -61l-5 -57v-41l-4 -26l-15 -106v-26l95 5
l20 1q7 0 24 7l34 11l45 244l9 60l4 58v13z" />
    <glyph glyph-name="multiply" unicode="&#xd7;" horiz-adv-x="400" 
d="M76 180l21 6l20 7q14 0 19 2l22 8q18 10 60 16l61 6q0 -22 -10 -75q-5 -31 -6 -35q-5 -24 -11 -35v-17v-13q-2 -9 -2 -13l-7 -43l-5 -37l-2 -33l15 -3l15 3q6 15 10 18.5t27 88.5l23 121q6 42 24 69l3 27l2 18l10 34l11 48q4 21 4.5 35.5t0.5 22.5q12 62 12 90
q0 31 -14 31q-10 0 -41 -31l-15 -22q-7 -7 -14 -19l2 -16v-18v-20q0 -12 -2 -26q0 -12 -6 -41q-6 -45 -12 -57l-25 -6l-31 -2h-15l-13 2l-20 -4l-27 -2q-34 0 -45 -5q-17 -5 -17 14l4 28q9 42 9 53l10 51l10 59q6 15 6 25q0 24 -26 24q-28 0 -50 -22l-4 -25l-4 -45l-20 -168
l-6 -27l-1 -15l2 -17q0 -9 8 -13l22 -2h18z" />
    <glyph glyph-name="multiply" unicode="&#x427;" horiz-adv-x="400" 
d="M76 180l21 6l20 7q14 0 19 2l22 8q18 10 60 16l61 6q0 -22 -10 -75q-5 -31 -6 -35q-5 -24 -11 -35v-17v-13q-2 -9 -2 -13l-7 -43l-5 -37l-2 -33l15 -3l15 3q6 15 10 18.5t27 88.5l23 121q6 42 24 69l3 27l2 18l10 34l11 48q4 21 4.5 35.5t0.5 22.5q12 62 12 90
q0 31 -14 31q-10 0 -41 -31l-15 -22q-7 -7 -14 -19l2 -16v-18v-20q0 -12 -2 -26q0 -12 -6 -41q-6 -45 -12 -57l-25 -6l-31 -2h-15l-13 2l-20 -4l-27 -2q-34 0 -45 -5q-17 -5 -17 14l4 28q9 42 9 53l10 51l10 59q6 15 6 25q0 24 -26 24q-28 0 -50 -22l-4 -25l-4 -45l-20 -168
l-6 -27l-1 -15l2 -17q0 -9 8 -13l22 -2h18z" />
    <glyph glyph-name="Oslash" unicode="&#xd8;" horiz-adv-x="639" 
d="M27 -16q-25 0 -25 34l1 10l1 9l16 119l19 117q-14 16 -14 38q0 19 5 35l11 35l25 93q20 54 63 63q9 -3 13 -7.5t7 -19.5l-7 -38l-5 -44l-12 -57q-3 -29 -6 -35l-4 -18q0 -15 -7 -23q0 -16 -20 -103q-9 -46 -14 -74t-5 -42q0 -20 5 -25q23 -15 49 -15l11 1l25 -3l21 -2
q9 0 17 4l52 4v31l5 32q2 17 9 36l-1 13l1 20q0 16 2 22l5 30l8 38l10 67l10 100l4 38q0 24 4 32q18 21 50 21q26 0 26 -24q0 -9 -6 -24l-12 -68l-8 -42l-12 -61l-5 -57v-41l-4 -26l-15 -106v-26l84 5l20 1q7 0 24 7l34 11l45 244l9 60l4 58v13l-2 18l29 41q27 30 41 31
q14 0 14 -32q0 -26 -12 -89q0 -36 -6 -69q-2 -15 -7 -33t-13 -38l-2 -22l-3 -23q-14 -24 -25 -81l-7 -49q-3 -27 -7 -37l1 -31l-20 -9q-14 -5 -25 -13l-43 -11l-29 -9l-128 -8l-85 -4l-28 1l-27 2h-36h-48q-41 0 -45 5z" />
    <glyph glyph-name="Oslash" unicode="&#x428;" horiz-adv-x="639" 
d="M27 -16q-25 0 -25 34l1 10l1 9l16 119l19 117q-14 16 -14 38q0 19 5 35l11 35l25 93q20 54 63 63q9 -3 13 -7.5t7 -19.5l-7 -38l-5 -44l-12 -57q-3 -29 -6 -35l-4 -18q0 -15 -7 -23q0 -16 -20 -103q-9 -46 -14 -74t-5 -42q0 -20 5 -25q23 -15 49 -15l11 1l25 -3l21 -2
q9 0 17 4l52 4v31l5 32q2 17 9 36l-1 13l1 20q0 16 2 22l5 30l8 38l10 67l10 100l4 38q0 24 4 32q18 21 50 21q26 0 26 -24q0 -9 -6 -24l-12 -68l-8 -42l-12 -61l-5 -57v-41l-4 -26l-15 -106v-26l84 5l20 1q7 0 24 7l34 11l45 244l9 60l4 58v13l-2 18l29 41q27 30 41 31
q14 0 14 -32q0 -26 -12 -89q0 -36 -6 -69q-2 -15 -7 -33t-13 -38l-2 -22l-3 -23q-14 -24 -25 -81l-7 -49q-3 -27 -7 -37l1 -31l-20 -9q-14 -5 -25 -13l-43 -11l-29 -9l-128 -8l-85 -4l-28 1l-27 2h-36h-48q-41 0 -45 5z" />
    <glyph glyph-name="Ugrave" unicode="&#xd9;" horiz-adv-x="639" 
d="M27 -16q-25 0 -25 34l1 10l1 9l16 119l19 117q-14 16 -14 38q0 19 5 35l11 35l25 93q20 54 63 63q9 -3 13 -7.5t7 -19.5l-7 -38l-5 -44l-12 -57q-3 -29 -6 -35l-4 -18q0 -15 -7 -23q0 -16 -20 -103q-9 -46 -14 -74t-5 -42q0 -20 5 -25q23 -15 49 -15l11 1l25 -3l21 -2
q9 0 17 4l52 4v31l5 32q2 17 9 36l-1 13l1 20q0 16 2 22l5 30l8 38l10 67l10 100l4 38q0 24 4 32q18 21 50 21q26 0 26 -24q0 -9 -6 -24l-12 -68l-8 -42l-12 -61l-5 -57v-41l-4 -26l-15 -106v-26l84 5l20 1q7 0 24 7l34 11l45 244l9 60l4 58v13l-2 18l29 41q27 30 41 31
q14 0 14 -32q0 -26 -12 -89q0 -36 -6 -69q-2 -15 -7 -33t-13 -38l-2 -22l-3 -23q-15 -24 -24 -69l-11 -81l40 6l43 3q3 -3 3 -21q0 -26 -3.5 -53.5t-8.5 -34.5l-8 -24l-1 -10l-15 -26l-18 1q-8 2 -16 7q-5 3 7 55l7 39l-10 3q-6 -3 -32 -6q-22 0 -36 -9l-43 -11l-29 -9
l-128 -8l-85 -4l-28 1l-27 2h-36h-48q-41 0 -45 5z" />
    <glyph glyph-name="Ugrave" unicode="&#x429;" horiz-adv-x="639" 
d="M27 -16q-25 0 -25 34l1 10l1 9l16 119l19 117q-14 16 -14 38q0 19 5 35l11 35l25 93q20 54 63 63q9 -3 13 -7.5t7 -19.5l-7 -38l-5 -44l-12 -57q-3 -29 -6 -35l-4 -18q0 -15 -7 -23q0 -16 -20 -103q-9 -46 -14 -74t-5 -42q0 -20 5 -25q23 -15 49 -15l11 1l25 -3l21 -2
q9 0 17 4l52 4v31l5 32q2 17 9 36l-1 13l1 20q0 16 2 22l5 30l8 38l10 67l10 100l4 38q0 24 4 32q18 21 50 21q26 0 26 -24q0 -9 -6 -24l-12 -68l-8 -42l-12 -61l-5 -57v-41l-4 -26l-15 -106v-26l84 5l20 1q7 0 24 7l34 11l45 244l9 60l4 58v13l-2 18l29 41q27 30 41 31
q14 0 14 -32q0 -26 -12 -89q0 -36 -6 -69q-2 -15 -7 -33t-13 -38l-2 -22l-3 -23q-15 -24 -24 -69l-11 -81l40 6l43 3q3 -3 3 -21q0 -26 -3.5 -53.5t-8.5 -34.5l-8 -24l-1 -10l-15 -26l-18 1q-8 2 -16 7q-5 3 7 55l7 39l-10 3q-6 -3 -32 -6q-22 0 -36 -9l-43 -11l-29 -9
l-128 -8l-85 -4l-28 1l-27 2h-36h-48q-41 0 -45 5z" />
    <glyph glyph-name="Uacute" unicode="&#xda;" horiz-adv-x="391" 
d="M137 476l-17 -75l-15 -78l-25 -191l-5 -67q0 -37 11.5 -51.5t39.5 -17.5l31 -3l22 1l49 11q21 5 47.5 18.5t42.5 29.5q11 11 15.5 17t14.5 21q18 30 18 53q0 43 -29 78q-14 19 -48 44q-9 6 -19 12q-20 11 -42 23l-62 27l25 106q14 42 41 77l3 10q0 12 -21 21l-23 6l-29 2
h-18l-13 -4l-40 -8q-27 -3 -36 -8q-10 -3 -44 -22q-14 0 -14 -20q0 -24 16 -34q28 9 76 18zM148 204l10 78l11 -8l8 -12q3 -7 17 -15q35 -12 70 -44q42 -38 42 -72q-9 -26 -19.5 -38.5t-45 -32.5t-69.5 -20q-20 0 -26.5 10.5t-6.5 58.5q0 42 9 95z" />
    <glyph glyph-name="Uacute" unicode="&#x42a;" horiz-adv-x="391" 
d="M137 476l-17 -75l-15 -78l-25 -191l-5 -67q0 -37 11.5 -51.5t39.5 -17.5l31 -3l22 1l49 11q21 5 47.5 18.5t42.5 29.5q11 11 15.5 17t14.5 21q18 30 18 53q0 43 -29 78q-14 19 -48 44q-9 6 -19 12q-20 11 -42 23l-62 27l25 106q14 42 41 77l3 10q0 12 -21 21l-23 6l-29 2
h-18l-13 -4l-40 -8q-27 -3 -36 -8q-10 -3 -44 -22q-14 0 -14 -20q0 -24 16 -34q28 9 76 18zM148 204l10 78l11 -8l8 -12q3 -7 17 -15q35 -12 70 -44q42 -38 42 -72q-9 -26 -19.5 -38.5t-45 -32.5t-69.5 -20q-20 0 -26.5 10.5t-6.5 58.5q0 42 9 95z" />
    <glyph glyph-name="Ucircumflex" unicode="&#xdb;" horiz-adv-x="486" 
d="M355 11q3 -25 21 -25l14 3q7 10 14.5 15t10.5 15l-5 38l-2 41q0 55 15 145l16 86q-3 7 4 39l17 69l7 33l4 22l4 22q0 20 -15 23q-9 0 -29 -12q-38 0 -61 -75l-15 -62l2 -6l2 -4l-4 -12l-2 -22q0 -12 2 -15l7 -7l4 -22q0 -16 -5 -25l-3 -73l-9 -121q0 -31 6 -70zM111 387
l-7 -36l-6 -26q39 -12 62 -26l28 -15q14 -6 31 -18.5t28 -22.5t21 -23q30 -38 30 -79q0 -25 -17 -53q-6 -10 -12.5 -18.5t-16.5 -18.5q-17 -16 -43 -30q-24 -11 -50 -19q-47 -12 -72 -12l-29 3q-26 3 -40 18q-3 4 -7 18t-4 34l1 27q0 19 4 39q15 154 39 271l8 33l9 37l9 36
q3 18 16.5 30.5t36.5 12.5q16 0 32.5 -8t19.5 -20q0 -7 -20 -14q-15 -19 -32 -56q-10 -24 -19 -64zM80 201q-9 -51 -9 -96q0 -44 6 -58q7 -10 27 -10h17q12 3 18 4q15 4 35 16q48 27 64 71q0 33 -41 71q-37 34 -71 45q-11 6 -17 13q-2 7 -7 12l-12 10z" />
    <glyph glyph-name="Ucircumflex" unicode="&#x42b;" horiz-adv-x="486" 
d="M355 11q3 -25 21 -25l14 3q7 10 14.5 15t10.5 15l-5 38l-2 41q0 55 15 145l16 86q-3 7 4 39l17 69l7 33l4 22l4 22q0 20 -15 23q-9 0 -29 -12q-38 0 -61 -75l-15 -62l2 -6l2 -4l-4 -12l-2 -22q0 -12 2 -15l7 -7l4 -22q0 -16 -5 -25l-3 -73l-9 -121q0 -31 6 -70zM111 387
l-7 -36l-6 -26q39 -12 62 -26l28 -15q14 -6 31 -18.5t28 -22.5t21 -23q30 -38 30 -79q0 -25 -17 -53q-6 -10 -12.5 -18.5t-16.5 -18.5q-17 -16 -43 -30q-24 -11 -50 -19q-47 -12 -72 -12l-29 3q-26 3 -40 18q-3 4 -7 18t-4 34l1 27q0 19 4 39q15 154 39 271l8 33l9 37l9 36
q3 18 16.5 30.5t36.5 12.5q16 0 32.5 -8t19.5 -20q0 -7 -20 -14q-15 -19 -32 -56q-10 -24 -19 -64zM80 201q-9 -51 -9 -96q0 -44 6 -58q7 -10 27 -10h17q12 3 18 4q15 4 35 16q48 27 64 71q0 33 -41 71q-37 34 -71 45q-11 6 -17 13q-2 7 -7 12l-12 10z" />
    <glyph glyph-name="Udieresis" unicode="&#xdc;" horiz-adv-x="334" 
d="M122 390l-7 -36l-6 -26q39 -12 62 -26l28 -15q14 -6 31 -18.5t28 -22.5t21 -23q30 -38 30 -79q0 -25 -17 -53q-6 -10 -12.5 -18.5t-16.5 -18.5q-17 -16 -43 -30q-24 -11 -50 -19q-47 -12 -72 -12l-29 3q-26 3 -40 18q-3 4 -7 18t-4 34l1 27q0 19 4 39q15 154 39 271l8 33
l9 37l9 36q3 18 16.5 30.5t36.5 12.5q16 0 32.5 -8t19.5 -20q0 -7 -20 -14q-15 -19 -32 -56q-10 -24 -19 -64zM91 204q-9 -51 -9 -96q0 -44 6 -58q7 -10 27 -10h17q12 3 18 4q15 4 35 16q48 27 64 71q0 33 -41 71q-37 34 -71 45q-11 6 -17 13q-2 7 -7 12l-12 10z" />
    <glyph glyph-name="Udieresis" unicode="&#x42c;" horiz-adv-x="334" 
d="M122 390l-7 -36l-6 -26q39 -12 62 -26l28 -15q14 -6 31 -18.5t28 -22.5t21 -23q30 -38 30 -79q0 -25 -17 -53q-6 -10 -12.5 -18.5t-16.5 -18.5q-17 -16 -43 -30q-24 -11 -50 -19q-47 -12 -72 -12l-29 3q-26 3 -40 18q-3 4 -7 18t-4 34l1 27q0 19 4 39q15 154 39 271l8 33
l9 37l9 36q3 18 16.5 30.5t36.5 12.5q16 0 32.5 -8t19.5 -20q0 -7 -20 -14q-15 -19 -32 -56q-10 -24 -19 -64zM91 204q-9 -51 -9 -96q0 -44 6 -58q7 -10 27 -10h17q12 3 18 4q15 4 35 16q48 27 64 71q0 33 -41 71q-37 34 -71 45q-11 6 -17 13q-2 7 -7 12l-12 10z" />
    <glyph glyph-name="Yacute" unicode="&#xdd;" horiz-adv-x="428" 
d="M357 190l18 31l10 34l17 55q12 39 12 69q0 20 -5.5 42.5t-19.5 45.5q-37 64 -107 64t-132 -61l4 -64q35 50 93 50q34 0 60.5 -22.5t36.5 -68.5l2 -35v-15v-12l-2 -12q0 -13 -3 -24.5t-5 -17.5q-5 -24 -8 -29l-12 -20l-27 6q-25 5 -45 19l-34 12q-27 9 -36 24
q-15 3 -28 -29l-7 -23q18 -21 74 -40q50 -14 81 -14q-32 -45 -58 -76q-13 -13 -42.5 -23.5t-52.5 -10.5h-12l-11 2q-24 3 -47 42q-24 45 -24 118l4 10q0 9 -9 9t-15 -13q-10 -19 -16 -51l-3 -58q0 -56 30 -91q30 -32 77 -32l31 4q53 12 89 36q24 17 46 47l58 80l23 -7l28 -6
l12 15q6 8 9 17t-2 12l-15 6l-16 -1l-6 1z" />
    <glyph glyph-name="Yacute" unicode="&#x42d;" horiz-adv-x="428" 
d="M357 190l18 31l10 34l17 55q12 39 12 69q0 20 -5.5 42.5t-19.5 45.5q-37 64 -107 64t-132 -61l4 -64q35 50 93 50q34 0 60.5 -22.5t36.5 -68.5l2 -35v-15v-12l-2 -12q0 -13 -3 -24.5t-5 -17.5q-5 -24 -8 -29l-12 -20l-27 6q-25 5 -45 19l-34 12q-27 9 -36 24
q-15 3 -28 -29l-7 -23q18 -21 74 -40q50 -14 81 -14q-32 -45 -58 -76q-13 -13 -42.5 -23.5t-52.5 -10.5h-12l-11 2q-24 3 -47 42q-24 45 -24 118l4 10q0 9 -9 9t-15 -13q-10 -19 -16 -51l-3 -58q0 -56 30 -91q30 -32 77 -32l31 4q53 12 89 36q24 17 46 47l58 80l23 -7l28 -6
l12 15q6 8 9 17t-2 12l-15 6l-16 -1l-6 1z" />
    <glyph glyph-name="Thorn" unicode="&#xde;" horiz-adv-x="590" 
d="M89 160l-1 -24v-26l1 -41q2 -6 8 -10l13 12l12 7l4 -7l-18 -33l-11 -20q-19 -28 -39 -28q-9 0 -15.5 5t-6.5 23l-1 14q0 12 -4 28l-5 54q0 19 4 31l-13 28l-10 28l18 37q6 10 11 26l20 168l4 38q0 24 4 32q18 21 50 21q26 0 26 -24q0 -9 -6 -24l-12 -68l-8 -42
q0 -16 -7 -44l-6 -37q0 -14 17 -14l49 10l43 4l16 2l77 197l16 7q6 0 8 2q11 0 14 -7q0 -6 -13 -26l-1 -6v-4l1 -5l2 -2l10 9q5 9 16 15l23 13q8 12 26.5 22t40.5 15q54 -8 96 -64q33 -46 44 -110q0 -102 -62 -195q-37 -55 -100 -114l-12 -8l-19 -17l-47 -16q-31 -8 -47 -10
q-47 0 -69 38q-22 41 -22 99l1 26v18q3 9 4 13l6 50l-30 -4q-16 0 -28 -8l-22 -9l-19 -2q-9 -3 -21 -18q-7 -10 -10 -25zM428 94q40 37 57 65l25 58l7 29l3 35q0 57 -29 102t-79 45q-45 -12 -69 -30q-8 -5 -38 -46l-14 -66q-16 -83 -16 -115q0 -31 7 -58q17 -66 60 -66
q36 0 86 47z" />
    <glyph glyph-name="Thorn" unicode="&#x42e;" horiz-adv-x="590" 
d="M89 160l-1 -24v-26l1 -41q2 -6 8 -10l13 12l12 7l4 -7l-18 -33l-11 -20q-19 -28 -39 -28q-9 0 -15.5 5t-6.5 23l-1 14q0 12 -4 28l-5 54q0 19 4 31l-13 28l-10 28l18 37q6 10 11 26l20 168l4 38q0 24 4 32q18 21 50 21q26 0 26 -24q0 -9 -6 -24l-12 -68l-8 -42
q0 -16 -7 -44l-6 -37q0 -14 17 -14l49 10l43 4l16 2l77 197l16 7q6 0 8 2q11 0 14 -7q0 -6 -13 -26l-1 -6v-4l1 -5l2 -2l10 9q5 9 16 15l23 13q8 12 26.5 22t40.5 15q54 -8 96 -64q33 -46 44 -110q0 -102 -62 -195q-37 -55 -100 -114l-12 -8l-19 -17l-47 -16q-31 -8 -47 -10
q-47 0 -69 38q-22 41 -22 99l1 26v18q3 9 4 13l6 50l-30 -4q-16 0 -28 -8l-22 -9l-19 -2q-9 -3 -21 -18q-7 -10 -10 -25zM428 94q40 37 57 65l25 58l7 29l3 35q0 57 -29 102t-79 45q-45 -12 -69 -30q-8 -5 -38 -46l-14 -66q-16 -83 -16 -115q0 -31 7 -58q17 -66 60 -66
q36 0 86 47z" />
    <glyph glyph-name="germandbls" unicode="&#xdf;" horiz-adv-x="428" 
d="M314 230q-6 -21 -21 -48l-26 -49l-19 -22l-41 -46l-28 -32q-3 -11 -13 -18q-18 -14 -50 -25t-67 -11q-9 -6 -18 3l-14 13l-11 20q-3 8 -1 20l30 33q9 9 19 7l22 -12q15 -12 21 -9l34 10l67 55l62 77l15 25q5 9 19 23l-56 -33l-41 -18l-43 -11q-61 0 -88 26q-26 28 -26 69
q0 31 10 57t27 51l30 37q13 14 30 26q16 22 69 46t100 24l28 -3l41 -10l19 -14q19 -11 20 -26l9 -10l7 -11v-12q-6 -6 -35 -23l-18 -4q-13 0 -20 20q-3 21 -7 25l-7 9l-13 9q-1 4 -16 11l-29 4q-16 0 -33 -7l-17 -7l-16 -7l-30 -21q-12 -9 -27 -27l-14 -22l-21 -35l-6 -26
l-2 -28l2 -29q3 -19 17 -30q18 -10 37 -10q8 0 18 1t21 4q23 6 40 16l45 31l41 30q3 3 17 3l6 -5l6 -5l5 -3q7 -4 10 -8q12 -9 13 -13l1 -21l-2 -49l-2 -48q0 -55 -8 -70l-13 -26l-26 -58q0 -10 -8 -20t-29 -14q0 -15 -24 -15l-3 10l3 19l4 13l4 46l7 53l8 67z" />
    <glyph glyph-name="germandbls" unicode="&#x42f;" horiz-adv-x="428" 
d="M314 230q-6 -21 -21 -48l-26 -49l-19 -22l-41 -46l-28 -32q-3 -11 -13 -18q-18 -14 -50 -25t-67 -11q-9 -6 -18 3l-14 13l-11 20q-3 8 -1 20l30 33q9 9 19 7l22 -12q15 -12 21 -9l34 10l67 55l62 77l15 25q5 9 19 23l-56 -33l-41 -18l-43 -11q-61 0 -88 26q-26 28 -26 69
q0 31 10 57t27 51l30 37q13 14 30 26q16 22 69 46t100 24l28 -3l41 -10l19 -14q19 -11 20 -26l9 -10l7 -11v-12q-6 -6 -35 -23l-18 -4q-13 0 -20 20q-3 21 -7 25l-7 9l-13 9q-1 4 -16 11l-29 4q-16 0 -33 -7l-17 -7l-16 -7l-30 -21q-12 -9 -27 -27l-14 -22l-21 -35l-6 -26
l-2 -28l2 -29q3 -19 17 -30q18 -10 37 -10q8 0 18 1t21 4q23 6 40 16l45 31l41 30q3 3 17 3l6 -5l6 -5l5 -3q7 -4 10 -8q12 -9 13 -13l1 -21l-2 -49l-2 -48q0 -55 -8 -70l-13 -26l-26 -58q0 -10 -8 -20t-29 -14q0 -15 -24 -15l-3 10l3 19l4 13l4 46l7 53l8 67z" />
    <glyph glyph-name="agrave" unicode="&#xe0;" horiz-adv-x="318" 
d="M2 76q8 -4 11 -13l-5 -16v-23q2 -6 12 -12q3 -11 20 -11q15 0 26 11q10 0 18 7l25 26l17 12l28 26q16 16 32 26q0 -27 11 -45q15 -29 41 -29l14 2q12 -3 31 9l18 11q3 7 8 9q8 6 9 10l-2 11l2 11q0 16 -2 20l-2 3l-19 -16q-6 -5 -20 -8q-26 0 -26 33q0 13 5 24l-6 25
q-3 13 -19 10q-8 0 -31 -14.5t-28 -26.5q-30 -17 -41 -37l-19 -13q-15 -12 -24 -12l9 20q4 7 22 27l19 19l16 15l12 17q11 3 33.5 24.5t32.5 39.5q18 8 25 17.5t11 19.5q-9 17 -27 17q-13 0 -23 -5l-50 -33l-60 -47q-38 -29 -51 -55l-33 -27l-14 -18z" />
    <glyph glyph-name="agrave" unicode="&#x430;" horiz-adv-x="318" 
d="M2 76q8 -4 11 -13l-5 -16v-23q2 -6 12 -12q3 -11 20 -11q15 0 26 11q10 0 18 7l25 26l17 12l28 26q16 16 32 26q0 -27 11 -45q15 -29 41 -29l14 2q12 -3 31 9l18 11q3 7 8 9q8 6 9 10l-2 11l2 11q0 16 -2 20l-2 3l-19 -16q-6 -5 -20 -8q-26 0 -26 33q0 13 5 24l-6 25
q-3 13 -19 10q-8 0 -31 -14.5t-28 -26.5q-30 -17 -41 -37l-19 -13q-15 -12 -24 -12l9 20q4 7 22 27l19 19l16 15l12 17q11 3 33.5 24.5t32.5 39.5q18 8 25 17.5t11 19.5q-9 17 -27 17q-13 0 -23 -5l-50 -33l-60 -47q-38 -29 -51 -55l-33 -27l-14 -18z" />
    <glyph glyph-name="aacute" unicode="&#xe1;" horiz-adv-x="254" 
d="M0 63l16 13q9 8 15 18v-50q0 -27 8 -34q18 -18 31 -18q12 0 24 12l18 7q16 7 25 14l18 10q19 12 29 26l19 27l14 23q9 9 19 86l7 74l-1 31q0 12 -7 39l-15 86l58 20l29 7l22 3l39 1h28h12q8 0 12 2l10 53q0 11 -4 15l-18 1q-42 0 -119 -9q-17 0 -35 -5l-45 -15
q-27 -9 -35 -9l-9 -12q9 -25 21.5 -78t12.5 -120q0 -52 -15 -105.5t-47 -87.5q-11 -11 -33 -11l-12 3q-3 3 -3 15l3 12l-1 12l6 50l5 25q2 12 20 36l14 24l13 14q12 12 9 23q-5 0 -17 6q-8 6 -19 4q-4 -2 -8.5 -5.5t-14.5 -13.5l-25 -24l-20 -28l-8 -17q-12 -12 -23 -51
q-6 -36 -21 -51q2 -7 -1 -25z" />
    <glyph glyph-name="aacute" unicode="&#x431;" horiz-adv-x="254" 
d="M0 63l16 13q9 8 15 18v-50q0 -27 8 -34q18 -18 31 -18q12 0 24 12l18 7q16 7 25 14l18 10q19 12 29 26l19 27l14 23q9 9 19 86l7 74l-1 31q0 12 -7 39l-15 86l58 20l29 7l22 3l39 1h28h12q8 0 12 2l10 53q0 11 -4 15l-18 1q-42 0 -119 -9q-17 0 -35 -5l-45 -15
q-27 -9 -35 -9l-9 -12q9 -25 21.5 -78t12.5 -120q0 -52 -15 -105.5t-47 -87.5q-11 -11 -33 -11l-12 3q-3 3 -3 15l3 12l-1 12l6 50l5 25q2 12 20 36l14 24l13 14q12 12 9 23q-5 0 -17 6q-8 6 -19 4q-4 -2 -8.5 -5.5t-14.5 -13.5l-25 -24l-20 -28l-8 -17q-12 -12 -23 -51
q-6 -36 -21 -51q2 -7 -1 -25z" />
    <glyph glyph-name="acircumflex" unicode="&#xe2;" horiz-adv-x="276" 
d="M180 33l12 24l15 25l12 29l15 31l4 21q0 9 -6 12l-14 4l-19 -1q-7 0 -10 2l-26 -23q-15 -17 -23 -30l-13 -24l-4 -31l10 -7q9 -3 10 -10q0 -7 -8 -16q-30 -15 -39 -12q-11 17 -15 34l-4 37q0 28 6.5 48.5t19.5 35.5l38 67l37 76q26 61 58 152l1 19q0 24 -5 34
q-3 12 -19 9q-9 3 -34 -9l-27 -14q-2 -7 -13 -18l-10 -16q-13 -20 -32 -62l-27 -70l-22 -83l-7 -44l-9 -35l-7 -47q-1 -5 -2 -6l-6 -7l-15 -15l-3 -36l1 -13l9 7l7 7l3 2q0 -32 4 -49q11 -73 53 -73l10 1q17 3 50 31zM201 49l-7 -12l-3 -8l4 -8q9 0 16 4l21 14l33 24
q20 12 20 33l-7 19q-2 6 -7 6q-3 -8 -13 -19l-19 -20zM119 281q-3 -10 -12 -25l-11 -18q8 49 28 97l20 45l24 46q3 3 6 -1q4 -4 -8 -18q-9 -16 -24 -64q-11 -45 -23 -62z" />
    <glyph glyph-name="acircumflex" unicode="&#x432;" horiz-adv-x="276" 
d="M180 33l12 24l15 25l12 29l15 31l4 21q0 9 -6 12l-14 4l-19 -1q-7 0 -10 2l-26 -23q-15 -17 -23 -30l-13 -24l-4 -31l10 -7q9 -3 10 -10q0 -7 -8 -16q-30 -15 -39 -12q-11 17 -15 34l-4 37q0 28 6.5 48.5t19.5 35.5l38 67l37 76q26 61 58 152l1 19q0 24 -5 34
q-3 12 -19 9q-9 3 -34 -9l-27 -14q-2 -7 -13 -18l-10 -16q-13 -20 -32 -62l-27 -70l-22 -83l-7 -44l-9 -35l-7 -47q-1 -5 -2 -6l-6 -7l-15 -15l-3 -36l1 -13l9 7l7 7l3 2q0 -32 4 -49q11 -73 53 -73l10 1q17 3 50 31zM201 49l-7 -12l-3 -8l4 -8q9 0 16 4l21 14l33 24
q20 12 20 33l-7 19q-2 6 -7 6q-3 -8 -13 -19l-19 -20zM119 281q-3 -10 -12 -25l-11 -18q8 49 28 97l20 45l24 46q3 3 6 -1q4 -4 -8 -18q-9 -16 -24 -64q-11 -45 -23 -62z" />
    <glyph glyph-name="atilde" unicode="&#xe3;" horiz-adv-x="243" 
d="M77 37q6 -6 13 -26l3 -9q4 -4 21 -7q30 0 76 28.5t57 52.5v14q0 12 -2 19q0 12 -2 14l-40 -41q-34 -32 -47 -32q-9 0 -10 13l18 76q9 42 9 71q0 23 -4.5 37t-13.5 23q-7 5 -15 7q-6 0 -14 -4l-20 -1q-15 0 -35 -17l-73 -80l-1 -16l3 -25q0 -7 10 -8l35 39q29 33 43 41
q11 6 17 -10l3 -34q2 -8 -15.5 -53.5t-17.5 -60.5q0 -8 2 -11z" />
    <glyph glyph-name="atilde" unicode="&#x433;" horiz-adv-x="243" 
d="M77 37q6 -6 13 -26l3 -9q4 -4 21 -7q30 0 76 28.5t57 52.5v14q0 12 -2 19q0 12 -2 14l-40 -41q-34 -32 -47 -32q-9 0 -10 13l18 76q9 42 9 71q0 23 -4.5 37t-13.5 23q-7 5 -15 7q-6 0 -14 -4l-20 -1q-15 0 -35 -17l-73 -80l-1 -16l3 -25q0 -7 10 -8l35 39q29 33 43 41
q11 6 17 -10l3 -34q2 -8 -15.5 -53.5t-17.5 -60.5q0 -8 2 -11z" />
    <glyph glyph-name="adieresis" unicode="&#xe4;" horiz-adv-x="332" 
d="M-2 61q13 10 22 13l-9 -26l-3 -21q0 -7 2 -9q11 -24 38 -24q14 0 29 8.5t28 24.5l12 6l28 24l24 16l22 19l4 -9l-6 -37l-1 -21q-9 -11 -21 -40l-13 -36q-8 -5 -24.5 -23.5t-33.5 -42.5q-10 -8 -24 -28l-19 -31l-11 -12q-6 -12 -13 -13l-22 -32q-6 -12 -3 -23q4 -5 21 -8
q18 0 30 8q16 6 27 22l43 50l21 33q10 13 12 20l14 20l16 23q18 39 67 79l71 60v11l-1 19l1 13q-4 4 -12 -2l-15 -13l-26 -22l-17 -17l-10 -11l10 46l23 68l11 32l4 17q0 6 -5 11l-17 2q-8 0 -17.5 -3.5t-20.5 -17.5l-15 -14l-53 -38q-32 -24 -45 -46l-18 -9l-19 -9
q-3 9 10 26q0 6 18 27l46 47l22 15l15 11l14 13l14 8l10 6q9 6 9 13l-13 15q-5 7 -16 7q-6 0 -32 -12l-28 -14l-30 -19q-8 -6 -14 -14q-16 -8 -35 -23l-33 -28l-29 -21q-11 -7 -14 -18l3 -24z" />
    <glyph glyph-name="adieresis" unicode="&#x434;" horiz-adv-x="332" 
d="M-2 61q13 10 22 13l-9 -26l-3 -21q0 -7 2 -9q11 -24 38 -24q14 0 29 8.5t28 24.5l12 6l28 24l24 16l22 19l4 -9l-6 -37l-1 -21q-9 -11 -21 -40l-13 -36q-8 -5 -24.5 -23.5t-33.5 -42.5q-10 -8 -24 -28l-19 -31l-11 -12q-6 -12 -13 -13l-22 -32q-6 -12 -3 -23q4 -5 21 -8
q18 0 30 8q16 6 27 22l43 50l21 33q10 13 12 20l14 20l16 23q18 39 67 79l71 60v11l-1 19l1 13q-4 4 -12 -2l-15 -13l-26 -22l-17 -17l-10 -11l10 46l23 68l11 32l4 17q0 6 -5 11l-17 2q-8 0 -17.5 -3.5t-20.5 -17.5l-15 -14l-53 -38q-32 -24 -45 -46l-18 -9l-19 -9
q-3 9 10 26q0 6 18 27l46 47l22 15l15 11l14 13l14 8l10 6q9 6 9 13l-13 15q-5 7 -16 7q-6 0 -32 -12l-28 -14l-30 -19q-8 -6 -14 -14q-16 -8 -35 -23l-33 -28l-29 -21q-11 -7 -14 -18l3 -24z" />
    <glyph glyph-name="aring" unicode="&#xe5;" horiz-adv-x="230" 
d="M26 29q7 -6 12.5 -9t14.5 -8l32 -6q26 0 71 24l70 38q5 8 5 37l2 9l-15 -3l-20 -13l-21 -14q-29 -16 -66 -16q-18 0 -29.5 6t-11.5 23l3 16l13 9l13 13q25 12 50.5 42t25.5 42q10 3 10 25t-10 29q-6 9 -15 12l-20 3q-10 0 -18.5 -3.5t-13.5 -9.5l-25 -18l-23 -23l-16 -18
l-17 -29l-17 -38q-9 -21 -9 -30q0 -43 12 -67zM118 217q10 -5 -1.5 -21t-17.5 -18q-5 -14 -22 -14l-4 1l-2 2l8 17l20 22q9 8 19 11z" />
    <glyph glyph-name="aring" unicode="&#x435;" horiz-adv-x="230" 
d="M26 29q7 -6 12.5 -9t14.5 -8l32 -6q26 0 71 24l70 38q5 8 5 37l2 9l-15 -3l-20 -13l-21 -14q-29 -16 -66 -16q-18 0 -29.5 6t-11.5 23l3 16l13 9l13 13q25 12 50.5 42t25.5 42q10 3 10 25t-10 29q-6 9 -15 12l-20 3q-10 0 -18.5 -3.5t-13.5 -9.5l-25 -18l-23 -23l-16 -18
l-17 -29l-17 -38q-9 -21 -9 -30q0 -43 12 -67zM118 217q10 -5 -1.5 -21t-17.5 -18q-5 -14 -22 -14l-4 1l-2 2l8 17l20 22q9 8 19 11z" />
    <glyph glyph-name="ae" unicode="&#xe6;" horiz-adv-x="480" 
d="M209 10q9 -9 19 -9l13 1q13 3 20 13l1 6q13 10 31 32l16 23l14 12l-3 -28q0 -30 18 -45q16 -11 39 -11q36 0 65 19.5t45 48.5q6 0 7 11q0 10 -7 25l-4 7l-9 -9q-15 -31 -36 -40q-21 -15 -33 -15q-5 0 -16 6q-16 5 -16 40l1 20l7 18q9 12 33 18t32.5 20t11.5 27
q0 9 -10 13l-25 6q-27 0 -53 -25q-14 -11 -38 -49q-3 -8 -31 -33l-27 -24l6 20l8 22q5 18 24 60q15 33 12 42q0 6 -22 12t-28 3l-10 -23q-9 -21 -20 -29l-19 -23q-17 -22 -28 -30l11 43q3 10 1 20q0 26 -19 42q-12 20 -34 20q-21 0 -51 -24q-21 -18 -36 -42q6 -39 18 -42
l5 1q12 6 16 16l8 21l8 7l12 7l9 -6l7 -12l2 -12q0 -12 -9 -39l-14 -44q-3 -13 -7 -18l-14 -22q-10 -14 -24 -17l-9 4q-12 0 -18 21q-3 21 -9 24q-23 0 -39 -16q-6 -5 -6 -11l4 -17l8 -21q0 -9 7 -17l17 -8q11 -3 16 -4t17 -1q33 0 60 21t39 58l34 25l20 20q0 -13 -11 -47
l-8 -29l-3 -20q0 -9 4 -13z" />
    <glyph glyph-name="ae" unicode="&#x436;" horiz-adv-x="480" 
d="M209 10q9 -9 19 -9l13 1q13 3 20 13l1 6q13 10 31 32l16 23l14 12l-3 -28q0 -30 18 -45q16 -11 39 -11q36 0 65 19.5t45 48.5q6 0 7 11q0 10 -7 25l-4 7l-9 -9q-15 -31 -36 -40q-21 -15 -33 -15q-5 0 -16 6q-16 5 -16 40l1 20l7 18q9 12 33 18t32.5 20t11.5 27
q0 9 -10 13l-25 6q-27 0 -53 -25q-14 -11 -38 -49q-3 -8 -31 -33l-27 -24l6 20l8 22q5 18 24 60q15 33 12 42q0 6 -22 12t-28 3l-10 -23q-9 -21 -20 -29l-19 -23q-17 -22 -28 -30l11 43q3 10 1 20q0 26 -19 42q-12 20 -34 20q-21 0 -51 -24q-21 -18 -36 -42q6 -39 18 -42
l5 1q12 6 16 16l8 21l8 7l12 7l9 -6l7 -12l2 -12q0 -12 -9 -39l-14 -44q-3 -13 -7 -18l-14 -22q-10 -14 -24 -17l-9 4q-12 0 -18 21q-3 21 -9 24q-23 0 -39 -16q-6 -5 -6 -11l4 -17l8 -21q0 -9 7 -17l17 -8q11 -3 16 -4t17 -1q33 0 60 21t39 58l34 25l20 20q0 -13 -11 -47
l-8 -29l-3 -20q0 -9 4 -13z" />
    <glyph glyph-name="ccedilla" unicode="&#xe7;" horiz-adv-x="271" 
d="M4 111l-3 -20l-1 -19l2 -4l14 6q6 6 13 20l10 7l18 20l41 41q6 6 12 6q7 0 18 -15t15 -30q0 -9 -12 -29.5t-12 -27.5q-17 -14 -17 -49q0 -30 11 -52l-26 -32q-17 -24 -22 -27l-31 -46l-14 -22l-10 -23l-3 -23l1 -28q7 -7 13 -10q14 -7 30 -7l25 3q58 31 87 65
q18 19 28 45t10 49q0 16 -6 40l-5 7l-12 23q0 10 20 27l21 21l35 31l14 18v41l-4 6q-4 -1 -32 -37l-37 -35q-5 -13 -18.5 -24.5t-22.5 -5.5l-2 17q0 11 12 32l14 24q22 35 22 64q0 17 -5 27l-8 18q-2 7 -7 12q-6 14 -17.5 22.5t-31.5 11.5q-22 0 -35 -28l-43 -49zM141 -137
l-16 -23l-17 -21q-28 -28 -47 -28l-10 2q-4 3 -1 20l11 27l12 17l11 14q4 9 9 17.5t14 18.5q15 17 24 19q3 -2 8 -22z" />
    <glyph glyph-name="ccedilla" unicode="&#x437;" horiz-adv-x="271" 
d="M4 111l-3 -20l-1 -19l2 -4l14 6q6 6 13 20l10 7l18 20l41 41q6 6 12 6q7 0 18 -15t15 -30q0 -9 -12 -29.5t-12 -27.5q-17 -14 -17 -49q0 -30 11 -52l-26 -32q-17 -24 -22 -27l-31 -46l-14 -22l-10 -23l-3 -23l1 -28q7 -7 13 -10q14 -7 30 -7l25 3q58 31 87 65
q18 19 28 45t10 49q0 16 -6 40l-5 7l-12 23q0 10 20 27l21 21l35 31l14 18v41l-4 6q-4 -1 -32 -37l-37 -35q-5 -13 -18.5 -24.5t-22.5 -5.5l-2 17q0 11 12 32l14 24q22 35 22 64q0 17 -5 27l-8 18q-2 7 -7 12q-6 14 -17.5 22.5t-31.5 11.5q-22 0 -35 -28l-43 -49zM141 -137
l-16 -23l-17 -21q-28 -28 -47 -28l-10 2q-4 3 -1 20l11 27l12 17l11 14q4 9 9 17.5t14 18.5q15 17 24 19q3 -2 8 -22z" />
    <glyph glyph-name="egrave" unicode="&#xe8;" horiz-adv-x="341" 
d="M68 4q14 -6 27 -6q32 0 66 35q18 18 46 61l11 -10q15 -45 53 -45q21 0 33 8l30 17q13 3 13 34q0 15 -2 18l-1 4l-2 3l-18 -13q-15 -12 -24 -12q-8 0 -14 7l-9 32l1 15q0 13 -5 23.5t-23 13.5q-14 0 -34 -24l-31 -46l-41 -49l-14 -9l-7 -3l-4 -1q-6 9 -6 32q0 39 12 75
q0 9 10 38l7 23l4 17q0 6 -4 11l-9 4q-7 0 -17 -5l-19 -12l-42 -62q-27 -36 -51 -57q-6 -3 -10 -16l-3 -21q0 -17 5 -20l6 3q7 3 15 13l20 22l9 -18q0 -34 5.5 -53t16.5 -27z" />
    <glyph glyph-name="egrave" unicode="&#x438;" horiz-adv-x="341" 
d="M68 4q14 -6 27 -6q32 0 66 35q18 18 46 61l11 -10q15 -45 53 -45q21 0 33 8l30 17q13 3 13 34q0 15 -2 18l-1 4l-2 3l-18 -13q-15 -12 -24 -12q-8 0 -14 7l-9 32l1 15q0 13 -5 23.5t-23 13.5q-14 0 -34 -24l-31 -46l-41 -49l-14 -9l-7 -3l-4 -1q-6 9 -6 32q0 39 12 75
q0 9 10 38l7 23l4 17q0 6 -4 11l-9 4q-7 0 -17 -5l-19 -12l-42 -62q-27 -36 -51 -57q-6 -3 -10 -16l-3 -21q0 -17 5 -20l6 3q7 3 15 13l20 22l9 -18q0 -34 5.5 -53t16.5 -27z" />
    <glyph glyph-name="eacute" unicode="&#xe9;" horiz-adv-x="344" 
d="M71 4q14 -6 27 -6q32 0 66 35q18 18 46 61l11 -10q15 -45 53 -45q21 0 33 8l30 17q13 3 13 34q0 15 -2 18l-1 4l-2 3l-18 -13q-15 -12 -24 -12q-8 0 -14 7l-9 32l1 15q0 13 -5 23.5t-23 13.5q-14 0 -34 -24l-31 -46l-41 -49l-14 -9l-7 -3l-4 -1q-6 9 -6 32q0 39 12 75
q0 9 10 38l7 23l4 17q0 6 -4 11l-9 4q-7 0 -17 -5l-19 -12l-42 -62q-27 -36 -51 -57q-6 -3 -10 -16l-3 -21q0 -17 5 -20l6 3q7 3 15 13l20 22l9 -18q0 -34 5.5 -53t16.5 -27zM245 383q-10 -9 -43 -23q-28 -9 -33 -16l3 -5l6 -6l8 -5l47 15q18 6 33 18q8 0 30 13l33 19l10 17
l4 14q0 7 -2 10q-12 12 -26 13l-9 -2q-9 -21 -25 -34z" />
    <glyph glyph-name="eacute" unicode="&#x439;" horiz-adv-x="344" 
d="M71 4q14 -6 27 -6q32 0 66 35q18 18 46 61l11 -10q15 -45 53 -45q21 0 33 8l30 17q13 3 13 34q0 15 -2 18l-1 4l-2 3l-18 -13q-15 -12 -24 -12q-8 0 -14 7l-9 32l1 15q0 13 -5 23.5t-23 13.5q-14 0 -34 -24l-31 -46l-41 -49l-14 -9l-7 -3l-4 -1q-6 9 -6 32q0 39 12 75
q0 9 10 38l7 23l4 17q0 6 -4 11l-9 4q-7 0 -17 -5l-19 -12l-42 -62q-27 -36 -51 -57q-6 -3 -10 -16l-3 -21q0 -17 5 -20l6 3q7 3 15 13l20 22l9 -18q0 -34 5.5 -53t16.5 -27zM245 383q-10 -9 -43 -23q-28 -9 -33 -16l3 -5l6 -6l8 -5l47 15q18 6 33 18q8 0 30 13l33 19l10 17
l4 14q0 7 -2 10q-12 12 -26 13l-9 -2q-9 -21 -25 -34z" />
    <glyph glyph-name="ecircumflex" unicode="&#xea;" 
d="M74 -31q12 0 25 16l20 25l22 28l17 25q5 9 11 9t31 -21t38 -24q21 0 44 20q27 23 27 53l-2 15q-3 4 -8 4q-21 -24 -37 -24q-15 0 -30 24l-11 9l-6 17q0 11 10 25l29 49q22 39 22 57q0 12 -6 19.5t-14 9.5q-7 0 -17 -16l-10 -29l-30 -52l-17 -32q-33 -3 -37 -29l-4 -36
l-34 -62l-7 -3l-3 10q0 16 10 42q0 5 3 19t11 41l9 39l5 26l12 36l11 39l5 20q0 6 -12 14l-20 5q-17 0 -24 -13l-68 -160l-26 -36q-11 -17 -11 -40l-4 -20q13 0 29.5 27t29.5 28q0 -18 -5 -34q-3 -16 -1 -26l-7 -23l-3 -28q0 -22 6 -32.5t27 -10.5z" />
    <glyph glyph-name="ecircumflex" unicode="&#x43a;" 
d="M74 -31q12 0 25 16l20 25l22 28l17 25q5 9 11 9t31 -21t38 -24q21 0 44 20q27 23 27 53l-2 15q-3 4 -8 4q-21 -24 -37 -24q-15 0 -30 24l-11 9l-6 17q0 11 10 25l29 49q22 39 22 57q0 12 -6 19.5t-14 9.5q-7 0 -17 -16l-10 -29l-30 -52l-17 -32q-33 -3 -37 -29l-4 -36
l-34 -62l-7 -3l-3 10q0 16 10 42q0 5 3 19t11 41l9 39l5 26l12 36l11 39l5 20q0 6 -12 14l-20 5q-17 0 -24 -13l-68 -160l-26 -36q-11 -17 -11 -40l-4 -20q13 0 29.5 27t29.5 28q0 -18 -5 -34q-3 -16 -1 -26l-7 -23l-3 -28q0 -22 6 -32.5t27 -10.5z" />
    <glyph glyph-name="edieresis" unicode="&#xeb;" horiz-adv-x="295" 
d="M55 52q-12 9 -18 18q-11 16 -11 33q-6 6 -10 8l-13 2q-8 -3 -12 -19l-9 -25q1 -4 2.5 -7.5t6.5 -12.5l9 -20q1 -8 15 -19q0 -18 25 -18q13 0 28 12q25 29 51 67l30 44l5 -5l-3 -15q0 -10 6 -31l15 -41q9 -11 26 -11q12 0 26 7l18 12l29 24q18 13 23 25l2 16l-3 20l-3 5
l-2 2q-14 -19 -36 -31q-11 -6 -20 -6l-10 2l-4 18l4 30l4 30l13 47l9 24l-1 9q-8 8 -17 12t-23 4q-27 -12 -46 -44q-42 -73 -60 -89l-8 -23l-9 -19q-12 -28 -29 -35z" />
    <glyph glyph-name="edieresis" unicode="&#x43b;" horiz-adv-x="295" 
d="M55 52q-12 9 -18 18q-11 16 -11 33q-6 6 -10 8l-13 2q-8 -3 -12 -19l-9 -25q1 -4 2.5 -7.5t6.5 -12.5l9 -20q1 -8 15 -19q0 -18 25 -18q13 0 28 12q25 29 51 67l30 44l5 -5l-3 -15q0 -10 6 -31l15 -41q9 -11 26 -11q12 0 26 7l18 12l29 24q18 13 23 25l2 16l-3 20l-3 5
l-2 2q-14 -19 -36 -31q-11 -6 -20 -6l-10 2l-4 18l4 30l4 30l13 47l9 24l-1 9q-8 8 -17 12t-23 4q-27 -12 -46 -44q-42 -73 -60 -89l-8 -23l-9 -19q-12 -28 -29 -35z" />
    <glyph glyph-name="igrave" unicode="&#xec;" horiz-adv-x="407" 
d="M40 58q-6 2 -10 8l-11 37q-7 4 -17 4q-6 0 -13 -13l-13 -27l6 -22q6 -17 6 -25q1 -3 3 -6t6 -8l9 -11q0 -9 11 -9q21 0 39 30q16 16 38 46l33 50l4 -7l1 -12l-3 -20l1 -17q0 -7 7 -22l9 -24q12 -6 24 -6q30 0 64 37q20 21 44 63l3 -7q0 -10 -2 -12l-1 -7v-4q0 -10 5 -20
l5 -21q14 -15 34 -15q11 0 16 2l16 9l46 34q13 12 13 26l-4 24q0 9 -6 11q-29 -44 -54 -38q-7 11 -7 29v14l3 22l4 21q3 10 8 16q6 3 -2 13q-17 22 -35 22l-19 -12l-16 -33q-3 -14 -26 -28q-9 -6 -16 -19l-20 -32q-14 -25 -27 -23q-3 3 -3 13l1 24l6 26l7 47l14 31l13 28
q0 6 -18 20q-18 12 -30 9q-27 -21 -45 -61q-36 -86 -59 -100l-18 -30q-10 -16 -24 -25z" />
    <glyph glyph-name="igrave" unicode="&#x43c;" horiz-adv-x="407" 
d="M40 58q-6 2 -10 8l-11 37q-7 4 -17 4q-6 0 -13 -13l-13 -27l6 -22q6 -17 6 -25q1 -3 3 -6t6 -8l9 -11q0 -9 11 -9q21 0 39 30q16 16 38 46l33 50l4 -7l1 -12l-3 -20l1 -17q0 -7 7 -22l9 -24q12 -6 24 -6q30 0 64 37q20 21 44 63l3 -7q0 -10 -2 -12l-1 -7v-4q0 -10 5 -20
l5 -21q14 -15 34 -15q11 0 16 2l16 9l46 34q13 12 13 26l-4 24q0 9 -6 11q-29 -44 -54 -38q-7 11 -7 29v14l3 22l4 21q3 10 8 16q6 3 -2 13q-17 22 -35 22l-19 -12l-16 -33q-3 -14 -26 -28q-9 -6 -16 -19l-20 -32q-14 -25 -27 -23q-3 3 -3 13l1 24l6 26l7 47l14 31l13 28
q0 6 -18 20q-18 12 -30 9q-27 -21 -45 -61q-36 -86 -59 -100l-18 -30q-10 -16 -24 -25z" />
    <glyph glyph-name="iacute" unicode="&#xed;" horiz-adv-x="356" 
d="M119 147q3 13 27 74q8 18 11 35l-2 5q-3 7 -6 11.5t-11 4.5q-7 0 -15 -5l-16 -11l-17 -18l-6 -7l-8 -12l-28 -37l-16 -23l-21 -22q-25 -25 -25 -43q0 -10 5 -19l4 -6l25 21l18 20l14 20l-9 -36l-7 -25q0 -14 -2 -18l-6 -23l-5 -33q0 -12 11 -13l19 -2l18 2q9 0 15.5 13.5
t6.5 32.5v11l3 23q3 18 10 29l6 -1l9 -4l13 -16q5 -7 17 -14l11 -12l15 -4l13 2l21 21l8 8l-1 -14q0 -16 5 -29l9 -21q11 -12 23 -12q10 0 13 2l32 25l36 29q27 24 24 38l-1 30l-6 7l-20 -24l-15 -15q-18 -15 -30 -12q-6 8 -6 31q0 10 1 22.5t4 24.5l9 29l4 17q0 15 -17 19
q-16 2 -28 -4t-25 -34q-11 -28 -11 -46l-12 -16q-6 -6 -11 -7l-5 2l-7 5l-11 17q-6 8 -14 14l-9 3l-10 -3z" />
    <glyph glyph-name="iacute" unicode="&#x43d;" horiz-adv-x="356" 
d="M119 147q3 13 27 74q8 18 11 35l-2 5q-3 7 -6 11.5t-11 4.5q-7 0 -15 -5l-16 -11l-17 -18l-6 -7l-8 -12l-28 -37l-16 -23l-21 -22q-25 -25 -25 -43q0 -10 5 -19l4 -6l25 21l18 20l14 20l-9 -36l-7 -25q0 -14 -2 -18l-6 -23l-5 -33q0 -12 11 -13l19 -2l18 2q9 0 15.5 13.5
t6.5 32.5v11l3 23q3 18 10 29l6 -1l9 -4l13 -16q5 -7 17 -14l11 -12l15 -4l13 2l21 21l8 8l-1 -14q0 -16 5 -29l9 -21q11 -12 23 -12q10 0 13 2l32 25l36 29q27 24 24 38l-1 30l-6 7l-20 -24l-15 -15q-18 -15 -30 -12q-6 8 -6 31q0 10 1 22.5t4 24.5l9 29l4 17q0 15 -17 19
q-16 2 -28 -4t-25 -34q-11 -28 -11 -46l-12 -16q-6 -6 -11 -7l-5 2l-7 5l-11 17q-6 8 -14 14l-9 3l-10 -3z" />
    <glyph glyph-name="icircumflex" unicode="&#xee;" horiz-adv-x="312" 
d="M68 10q3 -5 16 -11l25 -3q36 0 66 21l42 40l12 15l11 12l2 5l4 8l20 32q9 18 9 45q0 25 -7 45q-17 24 -45 24q-20 0 -43 -13q-3 3 1 12l6 12q-1 2 -2.5 3.5l-2.5 2.5l-21 2h-6l-5 -2l-64 -65q-7 -4 -42 -37l-46 -45v-13l2 -15v-17l7 6l21 18q12 12 21 12l-4 -26l-3 -32
q0 -16 5.5 -24.5t20.5 -11.5zM207 102l-12 -15l-9 -9l-18 -14q-22 -19 -40 -19q-19 0 -19 31q0 24 24 57q9 0 19 11l18 22q7 5 23 8q9 0 16 -10t10 -28q0 -19 -12 -34zM238 21l13 6l30 20l26 18q17 12 17 29q-6 20 -12 23l-10 -7l-13 -12q-6 -14 -19 -24l-16 -15l-14 -16
l-7 -16q2 -4 3 -5t2 -1z" />
    <glyph glyph-name="icircumflex" unicode="&#x43e;" horiz-adv-x="312" 
d="M68 10q3 -5 16 -11l25 -3q36 0 66 21l42 40l12 15l11 12l2 5l4 8l20 32q9 18 9 45q0 25 -7 45q-17 24 -45 24q-20 0 -43 -13q-3 3 1 12l6 12q-1 2 -2.5 3.5l-2.5 2.5l-21 2h-6l-5 -2l-64 -65q-7 -4 -42 -37l-46 -45v-13l2 -15v-17l7 6l21 18q12 12 21 12l-4 -26l-3 -32
q0 -16 5.5 -24.5t20.5 -11.5zM207 102l-12 -15l-9 -9l-18 -14q-22 -19 -40 -19q-19 0 -19 31q0 24 24 57q9 0 19 11l18 22q7 5 23 8q9 0 16 -10t10 -28q0 -19 -12 -34zM238 21l13 6l30 20l26 18q17 12 17 29q-6 20 -12 23l-10 -7l-13 -12q-6 -14 -19 -24l-16 -15l-14 -16
l-7 -16q2 -4 3 -5t2 -1z" />
    <glyph glyph-name="idieresis" unicode="&#xef;" horiz-adv-x="385" 
d="M106 -16l72 84l36 30q12 11 20 14q6 0 18 -18q9 -6 22 -28l19 -31q6 -4 21 -7q18 0 38 17l31 31l-3 18l-1 27l-16 -14q-5 -7 -15 -10l-10 3q-12 6 -25 34l-20 50q-12 6 -25 6q-28 0 -71 -43l-35 -40l-13 -17l-8 -8q-3 7 4 30l15 46l9 23l3 13l2 16q0 12 -4 20
q-8 21 -24 21l-19 -6l-19 -9l-36 -38q-36 -36 -56 -69q-9 -6 -9 -24l1 -23l-2 -10l4 -5q5 2 12 13l17 19l24 28q6 9 17 9q8 0 8 -9q0 -6 -6 -18l-9 -34q-6 -18 -4 -26l-8 -18q-6 -15 -6 -25l2 -10q-3 -15 0 -19q6 -3 22 -3q23 0 27 10z" />
    <glyph glyph-name="idieresis" unicode="&#x43f;" horiz-adv-x="385" 
d="M106 -16l72 84l36 30q12 11 20 14q6 0 18 -18q9 -6 22 -28l19 -31q6 -4 21 -7q18 0 38 17l31 31l-3 18l-1 27l-16 -14q-5 -7 -15 -10l-10 3q-12 6 -25 34l-20 50q-12 6 -25 6q-28 0 -71 -43l-35 -40l-13 -17l-8 -8q-3 7 4 30l15 46l9 23l3 13l2 16q0 12 -4 20
q-8 21 -24 21l-19 -6l-19 -9l-36 -38q-36 -36 -56 -69q-9 -6 -9 -24l1 -23l-2 -10l4 -5q5 2 12 13l17 19l24 28q6 9 17 9q8 0 8 -9q0 -6 -6 -18l-9 -34q-6 -18 -4 -26l-8 -18q-6 -15 -6 -25l2 -10q-3 -15 0 -19q6 -3 22 -3q23 0 27 10z" />
    <glyph glyph-name="eth" unicode="&#xf0;" horiz-adv-x="307" 
d="M51 -201l8 13q6 12 6 28q6 12 14 38q4 14 9 32l16 42q4 10 6 16.5t7 25.5l13 27l18 44q9 27 20 27l5 -2l8 -6l16 -16q25 -25 46 -25q15 0 36 12l26 17l2 33l-1 7l-1 5l-10 -3q-18 -15 -27 -15l-15 3q-6 3 -15 15q-6 22 -23 39q-20 23 -37 23q-18 0 -30 -25
q-17 -26 -40 -87l-30 -90l-10 -31q-9 -35 -15 -40q6 40 19 86l36 136l16 55q9 33 23 47l4 23l10 25l4 14l4 19q0 30 -13 33l-5 -2l-6 -6l-12 -14q-27 -61 -55 -110q-34 -58 -74 -97q0 -18 -4 -23l2 -10q0 -12 2 -14q6 0 15 12q6 11 18 16q0 -39 -21 -177q-5 -40 -6 -49
q-4 -36 -4 -59l-1 -10q0 -27 21 -27q18 0 25 25z" />
    <glyph glyph-name="eth" unicode="&#x440;" horiz-adv-x="307" 
d="M51 -201l8 13q6 12 6 28q6 12 14 38q4 14 9 32l16 42q4 10 6 16.5t7 25.5l13 27l18 44q9 27 20 27l5 -2l8 -6l16 -16q25 -25 46 -25q15 0 36 12l26 17l2 33l-1 7l-1 5l-10 -3q-18 -15 -27 -15l-15 3q-6 3 -15 15q-6 22 -23 39q-20 23 -37 23q-18 0 -30 -25
q-17 -26 -40 -87l-30 -90l-10 -31q-9 -35 -15 -40q6 40 19 86l36 136l16 55q9 33 23 47l4 23l10 25l4 14l4 19q0 30 -13 33l-5 -2l-6 -6l-12 -14q-27 -61 -55 -110q-34 -58 -74 -97q0 -18 -4 -23l2 -10q0 -12 2 -14q6 0 15 12q6 11 18 16q0 -39 -21 -177q-5 -40 -6 -49
q-4 -36 -4 -59l-1 -10q0 -27 21 -27q18 0 25 25z" />
    <glyph glyph-name="ntilde" unicode="&#xf1;" horiz-adv-x="267" 
d="M14 125q-12 -6 -13 -19l1 -22l-1 -13l9 1l11 4l5 -30l9 -25l22 -17q20 -15 48 -15t61 16q22 11 55 34l11 6l15 12q16 13 22 27l-2 13q0 10 2 14l-11 11l-4 -5q0 -12 -52 -45l-38 -21l-26 -4q-18 0 -30 6t-12 19l-2 18q0 28 39 58l49 36q28 14 40 26q16 16 16 35
q0 8 -6 25q-18 3 -43 -10l-15 -10q-7 -3 -12 -10q-22 -10 -65 -44t-46 -44q-13 -3 -30 -20z" />
    <glyph glyph-name="ntilde" unicode="&#x441;" horiz-adv-x="267" 
d="M14 125q-12 -6 -13 -19l1 -22l-1 -13l9 1l11 4l5 -30l9 -25l22 -17q20 -15 48 -15t61 16q22 11 55 34l11 6l15 12q16 13 22 27l-2 13q0 10 2 14l-11 11l-4 -5q0 -12 -52 -45l-38 -21l-26 -4q-18 0 -30 6t-12 19l-2 18q0 28 39 58l49 36q28 14 40 26q16 16 16 35
q0 8 -6 25q-18 3 -43 -10l-15 -10q-7 -3 -12 -10q-22 -10 -65 -44t-46 -44q-13 -3 -30 -20z" />
    <glyph glyph-name="ograve" unicode="&#xf2;" horiz-adv-x="505" 
d="M69 2q7 3 9 8q13 17 22 23l20 26l19 21l36 37q40 34 49 34q6 0 6 -10q0 -13 -7 -37l-7 -32q-3 -16 -10 -31l-10 -37q6 -15 17 -15t24 13l45 49l23 25l21 19q9 9 18 12q15 0 38 -24q23 -27 33 -34q19 -11 35 -11q18 0 35 13l22 23l-1 14v15l1 20l-8 -5l-10 -8
q-10 -10 -22 -13q-8 0 -15 8l-13 19l-11 17q-11 41 -38 41q-22 0 -54 -26l-46 -43l1 19q0 11 4 23q12 56 12 70q0 32 -21 32q-22 0 -61 -42l-32 -33q-16 -19 -34 -30q-8 -8 -16 -11l1 22l9 44l1 11l-2 12q-3 12 -18 12q-9 0 -30 -12l-21 -18l-24 -26l-66 -73l2 -45
q8 3 34.5 35.5t37.5 29.5q7 -3 -2 -30l-13 -45l-14 -44q0 -6 6 -12l13 -4q8 0 12 4z" />
    <glyph glyph-name="ograve" unicode="&#x442;" horiz-adv-x="505" 
d="M69 2q7 3 9 8q13 17 22 23l20 26l19 21l36 37q40 34 49 34q6 0 6 -10q0 -13 -7 -37l-7 -32q-3 -16 -10 -31l-10 -37q6 -15 17 -15t24 13l45 49l23 25l21 19q9 9 18 12q15 0 38 -24q23 -27 33 -34q19 -11 35 -11q18 0 35 13l22 23l-1 14v15l1 20l-8 -5l-10 -8
q-10 -10 -22 -13q-8 0 -15 8l-13 19l-11 17q-11 41 -38 41q-22 0 -54 -26l-46 -43l1 19q0 11 4 23q12 56 12 70q0 32 -21 32q-22 0 -61 -42l-32 -33q-16 -19 -34 -30q-8 -8 -16 -11l1 22l9 44l1 11l-2 12q-3 12 -18 12q-9 0 -30 -12l-21 -18l-24 -26l-66 -73l2 -45
q8 3 34.5 35.5t37.5 29.5q7 -3 -2 -30l-13 -45l-14 -44q0 -6 6 -12l13 -4q8 0 12 4z" />
    <glyph glyph-name="oacute" unicode="&#xf3;" horiz-adv-x="355" 
d="M148 -78l-23 -24l-25 -30l-32 -44l-8 8q-6 7 -8 18q0 9 2 13l18 21l14 12l30 16zM138 -44l-40 -18l-12 -5l-17 -10l-13 -11l-10 -11l-14 -13l-11 -14l-4 -14q0 -6 -1 -7.5l-3 -4.5t-2 -9l-1 -19q-5 -8 5 -26l14 -23q3 -6 19 -7q17 0 30 8q17 6 27 20l20 24q5 2 12 14
l13 14q14 29 37 61l26 34q18 37 67 80l71 61v17v24q-6 1 -9 0q-8 -4 -18 -14l-25 -21l-16 -17q-3 -6 -10 -10l-2 -2l4 28l30 85l9 28l5 22q0 6 -5 10q-35 0 -65 -29l-58 -56q-8 -4 -29 -28q-30 -20 -37 -29q-12 -3 -12 12l28 91q2 15 -6.5 20.5t-21.5 5.5q-10 -2 -27 -20
l-33 -35l-36 -35l-17 -18l1 -20l-3 -21l2 -5q9 4 24 20l21 17l2 -8l3 -11q0 -16 3 -22l-2 -22q0 -12 9 -18l19 -4q25 0 52 36q12 0 26 13l21 22q0 6 15 18l24 15q3 -4 3 -8l-3 -22l-4 -36q-5 -6 -20 -41l-13 -35z" />
    <glyph glyph-name="oacute" unicode="&#x443;" horiz-adv-x="355" 
d="M148 -78l-23 -24l-25 -30l-32 -44l-8 8q-6 7 -8 18q0 9 2 13l18 21l14 12l30 16zM138 -44l-40 -18l-12 -5l-17 -10l-13 -11l-10 -11l-14 -13l-11 -14l-4 -14q0 -6 -1 -7.5l-3 -4.5t-2 -9l-1 -19q-5 -8 5 -26l14 -23q3 -6 19 -7q17 0 30 8q17 6 27 20l20 24q5 2 12 14
l13 14q14 29 37 61l26 34q18 37 67 80l71 61v17v24q-6 1 -9 0q-8 -4 -18 -14l-25 -21l-16 -17q-3 -6 -10 -10l-2 -2l4 28l30 85l9 28l5 22q0 6 -5 10q-35 0 -65 -29l-58 -56q-8 -4 -29 -28q-30 -20 -37 -29q-12 -3 -12 12l28 91q2 15 -6.5 20.5t-21.5 5.5q-10 -2 -27 -20
l-33 -35l-36 -35l-17 -18l1 -20l-3 -21l2 -5q9 4 24 20l21 17l2 -8l3 -11q0 -16 3 -22l-2 -22q0 -12 9 -18l19 -4q25 0 52 36q12 0 26 13l21 22q0 6 15 18l24 15q3 -4 3 -8l-3 -22l-4 -36q-5 -6 -20 -41l-13 -35z" />
    <glyph glyph-name="ocircumflex" unicode="&#xf4;" horiz-adv-x="385" 
d="M15 60q13 10 22 13l-5 -29q0 -15 7 -26q12 -15 29 -22q10 -4 17.5 -5.5t17.5 -1.5l18 2l19 5l13 4l17 14l17 17h7v-9l-2 -14l-3 -25l-12 -78l-6 -58l-17 -80l-1 -10q0 -15 13 -15q14 0 25 11l9 25l6 26l9 35l11 41q10 39 26 154l10 93q3 15 14.5 28t26.5 14q13 0 21 -11
q8 -8 8 -22q0 -11 -4 -23l-7 -21q-12 -28 -36 -46l-16 -13l-8 -7q0 -14 7.5 -24.5t23.5 -9.5q16 5 65.5 38t56.5 42l3 9l1 17q0 17 -9 19q-9 0 -20 -10l-16 -13l5 17v8l4 24q0 18 -5 31q-3 15 -13.5 26.5t-35.5 20.5q-19 5 -38 5q-10 0 -15 -2l-14 -5q-6 -1 -14 -11l-12 -13
q-11 -12 -15 -22q-9 -37 -22 -64q-9 -26 -32 -46.5t-40 -20.5q-13 0 -26 13q-3 5 0 18q3 12 11 20q0 6 18 27l46 47l22 15l15 11l14 13l10 8q6 6 7 16l-14 14q-6 6 -17 6q-9 0 -35 -13l-20 -11l-24 -19l-7 -11q-16 -8 -35 -23l-33 -28l-29 -21q-11 -7 -14 -18l3 -24z" />
    <glyph glyph-name="ocircumflex" unicode="&#x444;" horiz-adv-x="385" 
d="M15 60q13 10 22 13l-5 -29q0 -15 7 -26q12 -15 29 -22q10 -4 17.5 -5.5t17.5 -1.5l18 2l19 5l13 4l17 14l17 17h7v-9l-2 -14l-3 -25l-12 -78l-6 -58l-17 -80l-1 -10q0 -15 13 -15q14 0 25 11l9 25l6 26l9 35l11 41q10 39 26 154l10 93q3 15 14.5 28t26.5 14q13 0 21 -11
q8 -8 8 -22q0 -11 -4 -23l-7 -21q-12 -28 -36 -46l-16 -13l-8 -7q0 -14 7.5 -24.5t23.5 -9.5q16 5 65.5 38t56.5 42l3 9l1 17q0 17 -9 19q-9 0 -20 -10l-16 -13l5 17v8l4 24q0 18 -5 31q-3 15 -13.5 26.5t-35.5 20.5q-19 5 -38 5q-10 0 -15 -2l-14 -5q-6 -1 -14 -11l-12 -13
q-11 -12 -15 -22q-9 -37 -22 -64q-9 -26 -32 -46.5t-40 -20.5q-13 0 -26 13q-3 5 0 18q3 12 11 20q0 6 18 27l46 47l22 15l15 11l14 13l10 8q6 6 7 16l-14 14q-6 6 -17 6q-9 0 -35 -13l-20 -11l-24 -19l-7 -11q-16 -8 -35 -23l-33 -28l-29 -21q-11 -7 -14 -18l3 -24z" />
    <glyph glyph-name="otilde" unicode="&#xf5;" horiz-adv-x="295" 
d="M189 191l-26 -34q-15 -18 -27 -24l-4 3q-4 3 -9 14.5t-2 23.5q4 7 14 15l27 24q8 3 19 12l12 11q13 0 13 -11q0 -8 -4 -16zM54 4q30 15 51 45l6 -5l12 -10l20 -18q17 -15 36 -15q18 0 41 13l30 19q9 2 18 9l34 32v31v16h-5l-12 -12q-11 -20 -37 -35q-12 0 -18 -6l-32 -7
q-20 0 -40 27q-3 6 33 40q20 19 24 26l21 23l22 30q14 17 14 39q0 20 -11 35.5t-26 15.5q-6 0 -17 -7l-17 -14l-43 -38l-40 -31h-13l-9 30q-3 12 -7 17l-10 6q-10 0 -20.5 -9.5t-15.5 -27.5l-2 -13q0 -9 4 -20l9 -28l-3 -10q-7 -7 -34 -23q-18 -9 -21 -18l-3 -35q0 -8 4 -11
l6 4l10 11l26 23l29 26l5 -7l9 -16l11 -28q-4 -6 -37 -38l-35 -34q-3 -6 3 -9l13 -3l10 5z" />
    <glyph glyph-name="otilde" unicode="&#x445;" horiz-adv-x="295" 
d="M189 191l-26 -34q-15 -18 -27 -24l-4 3q-4 3 -9 14.5t-2 23.5q4 7 14 15l27 24q8 3 19 12l12 11q13 0 13 -11q0 -8 -4 -16zM54 4q30 15 51 45l6 -5l12 -10l20 -18q17 -15 36 -15q18 0 41 13l30 19q9 2 18 9l34 32v31v16h-5l-12 -12q-11 -20 -37 -35q-12 0 -18 -6l-32 -7
q-20 0 -40 27q-3 6 33 40q20 19 24 26l21 23l22 30q14 17 14 39q0 20 -11 35.5t-26 15.5q-6 0 -17 -7l-17 -14l-43 -38l-40 -31h-13l-9 30q-3 12 -7 17l-10 6q-10 0 -20.5 -9.5t-15.5 -27.5l-2 -13q0 -9 4 -20l9 -28l-3 -10q-7 -7 -34 -23q-18 -9 -21 -18l-3 -35q0 -8 4 -11
l6 4l10 11l26 23l29 26l5 -7l9 -16l11 -28q-4 -6 -37 -38l-35 -34q-3 -6 3 -9l13 -3l10 5z" />
    <glyph glyph-name="odieresis" unicode="&#xf6;" horiz-adv-x="407" 
d="M300 8l-13 -16l-17 -17l-23 -42q-9 -20 -9 -30q0 -12 9 -18l11 -2h14l16 4q66 36 66 104l-2 21l29 29l14 15l12 18v17l1 20l-1 12q-6 0 -16 -13l-25 -36l-7 -10l-11 -9q0 15 -6.5 31t-17.5 16l-23 -13q-9 -6 -16 -6q-9 0 -16 10l-7 26q6 2 15 24q6 14 6 23q0 21 -26 21
q-16 0 -36 -23l-39 -47l-39 -47l-14 -9l-7 -3l-4 -1q-6 9 -6 32q0 39 12 75q0 9 10 38l7 23l4 17q0 6 -4 11l-9 4q-7 0 -17 -5l-19 -12l-42 -62q-27 -36 -51 -57l-7 -32l1 -19q3 2 5 3q10 6 14 9q14 11 20 20l9 -18q0 -34 5.5 -53t16.5 -27q14 -6 27 -6q28 0 58 26l21 21
l21 29l11 -9q15 -44 52 -44l7 2l13 8l11 6zM305 -55l-10 -12l-11 -11q-3 2 -5 7q0 10 11.5 25t20.5 21l3 -10q-1 -4 -2.5 -7.5t-6.5 -12.5z" />
    <glyph glyph-name="odieresis" unicode="&#x446;" horiz-adv-x="407" 
d="M300 8l-13 -16l-17 -17l-23 -42q-9 -20 -9 -30q0 -12 9 -18l11 -2h14l16 4q66 36 66 104l-2 21l29 29l14 15l12 18v17l1 20l-1 12q-6 0 -16 -13l-25 -36l-7 -10l-11 -9q0 15 -6.5 31t-17.5 16l-23 -13q-9 -6 -16 -6q-9 0 -16 10l-7 26q6 2 15 24q6 14 6 23q0 21 -26 21
q-16 0 -36 -23l-39 -47l-39 -47l-14 -9l-7 -3l-4 -1q-6 9 -6 32q0 39 12 75q0 9 10 38l7 23l4 17q0 6 -4 11l-9 4q-7 0 -17 -5l-19 -12l-42 -62q-27 -36 -51 -57l-7 -32l1 -19q3 2 5 3q10 6 14 9q14 11 20 20l9 -18q0 -34 5.5 -53t16.5 -27q14 -6 27 -6q28 0 58 26l21 21
l21 29l11 -9q15 -44 52 -44l7 2l13 8l11 6zM305 -55l-10 -12l-11 -11q-3 2 -5 7q0 10 11.5 25t20.5 21l3 -10q-1 -4 -2.5 -7.5t-6.5 -12.5z" />
    <glyph glyph-name="divide" unicode="&#xf7;" horiz-adv-x="267" 
d="M0 74v-6q8 5 25 30l23 23q9 9 9 14l19 22l18 19q20 -18 43 -18q9 0 17 4q-7 -14 -16 -44l-19 -73q-5 -7 -8 -28q0 -12 9 -21t30 -9q6 0 24 9l27 15l37 30l24 17l1 7l4 10l7 20q0 7 -2 10q0 12 -4 13l-6 -6l-35 -29l-22 -14l-11 -6l-9 -3l-2 5l13 48l7 35l9 20l19 28
q13 18 11 27l-3 6q-5 12 -16 12l-28 -9l-30 -4h-12q-8 0 -16 2l-24 6l-14 25q-3 7 -13 7l-14 -6l-18 -11q-15 -12 -15 -21v-10l10 -31q0 -7 -10 -17l-18 -28l-23 -33l-1 -7v-4l1 -15q0 -7 2 -11z" />
    <glyph glyph-name="divide" unicode="&#x447;" horiz-adv-x="267" 
d="M0 74v-6q8 5 25 30l23 23q9 9 9 14l19 22l18 19q20 -18 43 -18q9 0 17 4q-7 -14 -16 -44l-19 -73q-5 -7 -8 -28q0 -12 9 -21t30 -9q6 0 24 9l27 15l37 30l24 17l1 7l4 10l7 20q0 7 -2 10q0 12 -4 13l-6 -6l-35 -29l-22 -14l-11 -6l-9 -3l-2 5l13 48l7 35l9 20l19 28
q13 18 11 27l-3 6q-5 12 -16 12l-28 -9l-30 -4h-12q-8 0 -16 2l-24 6l-14 25q-3 7 -13 7l-14 -6l-18 -11q-15 -12 -15 -21v-10l10 -31q0 -7 -10 -17l-18 -28l-23 -33l-1 -7v-4l1 -15q0 -7 2 -11z" />
    <glyph glyph-name="oslash" unicode="&#xf8;" horiz-adv-x="458" 
d="M388 117q5 3 9 28l5 35q0 7 -14 15q-12 9 -26 9q-13 0 -29 -34q-17 -42 -24 -52l-20 -20l-22 -24q-12 -6 -18 -6q-12 0 -12 18l1 19l7 23l14 39q0 10 7 27l8 25q0 6 -3.5 9.5t-17.5 6.5q-15 0 -29 -11l-31 -56l-51 -90l-15 -9l-7 -3l-4 -1q-6 9 -6 32q0 39 12 75l4 23
q9 35 9 44t-4 14l-9 4q-10 0 -19 -5l-19 -12l-37 -58q-20 -30 -46 -53q-5 -7 -5 -23q0 -15 2 -20l1 -4l2 -2q6 0 16 10l17 20l10 -18q0 -62 21 -80q21 -9 36 -9q21 0 41 19l31 44l10 -1q0 -32 19 -47q8 -4 25 -7q22 0 45 17q12 9 23 20t22 26q6 3 16 -16q14 -27 49 -27
q17 0 37 13l39 26l4 32q0 14 -4 17l-33 -22q-7 -4 -21 -8q-16 0 -16 28z" />
    <glyph glyph-name="oslash" unicode="&#x448;" horiz-adv-x="458" 
d="M388 117q5 3 9 28l5 35q0 7 -14 15q-12 9 -26 9q-13 0 -29 -34q-17 -42 -24 -52l-20 -20l-22 -24q-12 -6 -18 -6q-12 0 -12 18l1 19l7 23l14 39q0 10 7 27l8 25q0 6 -3.5 9.5t-17.5 6.5q-15 0 -29 -11l-31 -56l-51 -90l-15 -9l-7 -3l-4 -1q-6 9 -6 32q0 39 12 75l4 23
q9 35 9 44t-4 14l-9 4q-10 0 -19 -5l-19 -12l-37 -58q-20 -30 -46 -53q-5 -7 -5 -23q0 -15 2 -20l1 -4l2 -2q6 0 16 10l17 20l10 -18q0 -62 21 -80q21 -9 36 -9q21 0 41 19l31 44l10 -1q0 -32 19 -47q8 -4 25 -7q22 0 45 17q12 9 23 20t22 26q6 3 16 -16q14 -27 49 -27
q17 0 37 13l39 26l4 32q0 14 -4 17l-33 -22q-7 -4 -21 -8q-16 0 -16 28z" />
    <glyph glyph-name="ugrave" unicode="&#xf9;" horiz-adv-x="500" 
d="M379 120q0 -33 14 -33q6 0 17 7l20 15q4 3 17 -18l13 -34q12 12 19 29l24 21q3 10 9 16l2 -4l2 -21v-20q-6 -12 -20 -29l-27 -29l1 -13q0 -31 -18 -61t-47 -51l-28 -3q-8 -3 -17 -1q-12 6 -12 22t14 38l21 33l14 16l18 18l-7 18q-9 -5 -29 -8q-18 0 -30 9q-7 5 -18 32
q-4 2 -6 2l-7 -5q-15 -24 -41.5 -41.5t-50.5 -17.5q-16 0 -27 8q-15 11 -18 31l-1 13l-3 8l-7 -4q-21 -33 -31 -43q-18 -20 -41 -20q-15 0 -36 9q-21 14 -21 79l-10 19l-16 -19q-11 -9 -17 -11l-3 9l-2 18q0 16 5 22q23 19 55 66l28 45l19 12q10 5 19 5q6 0 9 -3.5t4 -14.5
l-4 -25l-9 -42l-8 -36l-4 -40q0 -19 6 -31q3 -3 10 2l16 11l32 55l50 91q14 11 30 11q9 0 14.5 -4t5.5 -12q0 -7 -8 -26l-7 -26l-9 -27l-13 -54q0 -18 12 -18q6 0 18 6l12 14l14 14l15 15q5 7 25 52q12 31 29 35q11 0 24 -9t16 -19q0 -14 -2 -18l-6 -17q-4 -10 -12 -18z
M421 -51l4 19l1 12q-10 -7 -21 -19q-15 -17 -15 -28q0 -6 9 -9q6 0 13 13z" />
    <glyph glyph-name="ugrave" unicode="&#x449;" horiz-adv-x="500" 
d="M379 120q0 -33 14 -33q6 0 17 7l20 15q4 3 17 -18l13 -34q12 12 19 29l24 21q3 10 9 16l2 -4l2 -21v-20q-6 -12 -20 -29l-27 -29l1 -13q0 -31 -18 -61t-47 -51l-28 -3q-8 -3 -17 -1q-12 6 -12 22t14 38l21 33l14 16l18 18l-7 18q-9 -5 -29 -8q-18 0 -30 9q-7 5 -18 32
q-4 2 -6 2l-7 -5q-15 -24 -41.5 -41.5t-50.5 -17.5q-16 0 -27 8q-15 11 -18 31l-1 13l-3 8l-7 -4q-21 -33 -31 -43q-18 -20 -41 -20q-15 0 -36 9q-21 14 -21 79l-10 19l-16 -19q-11 -9 -17 -11l-3 9l-2 18q0 16 5 22q23 19 55 66l28 45l19 12q10 5 19 5q6 0 9 -3.5t4 -14.5
l-4 -25l-9 -42l-8 -36l-4 -40q0 -19 6 -31q3 -3 10 2l16 11l32 55l50 91q14 11 30 11q9 0 14.5 -4t5.5 -12q0 -7 -8 -26l-7 -26l-9 -27l-13 -54q0 -18 12 -18q6 0 18 6l12 14l14 14l15 15q5 7 25 52q12 31 29 35q11 0 24 -9t16 -19q0 -14 -2 -18l-6 -17q-4 -10 -12 -18z
M421 -51l4 19l1 12q-10 -7 -21 -19q-15 -17 -15 -28q0 -6 9 -9q6 0 13 13z" />
    <glyph glyph-name="uacute" unicode="&#xfa;" horiz-adv-x="305" 
d="M123 2l33 -7q43 0 75 31q37 35 37 90v22l-4 15l-6 12l-8 17q-9 12 -15 15l-11 4l-15 -2l-14 -3l-5 -13q0 -14 8 -19l4 -10l7 -9q10 -10 10 -26q0 -15 -8 -30l-12 -21l-14 -9l-7 -3l-4 -1q-6 9 -6 32q0 39 12 75v12q1 3 1.5 8t3.5 11l16 65l-3 13q-3 3 -28 -3l-23 -7
q-15 -3 -40 7l-29 11q-6 0 -9 -3q-14 -13 -31 -36.5t-16 -35.5l10 -10l18 -22q14 8 23.5 21.5t15.5 29.5q5 -5 20 -9l13 -1h14l-23 -63l-13 -54q0 -33 6 -59.5t17 -34.5z" />
    <glyph glyph-name="uacute" unicode="&#x44a;" horiz-adv-x="305" 
d="M123 2l33 -7q43 0 75 31q37 35 37 90v22l-4 15l-6 12l-8 17q-9 12 -15 15l-11 4l-15 -2l-14 -3l-5 -13q0 -14 8 -19l4 -10l7 -9q10 -10 10 -26q0 -15 -8 -30l-12 -21l-14 -9l-7 -3l-4 -1q-6 9 -6 32q0 39 12 75v12q1 3 1.5 8t3.5 11l16 65l-3 13q-3 3 -28 -3l-23 -7
q-15 -3 -40 7l-29 11q-6 0 -9 -3q-14 -13 -31 -36.5t-16 -35.5l10 -10l18 -22q14 8 23.5 21.5t15.5 29.5q5 -5 20 -9l13 -1h14l-23 -63l-13 -54q0 -33 6 -59.5t17 -34.5z" />
    <glyph glyph-name="ucircumflex" unicode="&#xfb;" horiz-adv-x="367" 
d="M73 3l33 -7q43 0 75 31q37 35 37 90v22l-4 15l20 4l11 5q1 -7 1 -12q0 -12 -3 -30l-3 -37q0 -14 13.5 -30t40.5 -16q21 0 33 8l30 17q13 3 13 34q0 15 -2 18l-1 4l-2 3l-18 -13q-15 -12 -24 -12q-8 0 -14 7l-9 32l5 26l3 31q0 21 -8 25l-20 -3q-12 0 -19 -4l-54 -27
l-27 -11l-25 -6l2 -11v-7l2 -3q10 -10 10 -26q0 -15 -8 -30l-12 -21l-14 -9l-7 -3l-4 -1q-6 9 -6 32q0 39 12 75q0 6 2 15t9 31q4 14 7.5 28t3.5 21q0 9 -4 13l-9 4q-3 -1 -7 -1.5t-10 -3.5l-20 -13l-42 -71q-30 -48 -51 -66q-6 -3 -10 -16l-3 -21q0 -17 5 -20l6 3
q7 3 15 13l20 22l9 -18q0 -34 5.5 -53t16.5 -27z" />
    <glyph glyph-name="ucircumflex" unicode="&#x44b;" horiz-adv-x="367" 
d="M73 3l33 -7q43 0 75 31q37 35 37 90v22l-4 15l20 4l11 5q1 -7 1 -12q0 -12 -3 -30l-3 -37q0 -14 13.5 -30t40.5 -16q21 0 33 8l30 17q13 3 13 34q0 15 -2 18l-1 4l-2 3l-18 -13q-15 -12 -24 -12q-8 0 -14 7l-9 32l5 26l3 31q0 21 -8 25l-20 -3q-12 0 -19 -4l-54 -27
l-27 -11l-25 -6l2 -11v-7l2 -3q10 -10 10 -26q0 -15 -8 -30l-12 -21l-14 -9l-7 -3l-4 -1q-6 9 -6 32q0 39 12 75q0 6 2 15t9 31q4 14 7.5 28t3.5 21q0 9 -4 13l-9 4q-3 -1 -7 -1.5t-10 -3.5l-20 -13l-42 -71q-30 -48 -51 -66q-6 -3 -10 -16l-3 -21q0 -17 5 -20l6 3
q7 3 15 13l20 22l9 -18q0 -34 5.5 -53t16.5 -27z" />
    <glyph glyph-name="udieresis" unicode="&#xfc;" horiz-adv-x="229" 
d="M73 2l33 -7q43 0 75 31q37 35 37 90v22l-4 15l-6 12l-8 17q-9 12 -15 15l-11 4l-15 -2l-14 -3l-5 -13q0 -14 8 -19l4 -10l7 -9q10 -10 10 -26q0 -15 -8 -30l-12 -21l-14 -9l-7 -3l-4 -1q-6 9 -6 32q0 39 12 75v12q1 3 1.5 8t3.5 11l16 65l-3 13q-3 3 -9 3q-3 -1 -7 -1.5
t-10 -3.5l-20 -13l-42 -71q-30 -48 -51 -66q-6 -3 -10 -16l-3 -21q0 -17 5 -20l6 3q7 3 15 13l20 22l9 -18q0 -34 5.5 -53t16.5 -27z" />
    <glyph glyph-name="udieresis" unicode="&#x44c;" horiz-adv-x="229" 
d="M73 2l33 -7q43 0 75 31q37 35 37 90v22l-4 15l-6 12l-8 17q-9 12 -15 15l-11 4l-15 -2l-14 -3l-5 -13q0 -14 8 -19l4 -10l7 -9q10 -10 10 -26q0 -15 -8 -30l-12 -21l-14 -9l-7 -3l-4 -1q-6 9 -6 32q0 39 12 75v12q1 3 1.5 8t3.5 11l16 65l-3 13q-3 3 -9 3q-3 -1 -7 -1.5
t-10 -3.5l-20 -13l-42 -71q-30 -48 -51 -66q-6 -3 -10 -16l-3 -21q0 -17 5 -20l6 3q7 3 15 13l20 22l9 -18q0 -34 5.5 -53t16.5 -27z" />
    <glyph glyph-name="yacute" unicode="&#xfd;" horiz-adv-x="254" 
d="M226 64h14q8 0 9 11q3 18 -9 21l-14 5l7 34l3 39q0 20 -3 28q-3 33 -19 53q-2 5 -10 8l-10 4l-15 1l-26 -3l-23 -4q-12 6 -45 -21q-30 -27 -45 -57q3 -21 20 -28l15 -3q11 2 18 16l12 28l20 19q18 15 30 15q6 0 10 -4q18 -23 18 -52q0 -17 -5 -31l-6 -18l-7 -13
q-13 0 -27 7l-32 17l-17 -18q-8 -13 -8 -23q0 -6 25 -16l20 -5l21 -3l-4 -11l-7 -10q-6 -21 -25.5 -35t-46.5 -14q-13 0 -17 28q0 23 -7 29q-10 0 -15 -5q-4 -1 -14 -13q-10 -3 -13 -15l6 -18l8 -22q0 -7 18 -16l17 -6l23 -2q27 0 42 5q17 3 32 12l25 23q12 9 16 22l21 43z
" />
    <glyph glyph-name="yacute" unicode="&#x44d;" horiz-adv-x="254" 
d="M226 64h14q8 0 9 11q3 18 -9 21l-14 5l7 34l3 39q0 20 -3 28q-3 33 -19 53q-2 5 -10 8l-10 4l-15 1l-26 -3l-23 -4q-12 6 -45 -21q-30 -27 -45 -57q3 -21 20 -28l15 -3q11 2 18 16l12 28l20 19q18 15 30 15q6 0 10 -4q18 -23 18 -52q0 -17 -5 -31l-6 -18l-7 -13
q-13 0 -27 7l-32 17l-17 -18q-8 -13 -8 -23q0 -6 25 -16l20 -5l21 -3l-4 -11l-7 -10q-6 -21 -25.5 -35t-46.5 -14q-13 0 -17 28q0 23 -7 29q-10 0 -15 -5q-4 -1 -14 -13q-10 -3 -13 -15l6 -18l8 -22q0 -7 18 -16l17 -6l23 -2q27 0 42 5q17 3 32 12l25 23q12 9 16 22l21 43z
" />
    <glyph glyph-name="thorn" unicode="&#xfe;" horiz-adv-x="393" 
d="M125 281q-5 -4 -7 -9q0 -10 -2 -14q2 -9 -4 -22q0 -6 -33 -45q-15 -18 -18 -27l-21 -22q-25 -25 -25 -43q0 -10 5 -19l4 -6l25 21l18 20l14 20q0 -25 -5 -36l-11 -25l-9 -42l-6 -33q0 -9 7 -9q11 -6 19 -6q7 0 13 5l11 7l17 53q15 54 20 58l18 -2h25l-7 -27l-2 -25
q0 -18 5.5 -26.5t23.5 -16.5q3 -6 10 -10l29 -4q30 0 54 12q9 5 53 49l11 14l13 13l28 62l5 18l2 20q0 12 -6 35q-18 24 -47 24q-18 0 -41 -13l1 11l5 12l-6 7l-19 2l-10 -2l-36 -36l-7 -7q-5 0 -23 -27l-20 -36l-19 -3q-8 0 -20 15q2 15 4 23t9 25l9 27q4 13 11 25
q0 6 -20 12.5t-32 6.5q-9 0 -13 -4zM338 102l-16 -20l-23 -18q-25 -19 -41 -19q-17 0 -17 31q0 28 23 57q9 0 20 11l17 22q11 7 25 10q9 0 15 -10l5 -24q0 -25 -8 -40z" />
    <glyph glyph-name="thorn" unicode="&#x44e;" horiz-adv-x="393" 
d="M125 281q-5 -4 -7 -9q0 -10 -2 -14q2 -9 -4 -22q0 -6 -33 -45q-15 -18 -18 -27l-21 -22q-25 -25 -25 -43q0 -10 5 -19l4 -6l25 21l18 20l14 20q0 -25 -5 -36l-11 -25l-9 -42l-6 -33q0 -9 7 -9q11 -6 19 -6q7 0 13 5l11 7l17 53q15 54 20 58l18 -2h25l-7 -27l-2 -25
q0 -18 5.5 -26.5t23.5 -16.5q3 -6 10 -10l29 -4q30 0 54 12q9 5 53 49l11 14l13 13l28 62l5 18l2 20q0 12 -6 35q-18 24 -47 24q-18 0 -41 -13l1 11l5 12l-6 7l-19 2l-10 -2l-36 -36l-7 -7q-5 0 -23 -27l-20 -36l-19 -3q-8 0 -20 15q2 15 4 23t9 25l9 27q4 13 11 25
q0 6 -20 12.5t-32 6.5q-9 0 -13 -4zM338 102l-16 -20l-23 -18q-25 -19 -41 -19q-17 0 -17 31q0 28 23 57q9 0 20 11l17 22q11 7 25 10q9 0 15 -10l5 -24q0 -25 -8 -40z" />
    <glyph glyph-name="ydieresis" unicode="&#xff;" horiz-adv-x="322" 
d="M267 165q0 6 -15 6l-16 -1q21 33 21 68q0 24 -12.5 42.5t-40.5 25.5q-53 0 -101.5 -41.5t-48.5 -95.5q0 -26 13 -51q8 -12 32 -12q22 0 55 10l-25 -32q-17 -22 -34 -33q-6 -6 -17 -7h-11l-7 8l-19 25q-21 33 -30 33q-5 0 -11 -24q-3 -23 -6 -29l15 -38q9 -14 32 -23
l13 -1q37 0 66.5 19.5t53.5 55.5l4 9l9 15q3 1 11 12l7 17l-6 -37l-2 -25q0 -24 9 -35.5t26 -11.5q21 0 48 17t44 37l1 17q0 14 2 18q0 9 -5 12q-18 -10 -36 -28.5t-25 -18.5l-6 4l-1 14v21l4 17zM207 212l-6 -9l-8 -18l-12 -25l-21 -3l-21 -2q-22 0 -22 23q0 15 9 33
q15 25 31.5 37t34.5 12q21 -6 21 -24q0 -9 -6 -24z" />
    <glyph glyph-name="ydieresis" unicode="&#x44f;" horiz-adv-x="322" 
d="M267 165q0 6 -15 6l-16 -1q21 33 21 68q0 24 -12.5 42.5t-40.5 25.5q-53 0 -101.5 -41.5t-48.5 -95.5q0 -26 13 -51q8 -12 32 -12q22 0 55 10l-25 -32q-17 -22 -34 -33q-6 -6 -17 -7h-11l-7 8l-19 25q-21 33 -30 33q-5 0 -11 -24q-3 -23 -6 -29l15 -38q9 -14 32 -23
l13 -1q37 0 66.5 19.5t53.5 55.5l4 9l9 15q3 1 11 12l7 17l-6 -37l-2 -25q0 -24 9 -35.5t26 -11.5q21 0 48 17t44 37l1 17q0 14 2 18q0 9 -5 12q-18 -10 -36 -28.5t-25 -18.5l-6 4l-1 14v21l4 17zM207 212l-6 -9l-8 -18l-12 -25l-21 -3l-21 -2q-22 0 -22 23q0 15 9 33
q15 25 31.5 37t34.5 12q21 -6 21 -24q0 -9 -6 -24z" />
    <glyph glyph-name="OE" unicode="&#x152;" horiz-adv-x="631" 
d="M492 -8q8 2 23.5 9t27.5 14q35 20 46.5 30t12.5 24q0 17 -15 17q-9 0 -18 -12q-15 0 -25 -5l-62 -19l-49 -4l-64 -1q0 90 18 132t57 42l22 1h19q11 3 15 4l52 6q20 0 38 -5q13 7 13 34q0 24 -13 31t-37 7l-11 -1l-16 -3l-18 2l-19 -3l-18 -9q-15 0 -36 -15
q-14 -10 -27 -14q0 21 2 31l9 45q4 19 8 33t15 41q0 11 7 18q3 13 12 22t29 9q25 10 58 10q30 0 46 -8q5 -5 21 -8q15 0 17 9v18l1 18q0 21 -9.5 32t-39.5 11l-28 3q-20 0 -29.5 -1t-32 -8t-35.5 -25q-16 -8 -33 -25q-43 -43 -47 -45q-6 4 -40 42q-20 25 -50 32q-7 4 -21 8
q-7 0 -18 -10q-16 0 -24 -4l-32 -23l-13 -7l-32 -33v20l7 12q6 12 6 23q0 12 -13 16l-15 -12q-11 -8 -17 -23q-7 -3 -23 -43l-23 -75l-14 -19l-4 -12l-7 -16q-2 -10 -11 -25l-4 -9l-13 -24q-12 -21 -12 -36l2 -11q3 -6 14 -6q6 3 9 18l5 -2l3 -24l-5 -7l-1 -4l-1 -43v-13
v-10l-2 -10v-28q0 -16 8 -35q6 -23 31 -41l31 -13l28 -5q24 0 68 22q14 0 53.5 32t69.5 69l-1 -22l-5 -44q0 -15 6 -29q7 -10 25 -10l-7 -13l3 -8q21 -6 47 -6q13 0 25.5 1t23.5 4l27 4zM279 129q-21 -33 -54.5 -57.5t-63.5 -24.5q-18 0 -31 10t-23 42t-10 79q0 54 10 105
q3 28 18 76q28 34 58 52t55 18q33 0 62 -29q19 -22 38 -66q3 -12 4 -18t1 -19q0 -27 -4 -47q-3 -23 -16 -51q-18 -51 -44 -70z" />
    <glyph glyph-name="florin" unicode="&#x192;" horiz-adv-x="428" 
d="M125 -213l26 36l27 38q-3 13 10 39l13 33q0 6 -4 10l20 85l15 66l16 59l14 52l45 8l17 1l20 4q10 0 23 25q6 13 16 23q-46 0 -61 -8q-5 3 -18 3l-27 -1l1 8l4 11l7 24l15 49l18 70q3 12 13 21t26 12q12 0 26 -17q0 -12 10 -12q9 0 18 12t9 27q0 28 -8 44q-6 17 -26 17
l-25 -6l-12 2q-24 0 -49 -17t-25 -40q-12 -17 -21 -43l-7 -22l-7 -35l-16 -64q-6 -42 -11 -47l-17 -7l-12 -1l-34 2q-6 3 -12 -11q-12 -24 -9 -48l27 3l31 3h8l2 -6l-29 -109l-22 -97q-3 -21 -7 -35.5t-16 -39.5q-21 -50 -37 -62q-23 -3 -31 -8q-9 3 -16 16q-5 13 -8 15
l-13 -4l-16 -11v-12v-18l-4 -13l2 -19q0 -16 13 -20l15 -2l13 3q5 -3 15 -3l14 1l14 2l21 11z" />
    <glyph glyph-name="circumflex" unicode="&#x2c6;" horiz-adv-x="209" 
d="M61 332q9 0 17 3.5t23 16.5l38 29l7 -3l4.5 -1.5t9.5 -6.5q12 -6 16 -11q18 -2 37.5 -14t25.5 -12t7 13q0 18 -15 33q-4 6 -55 31q-12 12 -24 12l-20 -6l-21 -8l-46 -35q-14 -11 -17 -25q0 -9 13 -16z" />
    <glyph glyph-name="tilde" unicode="&#x2dc;" horiz-adv-x="254" 
d="M67 363q7 4 17.5 8.5t16.5 5.5q9 0 12 -12l6 -22q2 -5 15 -8q9 0 36 9l22 3l19 5q27 9 39 21q6 12 6 21q0 6 -7 7q-8 0 -21 -7l-19 -9l-24 -11l-14 -3q-8 0 -11 14l2 13q-3 8 -9 12t-20 7q-13 0 -21 -5q-25 -3 -39 -11q-13 -3 -18 -7l-20 -13q-15 -5 -21 -16l-2 -15
q0 -9 14 -6l18 12z" />
    <glyph glyph-name="endash" unicode="&#x2013;" horiz-adv-x="385" 
d="M12 143q0 -7 41 -7l78 2l57 3l28 2l52 -1l41 -1l24 -4l24 -1q20 0 32 9v46q-3 6 -12 6l-361 2q-4 -4 -7 -22l1 -19q0 -11 2 -15z" />
    <glyph glyph-name="emdash" unicode="&#x2014;" horiz-adv-x="762" 
d="M756 197l-128 -1l-138 -1l-272 2l-202 2q-6 0 -7 -16l2 -12q2 -7 -1 -18q-2 -12 4 -12l48 -4l48 3l52 3l198 -1l200 -1h200l3 16l1 18q0 21 -8 22z" />
    <glyph glyph-name="quoteleft" unicode="&#x2018;" horiz-adv-x="111" 
d="M33 336l20 7l15 9l3 16l2 14l-1 11q6 9 6 35l16 55l10 40q-5 4 -9 5q-7 0 -14 -4t-18 -18q0 -13 -5 -22l-17 -35q-14 -12 -24 -44l-13 -50l3 -3l9 -8z" />
    <glyph glyph-name="quoteright" unicode="&#x2019;" horiz-adv-x="174" 
d="M129 361q4 17 18 50l35 81l3 6l2 8q0 7 -6 12l-24 9l-26 -9q-10 -3 -12 -8l-1 -18l-1 -17l-6 -46q-6 -42 -23 -79l-1 -11l7 -3q10 0 20.5 7.5t14.5 17.5z" />
    <glyph glyph-name="quotesinglbase" unicode="&#x201a;" horiz-adv-x="418" 
d="M62 142q-1 -8 -1 -13q0 -10 3 -27q3 -31 10 -46l15 -31l12 -20q15 -21 35 -18q39 0 77 36q18 20 52 74l5 2l3 -10l-4 -40l-4 -40q3 -3 3 -14v-5l-1 -5q0 -22 14 -22q5 0 22 9l26 15l10 16l5 11q0 6 -13 12q0 76 20 153l41 172q21 87 21 152l-3 26q-3 13 -11 14l-9 -3
t-14.5 -8t-14.5 -15l-7 -16l-3 -27q-7 -7 -19 -43l-7 -34l-13 -59l-6 -36q-8 -16 -26.5 -88t-45.5 -98q-16 -33 -26.5 -44.5t-32.5 -11.5q-17 6 -32 27l-10 22l-6 23l-3 14l-6 27l-5 57l1 13l2 7v8l-1 20v18l3 23l6 20l1 13l4 25l5 47q0 18 -6 33q-3 14 -12.5 17.5
t-18.5 19.5q-6 15 -12 13q-14 -3 -20.5 -36.5t-6.5 -84.5l-6 -27l-2 -44v-25l2 -29q0 -22 4 -34l-3 -29l3 -17l-1 -17q0 -15 7 -22zM240 604q-12 -8 -43 -22q-27 -9 -34 -17l2 -5l5 -5l11 -5l47 15q20 6 31 16q5 0 32 15l32 16l10 19l4 14q0 7 -2 10q-18 18 -35 12
q-12 -21 -26 -35q-6 -9 -34 -28z" />
    <glyph glyph-name="quotedblleft" unicode="&#x201c;" horiz-adv-x="219" 
d="M192 393l4 12l2 19l6 28l17 60q3 15 -10 15q-15 0 -33 -30q-14 -30 -16 -48l-5 -7l-11 -22l-17 -51l-6 -16l8 -7l9 -5l13 -5q13 3 23 10l16 19l3 12l-1 9zM82 393l4 12l2 19l7 28l17 60q3 15 -10 15q-17 0 -32 -30.5t-17 -47.5l-5 -7l-11 -24l-17 -49l-2 -11
q0 -21 23 -21q13 0 24 7q11 5 17 21l3 12l-1 9z" />
    <glyph glyph-name="quotedblright" unicode="&#x201d;" horiz-adv-x="219" 
d="M37 475l-5 -11l-1 -23q0 -10 -13 -55l-10 -31q-3 -14 12 -17q13 0 31 30q14 30 16 48l6 10l15 34l14 38l4 14q-3 5 -8 8l-10 5l-12 4q-28 -9 -39 -29q-3 -5 -3 -11v-9zM147 475l-5 -11l-1 -23l-9 -37l-15 -49l-1 -6v-4q0 -6 11 -7q13 0 31 30t18 48l4 7l12 24l19 49l4 16
q-3 5 -8 8l-9 5l-12 4q-29 -9 -39 -29q-3 -5 -3 -11v-9z" />
    <glyph glyph-name="quotedblbase" unicode="&#x201e;" horiz-adv-x="219" 
d="M39 129l-27 -117l-2 -14q0 -6 8 -6l18 9q15 11 15 17q2 16 10 33l26 57l10 22l10 34l2 6l-16 7l-19 4q-15 0 -31 -13zM149 127l-5 -24q0 -22 -5 -33l-18 -58l-3 -15q2 -3 7 -5q7 -2 18 6.5t17 19.5q0 6 9 29l11 23q5 5 9 16l9 25l9 24l7 28q0 21 -26 21q-16 0 -36 -16
q-3 -5 -3 -15v-26z" />
    <glyph glyph-name="bullet" unicode="&#x2022;" horiz-adv-x="279" 
d="M141 121q57 0 97.5 42t40.5 97q0 52 -42 92.5t-96 40.5q-57 0 -97 -38t-40 -95q0 -56 39 -97.5t98 -41.5z" />
    <glyph glyph-name="ellipsis" unicode="&#x2026;" horiz-adv-x="613" 
d="M75 0l15 4l20 10q31 6 31 29q0 12 -11.5 23.5t-30.5 11.5l-8 4q-5 0 -16 -9l-12 -14q-10 -3 -15 -8l-4 -11q0 -9 11 -23zM327 0q20 3 35 14q10 3 21 13l13 16q0 14 -14 23.5t-31 11.5q-6 9 -20 -2l-16 -15q-16 -14 -19 -27q0 -9 8 -17zM577 0q9 0 17 4l20 10q18 3 32 29
q0 10 -9 22q-13 13 -34 13l-9 4q-8 0 -16 -8l-12 -12l-12 -15q-6 -12 -6 -20q-3 -9 29 -27z" />
    <glyph glyph-name="guilsinglleft" unicode="&#x2039;" horiz-adv-x="184" 
d="M141 268l-27 -26q-9 -8 -20 -17.5t-21 -15.5q-3 -7 -31 -33q-15 -12 -18 -24q-7 -11 -7 -26q0 -13 9 -37l13 -32l16 -23l13 -18q2 -2 15 -5q22 0 36 11q7 4 4 11q-3 11 -23.5 42.5t-20.5 49.5q0 12 9 27l12 19l31 36q13 5 21 13l22 20q12 6 17.5 14.5t2.5 15.5
q-6 5 -21 8l-16 -4z" />
    <glyph glyph-name="guilsinglright" unicode="&#x203a;" horiz-adv-x="174" 
d="M65 21l23 24l14 9l13 11l20 17q3 5 22 23q18 15 21 30q7 16 7 31q0 27 -17 58.5t-37 50.5q-3 3 -10 3q-14 0 -28 -6.5t-15 -11.5q3 -10 26 -47q20 -34 20 -52q0 -12 -6 -24l-29 -33q-12 -12 -18 -24q-4 -2 -8 -4.5t-14 -10.5l-16 -13l-16 -13q-5 -3 -8 -12l6 -10
q6 -6 17 -6l17 4z" />
    <glyph glyph-name="trademark" unicode="&#x2122;" horiz-adv-x="656" 
d="M4 529v-47h96v-265h54v265h96v47h-246zM303 527v-308h54v256l102 -256h35l102 256v-256h54v308h-84l-89 -230l-90 230h-84z" />
    <glyph glyph-name="NULL" horiz-adv-x="0" 
 />
    </font>
</defs>
</svg>
